<svg id="Layer_1" data-name="Layer 1" xmlns="http://www.w3.org/2000/svg" xmlns:xlink="http://www.w3.org/1999/xlink" viewBox="0 0 1024 1024"><defs><linearGradient id="linear-gradient" x1="-218.62" y1="965.03" x2="764.66" y2="284.28" gradientTransform="matrix(1, 0, 0, -1, 206, 1142)" gradientUnits="userSpaceOnUse"><stop offset="0.01" stop-color="#f3e2e4"/><stop offset="0.01" stop-color="#faf5e3"/><stop offset="0.85" stop-color="#fbfbed"/></linearGradient></defs><title>i watch you love somone else</title><path d="M1003,825.4l-919.9,70L6.1,192.7l908.8-25.8Z" style="fill:url(#linear-gradient)"/><path d="M233,379.6c5-1,8.3-1.5,10-1.4a4.3,4.3,0,0,1,3.8,1.8c1.5,3.7.8,5.5-1.9,5.5a74.1,74.1,0,0,1-10.9,1.8c-6.3,1.2-9.6,2.1-10,2.9a4.1,4.1,0,0,0-.8,1.2l-.7,1.2c.2,1,0,3.1-.8,6.3s-1.6,6.6-2.3,10.2c-2,9-3.3,14.2-3.8,15.5a15,15,0,0,0-.8,4.4c-1.3,6.3-2.6,12.7-4.1,19.2s-2.3,11.2-2.8,14.3l9.8-1.8c4.7-.9,7.7-1.4,9.1-1.3a2.8,2.8,0,0,1,2.8,1.6c2.7,2.9,2.4,4.9-.8,5.9a31.4,31.4,0,0,1-7.4,1.1l-14.2,2.1c-1.9.5-2.9,1.1-3,2s-1.1,1.6-3.7.8-5.5-1.8-12.4-.8a8.6,8.6,0,0,1-5.3-.4c-1.7-.6-2.4-1.5-2.2-2.7s3.6-3.9,10.8-4.7l7.1-.8,1.1-2.8c.5-2.1,1-4.6,1.6-7.6s1.3-6.2,2.2-9.8c2.2-9.6,3.3-14.9,3.5-16,1.1-3,2.1-7.9,3.1-14.7,2.9-13.3,4-20,3.2-20.2a57.1,57.1,0,0,0-7.3,1.2c-3.9.7-6,1.2-6.5,1.5s-1.1.9-2.2.7a3.3,3.3,0,0,1-2.2-1.7c-.4-1.5-.2-2.6.5-3.3s2.9-1.7,6.1-3a52.5,52.5,0,0,1,10-3.1,14.7,14.7,0,0,0,7.5-3.6,12,12,0,0,1,4.6-1.2Q225.5,380.8,233,379.6Zm75.8,42a39.2,39.2,0,0,0-2.1,9.3,49.8,49.8,0,0,0-.6,8.3,9.4,9.4,0,0,0,.7,3.1,1.5,1.5,0,0,0,.9.9,3.2,3.2,0,0,0,1.4,0c4.2-.4,8.9-5.5,14.1-15.4,2.2-4.2,3.3-6.7,3.2-7.3a4.8,4.8,0,0,1,1-2.5,10.5,10.5,0,0,1,2.8-3.3c1-.6,2.3-.3,3.7.9s1,1.9,1.3,4.2a58.1,58.1,0,0,1-1.7,6.5,30.2,30.2,0,0,1-2.1,5.1,17.8,17.8,0,0,0-3.9,5.4,48.7,48.7,0,0,1-4.8,6.2,17.5,17.5,0,0,0-1.8,2,20.5,20.5,0,0,1-8.5,6.2c-3.1,1-5.6.8-7.5-.4s-4.5-3.5-4.8-6.9l-1-2.7c-1.3.1-2.4,1.1-3.3,3.1s-2.7,4.1-5.5,6.6-5,3.9-6.7,4-3.9-1.4-5.5-4.7a26.6,26.6,0,0,1-2.6-11.8,42.2,42.2,0,0,1,0-8.7q.6-4.2.6-4.8c.3-6.5,1.1-10.5,2.3-12a3,3,0,0,1,2.7-1.3c2.7-.1,4.1,2.2,4.3,6.9q.2,4.3-.9,6a52.7,52.7,0,0,0-.5,7c0,4.1-.1,6.6-.2,7.6-.2,3,.5,4.5,2,4.5s4.6-2.9,7.9-8.7,5.6-10.9,6.7-15.3,1.9-7,2.4-7.4,3.1-1,5.1.2S310.5,417.3,308.8,421.6ZM374,414c-1.9-3.4-3.8-5-5.8-4.8s-4.8,2.8-8.3,7.9a85.2,85.2,0,0,0-9.5,17.5l-2.6,8c.1,1,1.2.8,3.3-.5a27.2,27.2,0,0,0,5.4-4.1q10.7-11,15-18.9Zm-30.4,36.6a3.6,3.6,0,0,0-1.5-1.5,3.1,3.1,0,0,1-.9-1.7,3.2,3.2,0,0,0-.9-1.7c-1.6-1.4.2-8.2,5.5-20.4a20.8,20.8,0,0,0,1.7-3,18.4,18.4,0,0,1,1.5-2.4,1.7,1.7,0,0,1,.3-1,1.2,1.2,0,0,1,.9-.6v-.8c-.1-.8,1.2-2.9,3.8-6.3,7.1-9,13-12,17.6-9,.6.7,4.6,3.8,12.1,9.2l-1.8,6.9a18.7,18.7,0,0,0,3.2,16.2,7.8,7.8,0,0,0,3,2.6,8.4,8.4,0,0,0,4.2,1.2c2,.2,3,1.1,3.2,2.8a2.8,2.8,0,0,1-2.1,3.3c-5.9,1.4-11.4-1.8-16.3-9.5a14.2,14.2,0,0,1-3-5.7,44.5,44.5,0,0,1-3.8,5.5Q353.2,455.4,343.6,450.6Zm68.2-5.6a17.4,17.4,0,0,1-3.8-5.6,28.3,28.3,0,0,1-1.3-6.8,43.5,43.5,0,0,1,.1-8.8c.9-7.7,1.7-12.8,2.2-15.2s-.3-1.6-1.5-1.7a10,10,0,0,0-3.9-.1,5.5,5.5,0,0,1-2.7,0l-.6-.7a2.4,2.4,0,0,0-.7-1.3,1.7,1.7,0,0,1,.1-1.8,3.2,3.2,0,0,1,1.5-1.4l2.7-.6,3.1-.8c2.7-.8,4.5-2,5.4-3.5.9-3.1,2-6.5,3.5-10.3s2.4-6.3,3-7.1,2.5-1.4,3.3-1.2,1.6.7,2.6,2a2.8,2.8,0,0,1,1.2,3c-.1,1-1.8,5.6-5.2,13.9a18.4,18.4,0,0,0,4.3-.4,23.5,23.5,0,0,1,7.3-1.1c3.9-.4,6.1,1.1,6.7,4.4.2.9.1,1.5-.4,1.8a99.8,99.8,0,0,1-10.4,1.6c-6.4.8-9.7,1.4-9.7,1.7s-2,5.2-3.4,13.3a71.5,71.5,0,0,0-.5,13.6c.3,4,1.1,6.7,2.4,8.2s2.4.7,4.6.1a13.5,13.5,0,0,0,6-3.7q2.7-2.7,4.5-1.5c1.2.7,1.1,2.4-.5,5.1a16.5,16.5,0,0,1-6,6.3,10.8,10.8,0,0,1-7.1,1.9A16.4,16.4,0,0,1,411.8,445Zm63.7-8.2-2.1.7a38.2,38.2,0,0,0-4.1,1.4,21.6,21.6,0,0,0-4.3,1.7c-2.2,1.3-5.6,1.3-10.2.1-.5.1-1.2-.2-2.3-1a9.1,9.1,0,0,1-2.4-2.4c-3.6-4.2-3.7-12.1-.2-23.8A68.6,68.6,0,0,1,454,405c2-3.6,3.4-5.7,4.2-6.2a39.2,39.2,0,0,0,4.7-2.6c4.2-2.6,8.8-2,13.8,1.7,3,2.1,4.3,4.1,3.8,5.8s-.2.5-.7,1l-2.7,3.3a2.1,2.1,0,0,1-2.9.6,4.3,4.3,0,0,1-2.2-3.3c-.2-.6-1.5-1.4-3.9-2.6s-3.6,2.6-6.2,7.2-5.6,9.7-6.8,16.8a7.6,7.6,0,0,0,.2,3.9,6.2,6.2,0,0,0,1.2,2.7c.8.3,3.5-.2,8.1-1.3a51.7,51.7,0,0,0,10.5-3.6c2.6-1.9,4.9-2.8,7.1-2.5s2.1,1.2,1.8,2.4-1.7,2.5-4.6,4.3S475.4,435.8,475.5,436.8ZM540,409.5v7.2l-.4,4.4,2.2-.2,3,.4a3.4,3.4,0,0,0,2.3,1.3c1.4-.2,1.7.5,1,1.9a6.1,6.1,0,0,1-1.5,1.7c-4,3.2-7.6,3.5-10.6,1s-4.1-6.5-3.3-12a69.1,69.1,0,0,0-.2-8.6c-.2-1.9-.7-2.8-1.6-2.7s-6.1,3-12.1,8.3-10.3,10.4-13,15.6c-2.4,3.6-4.3,5.6-5.8,5.9a5.3,5.3,0,0,1-3.9-.9q-1.7-1.2-1.8-2.1a18.1,18.1,0,0,1,.2-3.7,211.1,211.1,0,0,1,5.4-27.6,124.3,124.3,0,0,1,2.9-12.5c1.3-4.3,2.4-8.2,3.2-11.5s1.7-6.7,2.5-9.7,1.4-5.3,1.8-6.7,1-3.8,1.4-5.5a1.9,1.9,0,0,1,2-2.3c1.7-.2,3.2.9,4.2,3.3a10.5,10.5,0,0,1,.1,8c-1,2.8-2.7,8.7-5,17.7s-3.9,14.9-5,17.9q.2,1.5-2.1,7.5c0,.3-.4,2.4-1.2,6.2a54.6,54.6,0,0,0-1.3,8.2,34.9,34.9,0,0,1,6.1-8.4c4.6-4.7,7.4-7.5,8.5-8.4l3.9-3.2c-.1-.4.2-.7,1-.8s1-.3,1-.9.9-1.2,2.9-1.9a20.8,20.8,0,0,1,5-1.2,4.4,4.4,0,0,1,3,.4,11.1,11.1,0,0,1,2.7,2.7C540.3,401.3,541.2,405,540,409.5Zm30.7-8.9a4.6,4.6,0,0,0,1.2,3,2.9,2.9,0,0,0,2.6,1c2.6-.3,4.8-1.8,6.6-4.7a16.9,16.9,0,0,0,2.7-7.9c.3-2.5-.2-4-1.2-4.7s-5.2.7-8.8,4.5a39,39,0,0,0-4.8,6.4l-1.5,3a4.2,4.2,0,0,1,2.1-.6C570.3,400.4,570.7,400.4,570.7,400.6Zm-5,6.7c-1.7,5.9-2.3,10.3-2.1,13s.8,4.8,1.7,6,2.3,1.5,4.4,1.3a20.4,20.4,0,0,0,5.2-1.1,30.8,30.8,0,0,0,5.4-4.2l4.3-3.1c.4,0,.7-.3,1-.8a3,3,0,0,1,2.9.2,2.7,2.7,0,0,1,1.8,2.2c-.1.8-.8,2-2.1,3.7s-2.3,2.7-3,2.9l-1.9,1.2h.2a3.4,3.4,0,0,1-2.3,1.9h-1.1c-.3.7-1.4,1.5-3.4,2.4a14.9,14.9,0,0,1-5.5,1.6,12.3,12.3,0,0,1-10.2-3.5,16.3,16.3,0,0,1-4.6-10.9c-.3-6.6,1.2-13.9,4.6-21.8,4.8-11.2,10.6-17.1,17.6-17.7a13.1,13.1,0,0,1,5.9.9,9.8,9.8,0,0,1,6.2,5.9,18.5,18.5,0,0,1,.4,6.9c-1.6,6.7-4.8,11.8-9.7,15.2a10.1,10.1,0,0,1-5.2,1.9c-4.2.4-7.4-.7-9.5-3.2Zm64.6-15.9c0-.5-.9-.8-2.6-.8-5.3-.3-10.3,3.1-15.2,10.2a45.5,45.5,0,0,0-4.8,9.3c-2.5,6.7-2.8,10.3-1,11s6.4-3.2,11.6-9a69.8,69.8,0,0,0,7.7-11.6C629,395.2,630.4,392.2,630.3,391.4Zm5.9,18.4a81.5,81.5,0,0,0,.4,10.1c.5,4.6.3,6.9-.5,6.9a4.4,4.4,0,0,1-4-1.5,11,11,0,0,1-2.3-3.3,10.1,10.1,0,0,1-.6-4.7v-6.2h-.6c-.1-.1-.3.1-.9.5a3.8,3.8,0,0,0-.9.9l-1.4,1.3c-.6.6-1.1,1.2-1.6,1.6-7.1,9.6-13.3,14.3-18.7,14.1s-6.6-4-6.5-11.6a40.6,40.6,0,0,1,4.9-18,33.1,33.1,0,0,1,5.9-8.4,25.6,25.6,0,0,1,8.2-6c4.2-2.1,8.2-2.8,12-2,2.3,1,3.7.7,4.1-.9a23.6,23.6,0,0,0,1-3.3,29,29,0,0,1,1.3-4.1c1.7-7.2,3.2-12.8,4.6-17l3.3-10.1c1.2-3,2.2-4.8,3.1-5.4s2.3-.3,3.6.9a5.8,5.8,0,0,1,1.5,3.9,39.7,39.7,0,0,1-1.8,7.2q-2.7,5.6-7.8,22.5a42,42,0,0,1-.9,4.7c-.5,2.5-.9,5.1-1.2,7.7s-.5,3.8-1.1,3.8C637.9,395.4,636.8,400.8,636.2,409.8Zm61.3-26.9-.6,12.7c-1.2,8-1.3,12.1-.2,12.3,3.6-3.4,8.5-10.4,14.7-20.8,2.1-4.8,3.5-8.2,4.1-10.2s1.3-3.2,2.1-3.4a4.3,4.3,0,0,1,2.6.3c1.2.5,1.8.8,1.9,1a2.6,2.6,0,0,0,1.3.4c.9,0,1.3.1,1.3.4s-.5,1.9-1.4,5.1-1.4,5-1.3,5.3-.7,3.4-2.6,9.4a93.2,93.2,0,0,1-5.6,18.1c-.9,1.9-4.8,13.8-11.9,35.7a7.6,7.6,0,0,1-.8,3.9l-1.9.3c-.1.2-.4.1-1.1-.4-2.2-1.4-3.3-2.6-3.2-3.6s-.1-6.5,2.3-13.1a36.1,36.1,0,0,0,2.1-5.6c.8-2.7,1.5-4.6,2-5.9,5.3-12.1,8.6-20.5,10-25.1-1.4,1.8-3.4,4.6-6,8.3a60,60,0,0,1-5.7,7,6.4,6.4,0,0,1-3.4,1.7c-3.6-.5-5.9-1.8-6.7-3.9-1.2-3.8-1.4-10.9-.7-21.4.6-4.8.8-7.8.5-9.3a5.2,5.2,0,0,0-2.1-3.6c-2.6-1.9-2.7-3.6-.4-5.1a9.3,9.3,0,0,1,3.9-.9,3.9,3.9,0,0,1,2.3,1.3,15,15,0,0,1,2,2.3l1.2,1.6A16.6,16.6,0,0,1,697.5,382.9Zm57.7,17.3c4.7-8.5,6.2-16,4.6-22.6-.6-2.4-1.3-3.6-2-3.7-2.7-.9-5.5.5-8.3,4s-6.1,12.3-8.1,22.9c-.9,5-.1,8,2.4,9.1s5.8-1.1,9.6-6.5Zm-3.8-33.7a14.7,14.7,0,0,1,3.9-1.6c.7-.1,1.9.4,3.4,1.3a9.6,9.6,0,0,1,8.2,7.1c2.4,6.6,1.8,14.3-1.7,23.1a45.4,45.4,0,0,1-4,8,93,93,0,0,1-6.3,7.1,21.2,21.2,0,0,1-8.9,5.7c-1.5.3-3.4-.1-5.7-1.3-4.2-2.7-6.4-5.6-6.5-8.7a3.8,3.8,0,0,0,0-1.5,3.7,3.7,0,0,0-.4-1.6c-.6-.4-.8-.7-.6-1a1.5,1.5,0,0,0,.3-.6c.7-.2.8-.7.2-1.5s-.4-2.3-.1-4.8a41.1,41.1,0,0,1,1.7-7.1,45,45,0,0,1,6.6-13.9A28.3,28.3,0,0,1,751.4,366.5Zm54.3,33.3-.2-2.5a8.7,8.7,0,0,1-2.6,3.9,24.4,24.4,0,0,1-5.8,5.1c-2.9,2.3-5.3,3.5-7.1,3.8s-3.6-.6-5.6-2.5-4.5-5.3-4-9.5c-.3-6.3,1-13.5,3.8-21.7a116.7,116.7,0,0,1,5.1-11.8c2.8-1.3,4.5-.5,5.2,2.2s.4,5.9-2.4,12.8c-4.2,13.2-4.8,20.2-1.7,21.1,1,.6,2.4.4,4.1-.5s3.9-3,6.3-6.4a39.2,39.2,0,0,0,5.7-11.8,34.3,34.3,0,0,0,2-11.4,4.6,4.6,0,0,1,1.8-5.3,4,4,0,0,1,1.3-1.3c.6-.4,1-.5,1.3-.1l2.1-.4c.3,0,.6.3.9.8a3,3,0,0,0,.9,1c2.2,1.5,1.8,7.1-1.4,16.7-2.3,6.3-3.3,11.1-3.1,14.4a10.4,10.4,0,0,0,4.6,7.9c1.5.8,2.2,2.4,2.3,4.8a3.7,3.7,0,0,1-2.8,2.7,5.5,5.5,0,0,1-4.5-.2,19.6,19.6,0,0,1-5.6-8.7A10.2,10.2,0,0,1,805.7,399.8Zm-650,167.4.9-5.2c1.2-2.9,3.1-9.4,5.8-19.4s3.9-15.7,3.8-16.9.5-2,2-2.1a2.9,2.9,0,0,1,2.1-.9l2.3,2a4.3,4.3,0,0,1,1.8,3.4,23.2,23.2,0,0,1,.2,3.1l-.2,1.4a6.2,6.2,0,0,1-.5,1.8c-.3.8-.5,1.6-.7,2.2s-.7,1.9-1.3,3.7-1.2,3.1-1.6,4.3-.8,2.5-1.3,3.9l-1.2,3.2a6.3,6.3,0,0,0-.4,1.4,2.4,2.4,0,0,1-.2,1,9.5,9.5,0,0,1-.4,1.7c-.2.6-.5,1.4-.8,2.5-2.9,8.2-4.2,12.7-4.1,13.6a2.7,2.7,0,0,1-.5,1.9q-.7.2-.6,1.2v.4c.1.9-.4,3.3-1.5,7.3q-3.9,19.9-3.6,23.7a20.1,20.1,0,0,1,.2,4.6,2.2,2.2,0,0,1-.9,1.6q-3.9,1.4-5.7-2.7c-1.2-2.8-1.4-6.8-.8-11.9a19.2,19.2,0,0,0,.9-5.7,61.3,61.3,0,0,1,1.8-9.4,85.7,85.7,0,0,1,2.4-8.3c.9-.1,1.2-1.1,1-3.1S154.8,568.1,155.7,567.2Zm43.6,7.7c-1.2.1-2.9-.6-5.3-2.2l-2.4-2.5-2.1,2.5c-1.9,2.4-3.8,6.1-5.6,11.2s-2.7,8.6-2.7,10.5.3,3.3.8,3.8a3.4,3.4,0,0,0,2,.6,14.3,14.3,0,0,0,4.2-2,10.1,10.1,0,0,1,2.6-2.4q2.1-.3,6.9-7.8c3.5-4.8,4.9-8.3,4-10.6,0-.2-.3-.4-1-.5Zm14.3-9.7c0,1,.5,1.4,1.4,1.3s-.2,1.6-3.6,4.6-3.2,2.6-3.2,3a2.3,2.3,0,0,0,.2,1.3c2.3,4.1.8,9.7-4.4,16.7s-10.7,11-16.8,12.3a14.6,14.6,0,0,1-3.6.8,6.2,6.2,0,0,1-2.3-1.4,12.7,12.7,0,0,1-5.1-3.7,9,9,0,0,1-1.8-4.9,55.1,55.1,0,0,1,5-21.1c3.3-7.7,6.9-12.4,10.7-14.2s7-1.8,8.6.9,1.5,4.2-.4,5.1-1.4.6-1.3,1.4,2.5-.1,5.5-.8,4.8-1.5,5.4-2.3a5.2,5.2,0,0,1,3.2-.3C212.7,564.2,213.5,564.6,213.6,565.2Zm37.4-3.6c0,.2.7.2,2-.2s1.4-.8,2.6-.2a3,3,0,0,1,1.5,1.8c.1.7-.5,2.3-1.7,5.1s-2.1,4.1-2.7,4.5l-1.2,1.5q-.6,3.6-12,21a16,16,0,0,1-5.4,5.8,3,3,0,0,1-1.8,1.1,7,7,0,0,1-2.1-1.4q-4.9-4.1-7.2-27.9c0-4.9-.2-9.5-.6-13.9q.9-1.3,3.9-.3a4,4,0,0,1,2.4,3.4c.5,1.8,1,6.3,1.7,13.5s.5,13,1,13.7,1.1.8,1.5.5a15,15,0,0,0,2.6-2.8c2.4-4.4,4.7-8.6,7-12.4s3.8-6.2,4.3-7.3a25,25,0,0,1,2.2-3.6C250,562.3,250.7,561.6,251,561.6Zm39.2-4.8c-1.5-1.3-3.5-.9-6,1.3a11.7,11.7,0,0,0-3.7,3.3,44.6,44.6,0,0,0-4,5.5c-1.1,1.7-1.4,2.7-.9,2.9s0,.3.3.4l1.2.2a3.8,3.8,0,0,1,1.5,0h1.2l2.7-.7,2.6-.8,1.8-1.2c1-.8,2.4-2.7,4.2-5.8S291.2,557.7,290.2,556.8Zm-28.8,10,2.2-.4c1.3-.2,1.9,0,2,.6s1.7.7,2.9-1.2l1.1-2.4a32.2,32.2,0,0,1,4.9-6.7,41.2,41.2,0,0,1,5.7-5.3,15.5,15.5,0,0,1,7.5-2.2c2.4,0,4.9,1.2,7.5,3.5s2.6,2.8,2.9,5.2a10.5,10.5,0,0,1-.6,6.4c-.2,1.4-1.5,3.2-3.8,5.5a23.5,23.5,0,0,1-6.3,4.9,53.2,53.2,0,0,1-7,1.6q-4.3.5-5.7,0c-.7-.3-1.1.3-1.3,1.9a44.4,44.4,0,0,0-.4,6.2c.1,2.6.3,4.2.7,4.8l1.2,1.1c3.5,2.9,6.8,2.8,10-.4l3.2-3.8,2.7-3.1c.6-1.3,2-1.7,4.4-1.3s1.5,1.4,1.4,2.1a7.7,7.7,0,0,1-.7,3.2,14.7,14.7,0,0,1-3.3,4.8,30.3,30.3,0,0,1-4.2,4,16.3,16.3,0,0,1-14.1,2.4c-3.6-1.1-6.1-2.8-7.4-5.2a21.7,21.7,0,0,1-1.7-9.9,43.8,43.8,0,0,0-.2-7.5,2.7,2.7,0,0,0-1.1-2.1l-1.5-1.2a6.1,6.1,0,0,1-1.8-2.2,4.5,4.5,0,0,1,0-2C260.8,567.3,261,566.9,261.4,566.8Zm107.6-27a13.5,13.5,0,0,0,3.2.6,6.6,6.6,0,0,1,4.7,2.7,7.7,7.7,0,0,1,2.2,5.1,9.4,9.4,0,0,1-1.2,4.7,4.5,4.5,0,0,1-2.7,2.4c.5-.1-.1-.4-1.7-1.1l-.4.3a4,4,0,0,0-.7-1.2,8,8,0,0,1-.4-3.1c0-1.6,0-2.4-.2-2.6a4.4,4.4,0,0,0-2-.3,12.5,12.5,0,0,0-5.2,1.4,25.2,25.2,0,0,0-6.7,4.1c-4.4,3.5-7.1,7-8.3,10.6-1,1.6-1.4,2.7-1.3,3.5s3.1,3.5,8.9,5.5,9.2,4.1,10.4,6.6a2.1,2.1,0,0,1,.1,2.3l.3.2c1.1,1.5.9,3.2-.9,5.1s-4,3.1-7.2,4.1a23,23,0,0,1-6.4,1.5c-4.5.4-7.9-.9-10.3-3.9-1.3-1.4-1.7-2.7-1.1-3.8s1.4-1.3,2.5-.1a10.6,10.6,0,0,0,5.6.5,20.5,20.5,0,0,0,7.1-2c2.8-1.5,3.5-2.6,2.2-3.2a29.5,29.5,0,0,1-10.8-4.1c-3.7-2.3-5.8-4.4-6.3-6.4-1.9-5.4-.8-10.9,3.6-16.7a21.6,21.6,0,0,1,4.9-3.3h.1c2.1-2.6,6.5-5.5,13.4-8.5A29.6,29.6,0,0,1,369,539.8Zm46.1,17.1a16.2,16.2,0,0,0,.1-5.9q-.3-3.7-1.5-4.2c-2.6-1.2-5.5-.2-8.6,2.9s-7.9,11.4-11.4,21.6c-1.5,4.6-1.1,7.7,1.3,9.3s7.1-.6,12.6-7.9A49,49,0,0,0,415.1,556.9Zm-26,1.4c5.1-10.5,11.5-17,19.3-19.6a13.1,13.1,0,0,1,3.9-1.1c.9,0,2.1.7,3.4,1.9a10,10,0,0,1,4.8,2.8,10.5,10.5,0,0,1,2.4,5.3c1.3,6.9-.3,14.5-5,22.6a42.4,42.4,0,0,1-5.1,7.4,51.4,51.4,0,0,1-6.6,5.6,22,22,0,0,1-10.1,4.9c-1.6.1-3.4-.5-5.5-2.1-3.7-3.1-5.5-6.3-5.2-9.5v-3.1c-.5-.4-.7-.7-.5-1s.4-.5.4-.6.7-.5.5-1.3-.1-2.5.6-5A28.2,28.2,0,0,1,389.1,558.3Zm48-13.8a15.9,15.9,0,0,0,1-5.6,3.5,3.5,0,0,1,1.2-3.1,4.2,4.2,0,0,1,3-1.1,4.6,4.6,0,0,1,4.3,4.5,13.2,13.2,0,0,1-.6,5.3c-3,10-4.5,15.5-4.4,16.4s.9-.2,2.3-1.6l4.3-4.7a50.9,50.9,0,0,1,7.5-6.5,48,48,0,0,1,8.2-5.3h1.3a1.3,1.3,0,0,1,.8.2c.3-.1.6.1,1,.4l1,.4,2.7,2.5c1,.8,1.4,2.4,1.1,4.8l-1.9,8.7c6.2-6.4,10.3-10.2,12.5-11.6,4.1-2.6,7.4-2.5,9.9.6a4.3,4.3,0,0,1,1.9,2.8,10.9,10.9,0,0,0,.3,1.7l.4,4.5c1.2,7,1.9,10.6,2.2,11.1a10.1,10.1,0,0,0,3.6.7c2.1.1,3.3.6,3.5,1.6s-.2,1.9-1.4,3-5.3,2-8.9,1-5.7-4.9-6.2-11.8a44.4,44.4,0,0,0-.5-6.3c-.1-1.5-.5-2.3-1.1-2.2s-3.5,1.8-7.1,5.2a100.4,100.4,0,0,0-11.5,13.3l-.9,1.4a5.7,5.7,0,0,0-1,1.1,3.7,3.7,0,0,1-1,.7l-1.1.4c-.6.2-1.9-.4-4.1-1.8a2.9,2.9,0,0,1-.9-3l2.2-9.1c2.3-7.2,3.1-10.7,2.4-10.7a10,10,0,0,0-3.2,1.7,5.3,5.3,0,0,0-2.5,2.4c-.2,0-.8.5-1.7,1.6a11.1,11.1,0,0,1-2.2,2.2,36,36,0,0,1-4,5.3c-2.3,2.6-3.8,4.4-4.7,5.3a41.3,41.3,0,0,0-2.7,3.6l-2.6,4.2c-.6,1-1,1.6-1.2,1.6-2.8.2-4.7-.9-5.6-3.5s-1-3.2-.7-5.8.6-4.7.9-6.6.4-3.3.5-4.3.3-2.2.4-3.1a9.1,9.1,0,0,1,.3-1.6,9.9,9.9,0,0,1,.3-1.9l1.1-3.4C435.9,548.9,436.4,547,437.1,544.5Zm84.6.3a5.8,5.8,0,0,0,1.2,3,3.2,3.2,0,0,0,2.6.9c2.7-.2,4.9-1.8,6.6-4.6a17.3,17.3,0,0,0,2.7-8c.3-2.5-.1-4-1.2-4.6s-5.2.6-8.8,4.5a32.1,32.1,0,0,0-4.8,6.4l-1.5,2.9a8.3,8.3,0,0,1,2.1-.6C521.3,544.6,521.7,544.6,521.7,544.8Zm-5,6.7c-1.6,5.9-2.3,10.2-2.1,13s.8,4.7,1.7,5.9,2.4,1.6,4.4,1.4a16,16,0,0,0,5.2-1.2,29.1,29.1,0,0,0,5.4-4.1l4.3-3.2c.4,0,.7-.2,1-.7a3,3,0,0,1,2.9.1,2.8,2.8,0,0,1,1.8,2.3,10.4,10.4,0,0,1-2.1,3.7c-1.2,1.7-2.2,2.7-2.9,2.8l-2,1.3h.2a3.4,3.4,0,0,1-2.3,1.8h-1.1c-.2.8-1.4,1.6-3.4,2.5a17.1,17.1,0,0,1-5.5,1.6,12.5,12.5,0,0,1-10.2-3.5,15.9,15.9,0,0,1-4.5-10.9c-.4-6.7,1.1-14,4.6-21.8,4.7-11.2,10.5-17.1,17.5-17.8a14.9,14.9,0,0,1,5.9,1,9.3,9.3,0,0,1,6.2,5.9,16.1,16.1,0,0,1,.4,6.8c-1.5,6.8-4.8,11.8-9.7,15.3a10.1,10.1,0,0,1-5.2,1.8c-4.2.4-7.4-.7-9.5-3.2Zm58.8,5c4.6-8.4,6.1-16,4.5-22.6-.6-2.3-1.3-3.6-2-3.7-2.7-.8-5.4.5-8.3,4s-6,12.3-8.1,22.9c-.9,5-.1,8,2.5,9.1s5.8-1,9.5-6.5Zm-3.9-33.7a14.7,14.7,0,0,1,3.9-1.6,7.3,7.3,0,0,1,3.4,1.3,11,11,0,0,1,5.1,2.3,9.3,9.3,0,0,1,3.1,4.8c2.4,6.6,1.8,14.4-1.7,23.2a41,41,0,0,1-4,7.9,77,77,0,0,1-6.3,7.1,18.9,18.9,0,0,1-8.9,5.7,9,9,0,0,1-5.6-1.2c-4.3-2.8-6.4-5.7-6.5-8.8V562a6.5,6.5,0,0,0-.5-1.5c-.5-.4-.7-.8-.6-1.1l.4-.5c.7-.3.7-.8.1-1.5a11.8,11.8,0,0,1-.1-4.9,41.1,41.1,0,0,1,1.7-7.1c1.9-5.9,4.1-10.5,6.7-13.8A26.6,26.6,0,0,1,571.6,522.8Zm70.7,6.3c1.1-.1,1.7,1.1,1.9,3.7a25.7,25.7,0,0,1-.3,6c.2,1.4-.2,4.9-1,10.4s-1.3,11,.5,13a2.4,2.4,0,0,1,.1,2.2,2.5,2.5,0,0,1-2.2,1.3q-1.8.1-4.2-2.7a15,15,0,0,1-2.7-7.4c-.3-2.9.1-7.2,1.1-12.8s1.4-8.6,1.1-8.9-1.7.4-4,2a19,19,0,0,0-5,4.4,20.6,20.6,0,0,0-1.9,2c-1,1-2.7,2.8-5.3,5.2a126.1,126.1,0,0,0-9.8,10.9,2.4,2.4,0,0,1-3.4,1.5,5.2,5.2,0,0,1-3-1.4,5.3,5.3,0,0,1-1.5-3c-.3-3.2,1.8-11,6.1-23.3a11.6,11.6,0,0,0,.9-5.6c-.2-2.2.1-3.7.9-4.7s.9-1,1.8-.7a4.7,4.7,0,0,1,2.5,1.6c2.6,2.1,3.2,6,1.7,11.6l-1.6,4.8,6.5-4.5,3.1-2.9c2.3-2.2,3.8-3.3,4.3-3.4s1.3-.5,2.2-1.5l1.1-.8a3.2,3.2,0,0,0,1.9-1.1c.7-.7,2-.7,4.1,0s3.2,1.6,3.4,2.9Zm38.6,1.1a12.2,12.2,0,0,0,4.2-3.8c1.5-1.7,2.2-3.2,2.1-4.3a3.5,3.5,0,0,0-2.2-2.8,5.4,5.4,0,0,0-4.5-.1,13.6,13.6,0,0,0-4.9,3.5,29.5,29.5,0,0,0-4,5.3c-1,1.6-1.4,2.5-1.1,2.8s1.9.9,4.4.8A15.6,15.6,0,0,0,680.9,530.2Zm1.7,21.8.4-.3.3-.2.2-.3,2.1-2.4c.9-1,1.6-1.6,2-1.6a1.7,1.7,0,0,1,1.4.5,4.1,4.1,0,0,0,1.2.7c1.4-.1,1.3,1.1-.4,3.6a25.4,25.4,0,0,1-6.1,6.6,12,12,0,0,1-10,3.8,14.6,14.6,0,0,1-9.8-5c-3.1-3.3-4.6-8.8-4.6-16.5-.1-5.1,1.6-10.3,5-15.9s7.3-9.5,11.5-11.6a6.7,6.7,0,0,1,3.4-1.5,21.6,21.6,0,0,1,5.4-.1,9.1,9.1,0,0,1,6.3,2.6,10.9,10.9,0,0,1,4.1,7.5c-.2,2.2-1.3,4.7-3.5,7.7a28.1,28.1,0,0,1-8.1,7.6c-4.8,1.9-8.9,2-12.3.1-1.6-.4-2.7-.2-3.3.8s-.7,3.2-.8,6.8c-.2,6.2,1.6,9.5,5.3,9.8l1.7.2,1.4.2h1.2a6.8,6.8,0,0,0,3.2-1.3l1.6-1A11.1,11.1,0,0,1,682.6,552ZM749,523.6a4.6,4.6,0,0,0,1.2,3,3.2,3.2,0,0,0,2.6,1c2.7-.3,4.8-1.8,6.6-4.7a16.9,16.9,0,0,0,2.7-8c.3-2.4-.2-3.9-1.2-4.6s-5.2.6-8.8,4.5a39,39,0,0,0-4.8,6.4l-1.5,3a4.2,4.2,0,0,1,2.1-.6C748.6,523.4,749,523.4,749,523.6Zm-5,6.7c-1.7,5.9-2.3,10.3-2.1,13s.8,4.8,1.7,6,2.4,1.5,4.4,1.3a19.5,19.5,0,0,0,5.2-1.1,30.8,30.8,0,0,0,5.4-4.2l4.3-3.1c.4,0,.7-.3,1-.8a3,3,0,0,1,2.9.2,2.7,2.7,0,0,1,1.8,2.2c-.1.8-.8,2-2.1,3.7s-2.2,2.7-3,2.9l-1.9,1.2h.2a3.4,3.4,0,0,1-2.3,1.9h-1.1c-.3.7-1.4,1.5-3.4,2.4a14.9,14.9,0,0,1-5.5,1.6,12.3,12.3,0,0,1-10.2-3.5,16.3,16.3,0,0,1-4.6-10.9c-.3-6.6,1.2-13.9,4.6-21.8,4.8-11.2,10.6-17.1,17.6-17.7a13.1,13.1,0,0,1,5.9.9,9.6,9.6,0,0,1,6.2,5.9,18.5,18.5,0,0,1,.4,6.9c-1.5,6.7-4.8,11.8-9.7,15.2a10.1,10.1,0,0,1-5.2,1.9c-4.2.3-7.4-.7-9.5-3.2Zm43.6-33.1.6-2.1a7.8,7.8,0,0,1,.7-3.3,18.7,18.7,0,0,0,2-5,76,76,0,0,1,3.1-7.3,15.3,15.3,0,0,1,2.8-5.4h-.2a3.6,3.6,0,0,1,3.1-1.9c1.6-.1,2.5-.1,2.7.3s.6,1.3.7,3.2a5.7,5.7,0,0,1-.8,4.1h.1a30.1,30.1,0,0,1-1.8,4.9c-.4.6-1.8,4.2-4.3,10.9q-5.8,15.5-5.7,17.1l-1.3,3.6-1.9,10.9a67.5,67.5,0,0,0-1.7,6.6c-1.1,4.1-1.6,9.7-1.4,16.8v.5c-.1,1.9-.4,3.2-1,3.9a2.8,2.8,0,0,1-2.8.7c-2.3-.5-3.6-2.5-4-5.9.9-13.2,2.2-23.3,4-30.1.5-1.8.9-3.3,1.2-4.7C783.9,505.8,785.8,499.9,787.6,497.2Zm33.9,42.5L819,539c0-.8-1.4-1.7-4.1-2.6-5.3-3.6-7.8-5.7-7.4-6.3v-.7q-1.1.1-2.4-2.4a14.3,14.3,0,0,1-1.6-4.8,20.2,20.2,0,0,1,1.4-6.9,27.1,27.1,0,0,1,4.7-7.9,71.9,71.9,0,0,1,8.6-7.8q11.5-9.2,17.1-6.6a13.5,13.5,0,0,1,6.3,6.2c.5,5.6-.1,8.5-1.7,8.6s-.6.5-.5,1.2-.6,1.7-1.8,3c-3.7,3.2-5.9,3.6-6.6,1.3s-1-1.3-1.4-1.3-.8-.7-.9-1.6l.6-1.6q.9,0,2.4-3.3c1.1-2.3,1.6-3.7,1.5-4.3a1.5,1.5,0,0,0-.3-1.1c-.1-.1-.5-.1-1.3,0-6.6,3.8-10.8,6.5-12.3,8.3l-.6,1.3c0,.1-.3.1-.6.2s-1.4,1-3.9,5.3l-2.4,4.5a4.3,4.3,0,0,0-.8,2.7c.1,1.2.1,1.9.1,2.1v.6a1.4,1.4,0,0,1,.2.6c.1,0,.2.2.4.5l.8.4,1,.6,1.3.8c8.7,5.4,13.4,9,14.1,11s2.5,4.7,2.1,6.1a7.6,7.6,0,0,1-3.5,3.7,25.9,25.9,0,0,1-8.1,2.5,30.7,30.7,0,0,1-8.4.7,17.7,17.7,0,0,1-4.9-2.2,15.5,15.5,0,0,1-3.4-2.9q-.2-1.9.6-2.1c.7-.2,3.4-.2,8.4-.3a35.7,35.7,0,0,0,6.6-1.2c2.5-.8,3.8-1.5,4-2.2S822.3,540.4,821.5,539.7Zm52-37.1q-2.2-2.1-6,1.2a11.7,11.7,0,0,0-3.7,3.3,44.6,44.6,0,0,0-4,5.5c-1.1,1.7-1.4,2.7-.9,2.9s0,.4.3.4l1.2.2a3.8,3.8,0,0,1,1.5,0h1.2l2.7-.7,2.6-.8,1.8-1.2c1-.7,2.4-2.7,4.2-5.8S874.5,503.4,873.5,502.6Zm-28.8,9.9,2.2-.4c1.3-.2,1.9.1,2,.6s1.7.7,2.8-1.2a26.8,26.8,0,0,0,1.2-2.4,29,29,0,0,1,4.9-6.7,41.2,41.2,0,0,1,5.7-5.3,15.5,15.5,0,0,1,7.5-2.2c2.4,0,4.9,1.2,7.5,3.5a7,7,0,0,1,2.9,5.2,11.3,11.3,0,0,1-.6,6.4c-.2,1.4-1.5,3.2-3.8,5.5a23.5,23.5,0,0,1-6.3,4.9,40.8,40.8,0,0,1-7,1.6,14.6,14.6,0,0,1-5.7,0c-.7-.3-1.1.3-1.3,1.9a44.4,44.4,0,0,0-.4,6.2c.1,2.6.3,4.2.7,4.8a4,4,0,0,0,1.2,1.1c3.4,3,6.8,2.8,10-.4a33.5,33.5,0,0,0,3.1-3.8l2.7-3.1c.6-1.3,2.1-1.7,4.5-1.3a2.6,2.6,0,0,1,1.4,2.1,6.7,6.7,0,0,1-.8,3.2,14.2,14.2,0,0,1-3.2,4.8,30.3,30.3,0,0,1-4.2,4,16.3,16.3,0,0,1-14.1,2.4c-3.6-1.1-6.1-2.8-7.4-5.2a21.7,21.7,0,0,1-1.7-9.9,44.5,44.5,0,0,0-.2-7.5,3,3,0,0,0-1.1-2.1l-1.5-1.2q-1.7-1.3-1.8-2.1a7.2,7.2,0,0,1-.1-2.1C844,513,844.3,512.6,844.7,512.5Z" style="fill:#806d73;opacity:0.8500000238418579;isolation:isolate"/><path d="M287.9,242.3,274.8,122H620l5,117.2Z" style="fill:#fff;opacity:0.5699999928474426;isolation:isolate"/></svg>