<svg id="Layer_1" data-name="Layer 1" xmlns="http://www.w3.org/2000/svg" xmlns:xlink="http://www.w3.org/1999/xlink" viewBox="0 0 1024 1024"><defs><linearGradient id="linear-gradient" x1="151.67" y1="1236.23" x2="371.81" y2="165.12" gradientTransform="matrix(1, 0, 0, -1, 206, 1142)" gradientUnits="userSpaceOnUse"><stop offset="0.01" stop-color="#f3e2e4"/><stop offset="0.01" stop-color="#f1e7ee"/><stop offset="0.94" stop-color="#f6f0f7"/></linearGradient></defs><title>Loved her silently and now it hurts</title><path d="M990.1,770.6,60.7,862.2,14.4,170.9l878.3-63.1Z" style="fill:url(#linear-gradient)"/><path d="M290.1,199.2l-15-116.6H627.2l17.1,87.6Z" style="fill:#fff;opacity:0.5699999928474426;isolation:isolate"/><path d="M145.6,425.1v.4c-.2,0-.3.3-.4.9a2.9,2.9,0,0,1-.2,1.2c-.6.6-.7,1.8-.5,3.6a42.9,42.9,0,0,0-1.4,8.5,32.6,32.6,0,0,0,.2,7.4c.6,2.6,3,4.5,7.3,5.7a11.2,11.2,0,0,0,4.2.7c1.9.2,5.5-.7,11-2.8a15.4,15.4,0,0,1,3-.9,21.3,21.3,0,0,0,3.7-1.4c3.2-1.2,5.1-1.7,5.6-1.4a2.5,2.5,0,0,1,1,2.8q-.3,1.1-3.6,3.3a35.1,35.1,0,0,1-6.5,3.6,27.5,27.5,0,0,1-8.8,3.1q-5.2,1.1-8.1.3a18.7,18.7,0,0,1-9.1-3.8,16.9,16.9,0,0,1-5.7-7.1,59.4,59.4,0,0,1-1.2-6.5,20.4,20.4,0,0,1-.1-4.9c.2-.2.2-.6.1-1.2a13.1,13.1,0,0,1,.5-3.7,8.2,8.2,0,0,0,.1-4.4,8,8,0,0,1,1.1-2.1,2,2,0,0,0,.3-2.1,4.1,4.1,0,0,1,.7-3l.9-1.9a46.1,46.1,0,0,1,1.3-5.5c.9-3.2,1.5-5.1,1.8-5.8v-.3a25.7,25.7,0,0,1,1.1-2.7c.2-3.2,2.2-8.8,6-16.6,5.5-11.4,9.3-17.2,11.3-17.6a3.3,3.3,0,0,1,2.8.9,6.7,6.7,0,0,1,1.9,2.4c.8,1.9.8,2.9.1,3.2s-2.8,3.6-5.5,8.5a138,138,0,0,0-6.4,12.8L150.4,409a144.1,144.1,0,0,0-4.1,13.9A2.7,2.7,0,0,0,145.6,425.1Zm68.4-4.4a14.6,14.6,0,0,0,.1-5.2c-.3-2.3-.7-3.5-1.4-3.8-2.4-1.1-5-.2-7.8,2.6s-7,10.4-10.1,19.6c-1.3,4.2-.9,7,1.2,8.5s6.4-.7,11.4-7.3A45,45,0,0,0,214,420.7Zm-23.4,1.6c4.4-9.5,10.2-15.5,17.2-17.9a9.8,9.8,0,0,1,3.6-1c.8,0,1.8.6,3.1,1.7a9.3,9.3,0,0,1,4.2,2.4,9.8,9.8,0,0,1,2.2,4.8c1.3,6.3-.1,13.1-4.2,20.5a36.7,36.7,0,0,1-4.6,6.7,59.8,59.8,0,0,1-6,5.1,20.1,20.1,0,0,1-9,4.5c-1.4.1-3-.5-5-1.8-3.4-2.9-4.9-5.7-4.8-8.6v-2.8c-.4-.4-.6-.7-.5-.9l.5-.6c.5,0,.6-.4.4-1.1s-.1-2.3.5-4.6A22.3,22.3,0,0,1,190.6,422.3ZM230.9,405a3.5,3.5,0,0,1,2.8-.9c1.8.4,4,5.2,6.3,14.2a58.7,58.7,0,0,0,1.9,6.7c.7,1.6,1,2.5,1.1,2.7,1.1,2,2.1,2.5,2.9,1.5a83,83,0,0,0,5.9-9c2.5-4.3,4.2-7,4.9-8.2,2.8-4.6,4.6-7.1,5.6-7.5a4.3,4.3,0,0,1,2.8,0c1.2.7.8,2.8-1.2,6.1a29.3,29.3,0,0,0-1.3,2.9,28.5,28.5,0,0,1-1.2,3.1,71.4,71.4,0,0,1-3.7,6.8l-3.7,6-1.4,1.6a19.7,19.7,0,0,0-3.7,4.6c-1.8,2.1-3.2,3.4-4.3,3.9a3,3,0,0,1-3.2-.5q-1.3-.9-4.2-7.8c-1.8-4.6-3.1-8.4-4-11.4a50.9,50.9,0,0,0-3.1-8.8C229,408.2,229.3,406.2,230.9,405Zm52.2,6.7a4.2,4.2,0,0,0,1.1,2.7,2.6,2.6,0,0,0,2.3.9c2.4-.2,4.4-1.7,5.9-4.3a15.2,15.2,0,0,0,2.5-7.2c.2-2.2-.2-3.6-1.2-4.1s-4.6.6-7.9,4.1a34.1,34.1,0,0,0-4.3,5.8l-1.3,2.7,1.9-.6Zm-4.5,6.1c-1.4,5.4-2,9.3-1.7,11.8s.7,4.3,1.5,5.3,2.2,1.4,4,1.2a14.1,14.1,0,0,0,4.7-1.1,25.2,25.2,0,0,0,4.8-3.8l3.9-2.8c.3,0,.6-.3.9-.7a2.7,2.7,0,0,1,2.6.1,2.8,2.8,0,0,1,1.7,2,11,11,0,0,1-1.9,3.4c-1.1,1.6-2,2.5-2.7,2.6l-1.7,1.2h.1a2.9,2.9,0,0,1-2,1.7h-1c-.2.7-1.2,1.4-3,2.3a16.7,16.7,0,0,1-5,1.5,11.5,11.5,0,0,1-9.2-3.1,14.1,14.1,0,0,1-4.2-9.9c-.4-6,.9-12.5,4-19.7,4.1-10.1,9.4-15.5,15.7-16.1a11.8,11.8,0,0,1,5.3.8,9,9,0,0,1,5.7,5.3,16.9,16.9,0,0,1,.4,6.2q-2.1,9.2-8.7,13.8a9.1,9.1,0,0,1-4.7,1.7c-3.8.4-6.6-.5-8.6-2.8ZM336.8,403c0-.5-.8-.7-2.4-.7q-7-.3-13.5,9.3a35.7,35.7,0,0,0-4.3,8.5c-2.2,6-2.5,9.3-.8,9.8s5.7-2.9,10.4-8.1a73.4,73.4,0,0,0,6.8-10.6C335.6,406.4,336.9,403.7,336.8,403Zm5.5,16.5a65.9,65.9,0,0,0,.4,9.1c.5,4.2.3,6.2-.4,6.3a4.1,4.1,0,0,1-3.6-1.3,11.8,11.8,0,0,1-2.1-3,11,11,0,0,1-.6-4.2v-5.6h-.5a1.5,1.5,0,0,0-.8.5,3.6,3.6,0,0,0-.9.8l-1.2,1.2-1.5,1.5c-6.3,8.7-11.8,13-16.7,12.8s-6-3.5-6-10.3a36.8,36.8,0,0,1,4.3-16.4,31.2,31.2,0,0,1,5.2-7.6,27.2,27.2,0,0,1,7.4-5.5,16.4,16.4,0,0,1,10.8-1.8c2.1.8,3.4.5,3.7-.9a19.6,19.6,0,0,0,.9-3,30,30,0,0,1,1.1-3.7c1.5-6.5,2.8-11.6,4.1-15.4s2.2-6.9,2.8-9.1,2-4.3,2.8-4.9,2-.3,3.3.8a5.1,5.1,0,0,1,1.3,3.5,27.7,27.7,0,0,1-1.5,6.5c-1.6,3.3-3.9,10.1-6.9,20.3,0,.5-.3,1.9-.7,4.3a54.6,54.6,0,0,0-1,6.9c-.2,2.3-.5,3.5-1,3.5Q343,407.4,342.3,419.5Zm83.6-24.6a15.4,15.4,0,0,1,1.2,4.8c.1,1.3.3,4.8.5,10.4s-.5,6.7-.4,7.5a4.3,4.3,0,0,0,2,2.4c2.5,1.7,2.7,3.2.7,4.5a6.8,6.8,0,0,1-3.4.9,5,5,0,0,1-2.3-1l-1.7-1.8-1-1.2a10.2,10.2,0,0,1-1.4-2.9c-.1-.7-.3-1.5-.5-2.4a22.7,22.7,0,0,1-.2-4.9,33.7,33.7,0,0,0-.1-4c.5-4.1.5-6.7.1-8s-.8-2-1.1-1.9-3.7,1.9-7.4,6.2a182.1,182.1,0,0,0-12,15.4c-2.5,4.4-3.9,6.6-4.1,6.6a6.5,6.5,0,0,1-3.7-.8c-1.7-.8-2.6-1.6-2.7-2.5s2.2-11.9,6.9-32.6c.3-1.2,1-3.9,2.2-8.1s1.9-6.6,2-7.1.7-2.4,1.5-5.4c2-7.1,3.2-11.8,3.7-14.1a5.8,5.8,0,0,1,.5-3.5l1.7-.2q0-.3.9.3,3.1,2.1,3.3,3.3c.8,1.9.4,5.8-1.3,11.7a27.6,27.6,0,0,0-2.2,6.8c-.9,3.4-1.6,5.8-2.1,7.1s-1.6,4.6-3.5,10.5a126.7,126.7,0,0,0-3.6,14c-.6,2.2-.8,3.5-.4,4s1.3-.4,2.7-2.5c6.7-8.7,11.1-13.8,13.2-15.5s3.7-2.6,4.7-2.6a8.9,8.9,0,0,1,3.8,2.4A14.5,14.5,0,0,1,425.9,394.9Zm39.4-10.2c-1.4-1.3-3.2-.9-5.4,1.1a11.4,11.4,0,0,0-3.3,3,47.5,47.5,0,0,0-3.6,5c-.9,1.6-1.2,2.5-.8,2.7s0,.3.3.3l1.1.2a2.8,2.8,0,0,1,1.3,0l1.1-.2,2.4-.6,2.4-.7,1.6-1.1c.9-.7,2.1-2.5,3.7-5.3S466.2,385.4,465.3,384.7Zm-25.9,9.2,2-.5q1.7-.1,1.8.6c.6,1,1.5.6,2.5-1.1a9,9,0,0,0,1-2.2,29.6,29.6,0,0,1,4.4-6.1,49.1,49.1,0,0,1,5.1-4.8,14.6,14.6,0,0,1,6.8-2c2.1,0,4.4,1,6.8,3.1a6.1,6.1,0,0,1,2.7,4.6,11,11,0,0,1-.5,5.8c-.2,1.3-1.4,2.9-3.5,5a19.7,19.7,0,0,1-5.6,4.5,36.6,36.6,0,0,1-6.3,1.5,14.2,14.2,0,0,1-5.2,0c-.5-.2-.9.3-1.1,1.7a40.4,40.4,0,0,0-.3,5.7c.1,2.3.3,3.8.7,4.3a5,5,0,0,0,1.1,1c3.1,2.6,6.1,2.5,9-.4l2.8-3.5,2.4-2.8c.5-1.2,1.9-1.6,4-1.3s1.3,1.3,1.3,2a6.2,6.2,0,0,1-.7,2.8,13.2,13.2,0,0,1-2.8,4.4c-1.4,1.5-2.7,2.7-3.8,3.7a15.3,15.3,0,0,1-12.7,2.2c-3.3-.9-5.5-2.5-6.7-4.7s-1.7-5.2-1.7-8.8a37.9,37.9,0,0,0-.2-6.9,2.9,2.9,0,0,0-1-1.8l-1.4-1.1c-.9-.8-1.5-1.4-1.6-1.9a3.7,3.7,0,0,1-.1-1.8C438.8,394.3,439,393.9,439.4,393.9Zm49.9,23.3c-.7,1.2-1.4,1.8-2,1.9s-1.7-.5-3.1-1.7a4.8,4.8,0,0,1-1.8-1.6c-.6-1.1-.3-6.2.9-15.4,0-2,1-6.4,2.9-13.1s3.6-11.3,5-13.8,3-1.4,4.7,0,1.2,1.6.8,3.2a76.5,76.5,0,0,1-3,10.1c-1.5,4.4-2.1,6.7-1.8,6.6s.5-.2,1-.6,2.6-3.9,5.8-6.9,5.2-4.8,6-5.2a24.6,24.6,0,0,1,2.7-1.7l1.7-.9a10.6,10.6,0,0,1,5.5-1.5q3,0,3.9,1.8a2.4,2.4,0,0,0,1.7,1.8l.7.6c0,.8-1,1.3-3,1.7A20,20,0,0,0,511,385a10.1,10.1,0,0,1-1.9,1.4l-1.9,1.3-1.7,1.3-2,1.4-1.6,1.4-1.7,1.5-1.6,1.5a33.1,33.1,0,0,0-6.1,9.5c-.5.6-1,2.1-1.4,4.6a25.7,25.7,0,0,0-.4,4.4A11.4,11.4,0,0,1,489.3,417.2Zm97-51.9a8.4,8.4,0,0,1,1.6,4,12.6,12.6,0,0,1-1.5,5.5,22.9,22.9,0,0,1-.8,2.8,7.9,7.9,0,0,0-.5,1.5,1.9,1.9,0,0,1-2.7,1.2,5.5,5.5,0,0,1-2.8-3,6.6,6.6,0,0,1,0-5.5c1.4-1.7,1.3-2.4-.2-2.3s-2.8,1.1-5.3,2.9a29.5,29.5,0,0,0-6,5.2,11.9,11.9,0,0,0-2.4,3.7,6.3,6.3,0,0,0-.2,2.9,13.9,13.9,0,0,0,1.2,4.4,8.6,8.6,0,0,0,2,3.1,32.1,32.1,0,0,0,3.4,4.8c2.9,4.9,3.9,8.6,3,11s-3.7,3.9-8.5,4.7a15.7,15.7,0,0,1-8.4-.3,8.2,8.2,0,0,1-5.1-4.5c-1.1-1.8-1.2-3-.4-3.5a3.4,3.4,0,0,1,2,.5l2.1.8a7.9,7.9,0,0,0,7,.8c2.8-.8,4.2-2,4.4-3.6a23.3,23.3,0,0,0-1.6-4.1c-4.8-5.5-7.5-10.8-8-15.9-.4-3.5,1-6.6,4-9.4a33.7,33.7,0,0,1,14.2-10.7,13.8,13.8,0,0,1,6.7.6C584.4,363.1,585.3,363.9,586.3,365.3Zm9.2,33.4.2-2.6a14.9,14.9,0,0,1,.6-4.1,164.5,164.5,0,0,0,4.1-17.7c-.1-.9.5-1.5,1.8-1.7a2.4,2.4,0,0,1,2.1-.3,6.6,6.6,0,0,1,2.2,2.1q1.9,1.7.3,6.6a32.2,32.2,0,0,0-1.8,7.5,53.8,53.8,0,0,0-2,7.9,17.9,17.9,0,0,1-1.1,5q-.6,5.1-1.5,6c-.5.7-1.4.4-2.7-.7a7,7,0,0,1-2.4-4.1A7,7,0,0,1,595.5,398.7Zm10.6-54.9c1.7-1.4,3.6-.9,5.6,1.8a6.2,6.2,0,0,1,1,3.8,13.3,13.3,0,0,1-2.2,4.4c-1.9,3.1-4,3.8-6.4,2.2a4.8,4.8,0,0,1-1.9-2.9c-.2-1.2-.2-1.8,0-1.9a3.8,3.8,0,0,0,1.9-2.3,5.1,5.1,0,0,0,.9-3.4A1.5,1.5,0,0,1,606.1,343.8Zm19.1,12.5.6-1.9a8,8,0,0,1,.6-3,17.8,17.8,0,0,0,1.8-4.4,56.9,56.9,0,0,1,2.7-6.7,15,15,0,0,1,2.5-4.9h-.2a3.1,3.1,0,0,1,2.8-1.7c1.4-.2,2.3-.1,2.5.2a8.4,8.4,0,0,1,.6,2.9,5.3,5.3,0,0,1-.7,3.7h.1a36.6,36.6,0,0,1-1.6,4.5c-.4.5-1.6,3.8-3.8,9.9-3.4,9.3-5.1,14.4-5,15.4s-1.1,3.1-1.1,3.3l-1.7,9.8-1.5,6a58.3,58.3,0,0,0-1.1,15.1v.5a6.2,6.2,0,0,1-.9,3.5,2.3,2.3,0,0,1-2.5.7c-2-.5-3.3-2.2-3.7-5.3.8-11.9,1.9-21,3.5-27.2.4-1.6.7-3,1-4.3C622,364.2,623.7,358.8,625.2,356.3Zm25.2,18.1a4.7,4.7,0,0,0,1.1,2.7,2.9,2.9,0,0,0,2.3.8c2.4-.2,4.4-1.6,5.9-4.2a15.2,15.2,0,0,0,2.5-7.2c.2-2.3-.2-3.6-1.2-4.2s-4.6.6-7.9,4.1a38.6,38.6,0,0,0-4.3,5.8l-1.3,2.7a4.5,4.5,0,0,1,1.9-.5C650.1,374.2,650.4,374.2,650.4,374.4Zm-4.5,6.1c-1.4,5.3-2,9.2-1.7,11.7a10.9,10.9,0,0,0,1.5,5.4c.8,1,2.1,1.3,4,1.2a17.1,17.1,0,0,0,4.7-1.1,30.2,30.2,0,0,0,4.8-3.8l3.9-2.9c.3,0,.6-.2.9-.7a3,3,0,0,1,2.6.1,2.6,2.6,0,0,1,1.6,2.1,10,10,0,0,1-1.8,3.3c-1.2,1.6-2.1,2.5-2.7,2.6l-1.7,1.2h.1c-.6,1-1.3,1.6-2,1.6h-1c-.2.7-1.3,1.5-3,2.3a17.6,17.6,0,0,1-5,1.5,11.4,11.4,0,0,1-9.3-3.1,14.4,14.4,0,0,1-4.1-9.8c-.4-6,.9-12.6,3.9-19.7,4.2-10.2,9.5-15.5,15.8-16.2a13.4,13.4,0,0,1,5.3.8,9,9,0,0,1,5.7,5.3,16.7,16.7,0,0,1,.3,6.2c-1.3,6.1-4.2,10.7-8.6,13.8a8.6,8.6,0,0,1-4.7,1.7c-3.8.4-6.6-.5-8.6-2.8Zm60.5-16.2a14.2,14.2,0,0,1,3.9-1.8c.7,0,2,.6,3.7,1.9s3,2.3,3.4,3.3a10.4,10.4,0,0,0,.7,2.8,22.3,22.3,0,0,1,.9,5.8c.2,2.9.1,4.6-.5,4.9s.3.6.7.6v.6c-.9.1-.9.9,0,2.3a11.6,11.6,0,0,0,2.6,3,2.7,2.7,0,0,1,1.1,2.4c-.1.8-.8,1.4-2,1.9a6.9,6.9,0,0,1-7.1-3.8,25.9,25.9,0,0,1-1.6-5.7c-.4-2.2-.5-3.6-.3-4.1s.3-1.8,0-3.9-.7-3.4-1.5-3.6-1.6.1-2.8,1.1c-8.9,6.9-15.2,12.3-18.8,16a43,43,0,0,0-3.2,5.7,1.2,1.2,0,0,1-.9.8c-.7.4-1.9.1-3.6-1a29.5,29.5,0,0,1-3.1-3,29.2,29.2,0,0,1,.2-4.6c.4-2.3.7-3.9.9-4.6s.7-.6,1.1-1.7a18.2,18.2,0,0,1,.9-2.4,78.7,78.7,0,0,1,2.3-8.6,23.1,23.1,0,0,0,2.3-10,1,1,0,0,1,.2-.9,1.2,1.2,0,0,1,.8-.6c1.3-1.5,2.8-1.3,4.6.7a8,8,0,0,1,2.5,6c0,2.1-1,5.1-3,9.1a46.6,46.6,0,0,0-1.2,4.8l6.3-5.3a40.9,40.9,0,0,1,4.8-4.4C703.5,365.9,705.3,364.6,706.4,364.3Zm35.8,27.5a18.5,18.5,0,0,1-3.4-5,24.4,24.4,0,0,1-1.2-6.1,35.6,35.6,0,0,1,0-8c.8-7,1.4-11.6,1.9-13.7s-.3-1.5-1.4-1.6a10.2,10.2,0,0,0-3.5,0,9.3,9.3,0,0,1-2.5,0l-.5-.7a2.4,2.4,0,0,0-.6-1.1,1.4,1.4,0,0,1,.1-1.6,2.7,2.7,0,0,1,1.3-1.3l2.4-.6a20.3,20.3,0,0,0,2.8-.8,8.1,8.1,0,0,0,4.8-3.1c.8-2.8,1.8-5.9,3.1-9.4a41.4,41.4,0,0,1,2.7-6.4c1.3-.8,2.2-1.2,2.9-1.1s1.4.6,2.4,1.8a2.5,2.5,0,0,1,1.1,2.7c-.1.9-1.6,5.1-4.6,12.6a21.3,21.3,0,0,0,3.9-.4,21.6,21.6,0,0,1,6.6-1.1q5.3-.4,6,3.9c.3.9.2,1.4-.3,1.7s-3.6.7-9.4,1.5-8.7,1.3-8.7,1.6-1.7,4.7-2.9,12.1a57.1,57.1,0,0,0-.4,12.2c.3,3.7,1,6.1,2.2,7.4s2.2.6,4.2,0a12.8,12.8,0,0,0,5.4-3.3c1.6-1.7,3-2.1,4-1.4s1,2.1-.4,4.5a13.2,13.2,0,0,1-5.4,5.8,9.2,9.2,0,0,1-6.4,1.8A16.3,16.3,0,0,1,742.2,391.8Zm37.2-51.2.6-1.9a6.5,6.5,0,0,1,.6-3,17.8,17.8,0,0,0,1.8-4.4,56.9,56.9,0,0,1,2.7-6.7,12.1,12.1,0,0,1,2.5-4.8l-.2-.2a3.1,3.1,0,0,1,2.8-1.7c1.4-.2,2.2-.1,2.4.2s.5,1.2.7,2.9a5.2,5.2,0,0,1-.7,3.7h.1a30.9,30.9,0,0,1-1.6,4.5c-.4.5-1.6,3.8-3.8,9.9-3.4,9.3-5.1,14.4-5,15.4s-1.1,3.1-1.1,3.3l-1.7,9.8c-1,3.6-1.4,5.6-1.5,6a58.8,58.8,0,0,0-1.1,15.2v.4a6.9,6.9,0,0,1-.9,3.6,2.5,2.5,0,0,1-2.5.6c-2.1-.5-3.3-2.2-3.7-5.3.8-11.9,1.9-21,3.5-27.2l1-4.2C776.1,348.5,777.9,343.1,779.4,340.6Zm41.7,1.9c.7-.7,1.2-1,1.4-1s.9.1,1.9.5,2.4,2.9,2.4,4.3a29.2,29.2,0,0,1-2.2,7.4c-1,4.4-2,7.4-3,8.8-2.1,6.4-3.9,11.8-5.7,16.3s-2.8,8-3.6,10.6a176.7,176.7,0,0,1-9.2,17.2q-6,6.6-9.9,8.1a14.5,14.5,0,0,1-9.3.3q-5.4-1.2-6.3-4.2a2.5,2.5,0,0,1,.9-2.4c.7-.8,1.4-.9,2-.2,6.9,3.7,13.1.9,18.5-8.4,3.4-7.2,5.8-12.5,7.3-16-1.7-.3-3.4-1.6-5-3.8s-2.5-3.8-2.4-4.9v-1.3c-.9.1-1.8-1.9-2.7-6.1a75.7,75.7,0,0,1-1.4-9.6q.1-3.5-.3-11.4c-.2-1.8.1-3.1,1-3.8,2.8-1.5,4.6-.2,5.5,3.9a58.3,58.3,0,0,1,1,9.2c.4,12.7,2.6,20.2,6.5,22.5,1.2-4,2.1-6.7,2.6-8a20.2,20.2,0,0,0,1-2.8,5.3,5.3,0,0,1,.4-1.6c.3-.7.9-2.4,1.9-5.1a100.7,100.7,0,0,1,2.9-10.7,21.6,21.6,0,0,0,.8-2.3,7.7,7.7,0,0,0,.6-1.5l.5-1.1.5-1.2.5-.8A2.8,2.8,0,0,1,821.1,342.5ZM167.6,551.8c-.4-.8-.9-1.3-1.4-1.3-2.8-.2-6.8,4.5-12.2,14.2-3.8,6.8-5.5,11.5-5.3,14.1l.7,1.1c.9-.1,3.1-1.6,6.4-4.4s5.5-5.1,6.3-6.4l3.2-4a17.2,17.2,0,0,0,3-7.3C168.8,555.2,168.5,553.2,167.6,551.8Zm-7.2-5.9a12.3,12.3,0,0,1,3.1-1.6,10.1,10.1,0,0,1,3.4,1,9.8,9.8,0,0,1,2.7.8c2.3,1.3,4.1,4.6,5.5,9.7,1.1,2.7,1.2,4.4.5,5.3s-.5.9-.6.9.1.2.3.4a3.5,3.5,0,0,1-.5,1.7c-1,4.5-1,7.9-.1,10.3a4.1,4.1,0,0,0,3.7,2.8q2.5.1,5.1-2.7c2.3-2,3.5-2.7,3.5-2s.9.6,1.2.5a1,1,0,0,1,.9.4c.4.7.2,1.7-.4,3.1s-1.6,2.2-1.6,2.6l-1.6,1.9a10.9,10.9,0,0,1-5.5,1.9,9.3,9.3,0,0,1-5.2-.7,18,18,0,0,1-3.6-3.3,14.8,14.8,0,0,1-2.5-3.9l-.7-1.1-3.3,2.6c-.6.8-1.5,1.8-2.6,3a30.6,30.6,0,0,0-2.2,2.4,1.5,1.5,0,0,1-1.1.7l-1.3.2c.1.5-.6,1.2-2.2,2.1a10.1,10.1,0,0,1-4,1.4c-1.4.5-3,.2-4.8-.8a7.7,7.7,0,0,1-3.5-3.7c-.8-2.6-.3-6.5,1.4-11.8a68.1,68.1,0,0,1,7.2-14.9C154.7,550.4,157.6,547.4,160.4,545.9Zm71.2,1.8c.9-.1,1.5,1.1,1.7,3.4a21.4,21.4,0,0,1-.2,5.4,61.1,61.1,0,0,1-.9,9.4c-1.3,6.1-1.1,10,.6,11.8a1.8,1.8,0,0,1,.1,1.9,2.2,2.2,0,0,1-2,1.2c-1,.1-2.3-.7-3.8-2.4a12.9,12.9,0,0,1-2.5-6.6c-.3-2.7,0-6.5.9-11.6s1.2-7.8.9-8-1.5.3-3.6,1.8a18.5,18.5,0,0,0-4.5,4l-1.6,1.8-4.8,4.7c-2.2,2.2-5.1,5.5-8.8,10a2.1,2.1,0,0,1-3,1.4,5,5,0,0,1-2.7-1.4,4.5,4.5,0,0,1-1.4-2.6c-.3-2.9,1.5-9.9,5.3-21.1a9.5,9.5,0,0,0,.7-5.1c-.1-1.9.1-3.3.8-4.2s.8-.9,1.7-.7a4,4,0,0,1,2.2,1.5c2.4,1.9,3,5.4,1.7,10.5l-1.4,4.3,5.8-4.2,2.8-2.6c2.1-2,3.3-3,3.8-3a4.3,4.3,0,0,0,2-1.4l1-.8a2.6,2.6,0,0,0,1.7-1c.6-.6,1.8-.6,3.7,0s2.9,1.4,3.1,2.6Zm56.2-49.2a5.1,5.1,0,0,1,1.9.8,3.8,3.8,0,0,1,1.8,2c.3,2.7-.9,8.1-3.5,16.4s-4,13.5-4.5,15.7-1,4.1-1.5,5.7-.8,2.7-1.1,3.6-.4,2.1-.6,3.4a35.2,35.2,0,0,1-1.4,5.9c-.7,2.6-1.2,4.8-1.6,6.4s-.6,2.5-.8,3.1-.3,1.4-.5,2.5-.4,1.7-.5,2.1-.1,1-.2,1.9a11.6,11.6,0,0,0-.1,1.7,8.1,8.1,0,0,1,.1,1.7,11.3,11.3,0,0,0,.3,1.8c.1.5.2,1.3.3,2.2a2,2,0,0,1-.7,2,3.5,3.5,0,0,1-1.9.5,11.1,11.1,0,0,1-2.8-1.5c-.9-1.2-1.5-3.4-1.9-6.7a116.3,116.3,0,0,1,1.6-12.2,94.8,94.8,0,0,1,2.4-11.6c.3-2,.2-3.2-.1-3.5s-1.3-.7-2.9-.7a11.2,11.2,0,0,0-8.1,3.6c-2.3,2.4-4.7,6.3-7.4,11.5s-3.2,9.1-2,11.9,3.6,1.1,7.4-1.4l4.4-2.6c.8-.1,1.3.4,1.4,1.5a2,2,0,0,0,1.5,1.8c.5.4-.1,1.4-1.8,2.8l-4.8,4a21.3,21.3,0,0,1-5.7,1.4,8.3,8.3,0,0,1-4.5-1.1c-4.8-2.3-6-8.3-3.8-18,1.6-5.2,4.8-10.8,9.4-16.7,1.2-1.4,3.7-2.9,7.6-4.6s6.9-1.8,9-.6,2.4,0,2.8-.4,1.9-5.6,4.5-15.4,4.2-15,4.4-15.5l.7-2.1c.2-.9.4-1.6.5-2a1.9,1.9,0,0,1,.4-1Zm64.9,36.6a12.8,12.8,0,0,1,3.8-1.8c.7-.1,2,.6,3.7,1.8s3,2.4,3.4,3.4a11.4,11.4,0,0,0,.7,2.8,22.3,22.3,0,0,1,.9,5.8c.3,2.9.1,4.5-.4,4.9a.5.5,0,0,0,.6.6v.6c-.9.1-.9.8,0,2.3a11.6,11.6,0,0,0,2.6,3,2.7,2.7,0,0,1,1.1,2.4c-.1.8-.7,1.4-2,1.9a6.9,6.9,0,0,1-7.1-3.8,29.5,29.5,0,0,1-1.6-5.7,19.3,19.3,0,0,1-.3-4.2q.4-.7,0-3.9c-.2-2.1-.7-3.3-1.4-3.5s-1.7.1-2.9,1c-8.9,7-15.1,12.3-18.7,16.1a34,34,0,0,0-3.2,5.7,1.1,1.1,0,0,1-.9.7c-.8.5-2,.2-3.7-1a24.3,24.3,0,0,1-3.1-2.9,22.7,22.7,0,0,1,.3-4.6,35,35,0,0,1,.8-4.6c.4,0,.7-.6,1.1-1.7a15.8,15.8,0,0,1,1-2.4,63.4,63.4,0,0,1,2.3-8.7,22.4,22.4,0,0,0,2.2-10,.8.8,0,0,1,.2-.8.9.9,0,0,1,.8-.6c1.3-1.5,2.8-1.3,4.6.6s2.7,4,2.6,6.1-1.1,5.1-3,9.1-1.3,4.5-1.2,4.8l6.3-5.3a24.7,24.7,0,0,1,4.8-4.4C349.7,536.7,351.6,535.4,352.7,535.1Zm51.8,1a14.9,14.9,0,0,0,0-5.2c-.2-2.3-.6-3.5-1.3-3.8-2.4-1.1-5-.2-7.8,2.6s-7.1,10.4-10.1,19.6c-1.3,4.2-.9,7,1.2,8.5s6.4-.7,11.4-7.3A45,45,0,0,0,404.5,536.1ZM381,537.7c4.5-9.5,10.3-15.5,17.3-17.9a10,10,0,0,1,3.5-1c.9,0,1.9.6,3.1,1.7a8.5,8.5,0,0,1,4.3,2.5,9,9,0,0,1,2.2,4.7c1.3,6.3-.1,13.1-4.2,20.5a42.5,42.5,0,0,1-4.6,6.7,59.8,59.8,0,0,1-6,5.1,20.1,20.1,0,0,1-9,4.5,8.3,8.3,0,0,1-5-1.8c-3.4-2.9-5-5.7-4.8-8.6v-2.8c-.5-.4-.6-.7-.5-.9l.5-.6c.4,0,.6-.4.3-1.1s0-2.3.5-4.6A30.3,30.3,0,0,1,381,537.7Zm47.5-18.8.3-3.7a3.1,3.1,0,0,1,1-2.4c1-.8,2.4-.5,4.2.7s2,2,2.1,2.7-.4,2.5-1.3,5.6a84.9,84.9,0,0,0-4.1,18.4,1.3,1.3,0,0,0-.3,1.2,11.1,11.1,0,0,1-.2,2.3l-.3,3a2.2,2.2,0,0,0,1,2.1,1.9,1.9,0,0,0,2-.4,2.8,2.8,0,0,1,.8-.9,21.8,21.8,0,0,0,2.5-3.7,4.5,4.5,0,0,1,1.1-2.3c.6-.7.9-1.2.8-1.7s1-2.5,3.1-6.2,3.5-7.9,4.2-9.1a25.6,25.6,0,0,0,1.4-2.6l.4-1.1a2,2,0,0,1,.1-.5l.4-.7.3-.2.6-.2h.6c1.2-.1,2,0,2.2.3a2.7,2.7,0,0,1,.9,1.2,5.2,5.2,0,0,1,1.6,3.4l-.5,1.9c.2,1.4-.2,3.3-1.1,5.9a81,81,0,0,0-.7,13.2c.2,4.6.6,7.1,1.2,7.3s1.5-.4,2.6-2.2a53.9,53.9,0,0,0,3-5.2,35.5,35.5,0,0,1,2.5-4.1,24.7,24.7,0,0,0,3.2-5.7,20.5,20.5,0,0,1,1-3.7,15.4,15.4,0,0,0,1.1-3.7,3.8,3.8,0,0,1,.4-1.7,49.9,49.9,0,0,0,2.7-6.5c.3-2.3,1.3-3.8,3-4.4s2.6-.4,2.9,1a2.5,2.5,0,0,1,.1.9,63,63,0,0,1-3.4,14.8,101.2,101.2,0,0,1-6.6,16.2,11.3,11.3,0,0,0-1.5,2.1,4.8,4.8,0,0,0-.5,1.8,8.7,8.7,0,0,1-2,2.4,44.8,44.8,0,0,1-4,3.6,5.3,5.3,0,0,1-6.1,1.2A7.7,7.7,0,0,1,447,555a33.5,33.5,0,0,1-1.9-9.2l-.6-5.8c-1.1,1.7-2.2,3.7-3.5,6.2a58.6,58.6,0,0,1-4.5,8.7c-1.6,2.3-2.9,3.7-3.9,4.1s-2.3.4-4.4,0-3.2-1.2-3.6-1.9-.7-3.4-.9-7.5.1-7,.7-8.3v-1.2c0-.2-.1-.3-.3-.5C426.5,527.8,427.9,520.9,428.5,518.9Zm89.2-4.4a1.6,1.6,0,0,1,1.9-.6,4.5,4.5,0,0,1,2.5,1.4c.8.6,1.1,1.8,1.1,3.6a91.7,91.7,0,0,1-1.5,11.4c-1.1,5.8-1.4,10.1-.9,12.8s-.3,5.7-.5,5.8-2.6.2-3.9-1.4a14.7,14.7,0,0,1-2.3-4.8c0-3.1.1-5.3.1-6.6.3-3.1.9-7.2,1.8-12.5S517.5,515.2,517.7,514.5Zm2.5-22.4a8.8,8.8,0,0,1,1-3.5,3.1,3.1,0,0,1,2-1.8,7.8,7.8,0,0,1,3.7.5,3.9,3.9,0,0,1,1,1.6l1.3,2.3.7,1.4a8.4,8.4,0,0,1,.4,1.4,2,2,0,0,1,.1,1.5,6.9,6.9,0,0,1-.2,1.3,4.5,4.5,0,0,1-1.4,2.4,2.2,2.2,0,0,1-2.7.1,6.4,6.4,0,0,1-3.5-1.7,8.3,8.3,0,0,1-2.4-2.8ZM550,541.6l2-.3c1.1-.6.8,2.3-.9,8.6l-1.1,2.2c-.4.9-.6,1.5-.8,1.8a7.5,7.5,0,0,1-.7,1.2c-.3.7-.6,1-.8,1-2.7-.1-4.6-.9-5.8-2.4s-1.5-3.8-1.3-7.1c.2-.8.3-1.7.5-2.7s.4-3.7.8-4a.8.8,0,0,0-.1-1.1c-.1-1.1.3-3.5,1.4-7.4-.5-.6-.4-1.3.4-2.1s1-1.5.7-1.9-.2-1.2.2-2.3l1.6-4.1a20.1,20.1,0,0,0,1.1-3.1c-.1-.2.4-1.9,1.4-5.1l2.2-6q1.1-.6-.9-.6a50.2,50.2,0,0,0-6.9.3c-3.5.4-6,.2-7.6-.5s-1.7-3.1,1.4-3.6l15.7-2.9.2-2.1a28.7,28.7,0,0,0,2.7-8.6,17.3,17.3,0,0,0,1.8-6.4,53,53,0,0,0,2.3-5.3c.5-1.2.7-1.9.8-2s1.4-1.3,1.7-1.3a7.2,7.2,0,0,1,2.6,1c3.2,1.6,4.2,3.2,2.8,4.7a35.7,35.7,0,0,0-1.1,4,14.9,14.9,0,0,0-2.5,6.9c-1.3,3.7-2.2,5.6-2.6,5.6s.8,1.1,2,1a33.9,33.9,0,0,0,5.1-1l1.5-.5a4.5,4.5,0,0,1,2.3.1,7.1,7.1,0,0,1,1.4,2.9,2,2,0,0,1-.8,2.3l-2.5,1c-1.2.5-4.8,1.3-10.8,2.5-1.7,4.2-2.7,6.7-3,7.6a4.3,4.3,0,0,0-.4,1.4l-4,11.1c-.3.1-.4.3-.4.8s.5,1.6.1,1.9a13.7,13.7,0,0,0-1.5,2.1c.4.4.3,1.4-.3,2.9a17.9,17.9,0,0,1-1.1,6.3,26,26,0,0,0,.5,2.8C549.5,541.6,549.7,541.7,550,541.6Zm95-26.4v6.5l-.3,3.9,1.9-.2,2.7.3a2.9,2.9,0,0,0,2.1,1.2c1.3-.1,1.6.4.9,1.7a7,7,0,0,1-1.3,1.6c-3.6,2.9-6.8,3.2-9.6,1s-3.7-5.9-3-10.8a73.3,73.3,0,0,0-.3-7.8q-.3-2.6-1.5-2.4c-1.8.2-5.4,2.7-10.8,7.6s-9.2,9.4-11.6,14.1-3.9,5.1-5.2,5.4a4.7,4.7,0,0,1-3.5-.7c-1-.8-1.6-1.4-1.7-1.9a15.1,15.1,0,0,1,.2-3.4,221.5,221.5,0,0,1,4.6-25c.6-3.6,1.5-7.4,2.5-11.2s2.1-7.5,2.9-10.5,1.5-6,2.1-8.7,1.3-4.8,1.6-6.1.9-3.4,1.2-5a1.7,1.7,0,0,1,1.8-2.1c1.6-.2,2.9.9,3.8,3a8.6,8.6,0,0,1,.1,7.2c-.8,2.6-2.3,7.9-4.3,16s-3.4,13.5-4.4,16.2c.1,1-.5,3.2-1.8,6.8,0,.3-.3,2.2-1,5.6a52.7,52.7,0,0,0-1.1,7.4,30.1,30.1,0,0,1,5.4-7.6c4.1-4.3,6.6-6.8,7.6-7.6l3.5-3c-.1-.4.2-.6.9-.7s.9-.3.8-.8.9-1.1,2.7-1.7a16.9,16.9,0,0,1,4.5-1.2,5.3,5.3,0,0,1,2.7.3,14.1,14.1,0,0,1,2.5,2.5C645.2,507.7,646,511.1,645,515.2Zm24.5-20.9c.9-1.3,1.6-2.1,2.1-2.2a6.2,6.2,0,0,1,3.5.5q3,2.7.6,7.5a37,37,0,0,0-4.8,17.6,17.1,17.1,0,0,0-.6,5.7c.2.9,1.1,1.5,2.5,1.7s5.1-1.4,8.1-5.2a34,34,0,0,0,7.3-17.4c.5-4.4,1.4-7.2,2.7-8.2s2.5-1.2,3.5-.4,1.3.6,1.5,1.1a12.8,12.8,0,0,1,.4,3.4,18,18,0,0,1-.5,5.2,36.9,36.9,0,0,1-1.8,5.3q-1.1,2.7-2.1,5.7a35,35,0,0,1-4.2,8.1q-3.3,4.9-6.3,6.6a11.9,11.9,0,0,1-5.8,2.8,14.7,14.7,0,0,1-6.1-.7,19.8,19.8,0,0,1-4.1-4.1,25.2,25.2,0,0,1-2.3-6.4c-.6-2.9-.2-7.5,1.3-13.7S667.6,496.7,669.5,494.3Zm57.2-2.6c3.6-3.1,6.3-4.8,8.3-4.9a4.1,4.1,0,0,1,4.4,1.8c1.8,2.5,1.9,4.8.5,6.9a6.7,6.7,0,0,1-2.6,2.4,5.2,5.2,0,0,1-2.3.9c-.5.1-1.1-.2-1.9-.9a3.4,3.4,0,0,1-1.4-1.7c-.1-.4-1.1.5-3.2,2.6s-3.4,3.4-4.1,4.2c-1.6,2.4-4.3,8.6-8,18.4a22.2,22.2,0,0,0-1.1,3.6c-.6,2.6-1.2,4-1.6,4.2a4.7,4.7,0,0,1-2.4,0c-4.2-.8-4.7-4.2-1.5-10.1a76.1,76.1,0,0,0,2.4-9c1.1-4.9,1.8-7.7,2-8.3a5.2,5.2,0,0,0-.6-2.9,2.4,2.4,0,0,0-2-.9,5.5,5.5,0,0,1-1.7.1c-.7,0-1.1-.8-1.3-2.4a5.5,5.5,0,0,1,2.4-4.2c2.8-1.8,5.1-2.1,6.9-.8s1.9,3.2,2.4,7.8C724.1,494.5,726.3,492.3,726.7,491.7Zm37,28.2,2-.4q1.6-.9-.9,8.7c-.4.7-.7,1.4-1.2,2.2s-.5,1.4-.7,1.8l-.7,1.1c-.3.7-.6,1.1-.8,1.1-2.7-.1-4.6-1-5.8-2.5s-1.5-3.8-1.3-7a18.8,18.8,0,0,0,.4-2.8c.2-2.3.5-3.6.9-4a.8.8,0,0,0-.2-1.1c-.1-1,.4-3.5,1.5-7.3-.6-.6-.4-1.3.4-2.1s1-1.6.7-1.9-.2-1.2.2-2.4,1-2.5,1.5-4a20.9,20.9,0,0,0,1.2-3.1c-.1-.2.4-1.9,1.4-5.1l2.2-6c.6-.4.3-.6-.9-.7a41.2,41.2,0,0,0-6.9.4c-3.5.3-6,.2-7.6-.6s-1.7-3.1,1.4-3.5l15.7-3,.2-2.1c1.6-3.7,2.5-6.5,2.6-8.6a13.9,13.9,0,0,0,1.8-6.4,40,40,0,0,0,2.4-5.2c.5-1.3.7-2,.8-2.1s1.4-1.2,1.7-1.2a6.4,6.4,0,0,1,2.6.9c3.2,1.7,4.1,3.2,2.8,4.8a19.6,19.6,0,0,0-1.1,4,14.2,14.2,0,0,0-2.5,6.8c-1.3,3.7-2.2,5.6-2.6,5.7s.7,1.1,2,1,4.3-.8,5.1-1l1.5-.5a3.3,3.3,0,0,1,2.2.1,5.2,5.2,0,0,1,1.4,2.9,1.9,1.9,0,0,1-.7,2.3l-2.5,1q-1.8.6-10.8,2.4l-3,7.6a6.3,6.3,0,0,0-.4,1.4l-4,11.2c-.3,0-.4.3-.4.8s.5,1.5.1,1.9a8,8,0,0,0-1.5,2.1c.4.4.3,1.3-.3,2.9a21.5,21.5,0,0,1-1.1,6.3c.2,1.4.4,2.3.5,2.7S763.4,520,763.7,519.9Zm43.1-6-2.3-.6c0-.8-1.3-1.5-3.7-2.3-4.8-3.2-7.1-5.1-6.7-5.7v-.6c-.5,0-1.3-.7-2.2-2.1a13.9,13.9,0,0,1-1.4-4.4,17.7,17.7,0,0,1,1.2-6.2,25.7,25.7,0,0,1,4.2-7.2,56.6,56.6,0,0,1,7.7-7.1c6.9-5.6,12-7.6,15.4-6.1a12.6,12.6,0,0,1,5.7,5.5c.5,5.1,0,7.7-1.4,7.9s-.6.4-.5,1a4.4,4.4,0,0,1-1.6,2.7c-3.3,3-5.3,3.4-6,1.3s-.9-1.2-1.2-1.1a1.7,1.7,0,0,1-.9-1.5l.6-1.4c.5-.1,1.2-1.1,2.1-3.1a11.2,11.2,0,0,0,1.4-3.9c-.1-.6-.2-.9-.4-.9s-.4-.1-1.1,0c-6,3.4-9.7,6-11.1,7.6a6.1,6.1,0,0,1-.5,1.1c0,.1-.2.2-.5.2s-1.2,1-3.5,4.9l-2.1,4a3.3,3.3,0,0,0-.7,2.5,4.8,4.8,0,0,1,0,1.8c0,.2.1.4.1.6l.2.5.4.4.6.5a2.1,2.1,0,0,1,.9.5l1.2.7c7.9,4.7,12.2,8,12.8,9.8s2.3,4.2,1.9,5.4-1.3,2.4-3,3.4a20.2,20.2,0,0,1-7.4,2.3,25,25,0,0,1-7.5.8,15.8,15.8,0,0,1-4.4-2,10.9,10.9,0,0,1-3.1-2.6c-.1-1.1.1-1.8.5-1.9l7.6-.3a45.2,45.2,0,0,0,6-1.2c2.2-.7,3.4-1.4,3.5-1.9S807.5,514.5,806.8,513.9Zm24.5-8.6a14.1,14.1,0,0,1,3-1.8,8.2,8.2,0,0,1,3.4.5q3.8,2,3.6,4.8c0,1.9-1.5,3.7-4.3,5.4s-5,1.5-7.2.2S827.1,508.8,831.3,505.3Z" style="fill:#806d73;opacity:0.8500000238418579;isolation:isolate"/></svg>