<svg id="Layer_1" data-name="Layer 1" xmlns="http://www.w3.org/2000/svg" xmlns:xlink="http://www.w3.org/1999/xlink" viewBox="0 0 1024 1024"><defs><linearGradient id="linear-gradient" x1="274.05" y1="1071.32" x2="316.38" y2="121.75" gradientTransform="matrix(1, 0, 0, -1, 206, 1142)" gradientUnits="userSpaceOnUse"><stop offset="0.01" stop-color="#f3e2e4"/><stop offset="0.01" stop-color="#faf5e3"/><stop offset="0.85" stop-color="#fbfbed"/></linearGradient></defs><title>i lied to protect your feelings</title><path d="M986.5,851.7,25,842,39.4,180.6l937.5,57.1Z" style="fill:url(#linear-gradient)"/><path d="M344.4,257.3l16-129.2,352.1,46.7L706,278.3Z" style="fill:#fff;opacity:0.5699999928474426;isolation:isolate"/><path d="M212.4,379.3c4.9-.4,8.2-.4,9.8-.1a4,4,0,0,1,3.5,2.1c1,3.7.1,5.4-2.5,5.1a69.7,69.7,0,0,1-10.7.5c-6.2.4-9.5.9-9.9,1.6a5.7,5.7,0,0,0-1,1.1l-.8,1.1c.2.9-.3,2.9-1.4,5.9s-2.3,6.2-3.4,9.6c-3,8.5-4.8,13.3-5.5,14.5a21,21,0,0,0-1.2,4.2c-1.9,5.9-4,11.9-6.1,18s-3.5,10.5-4.4,13.4l9.7-.6a46.5,46.5,0,0,1,8.9-.2,2.8,2.8,0,0,1,2.6,1.9c2.1,3.1,1.7,4.9-1.5,5.6a38.7,38.7,0,0,1-7.3.2c-7.2.1-11.9.2-13.9.4s-2.9.7-3.1,1.5-1.3,1.5-3.7.4-5-2.3-11.8-2.2a8.7,8.7,0,0,1-5.1-.9c-1.6-.8-2.1-1.8-1.8-2.9s3.9-3.4,11-3.3h6.9l1.3-2.5a75.5,75.5,0,0,0,2.4-7.2l3.3-9.2c3.2-8.9,4.9-13.9,5.2-15a82.8,82.8,0,0,0,4.6-13.8c4.3-12.5,6.1-18.8,5.5-19.1a56.9,56.9,0,0,0-7.2.3c-3.9.3-6,.5-6.5.8s-1.2.7-2.2.3a2.7,2.7,0,0,1-1.9-1.8c-.2-1.5.1-2.6.9-3.2a29,29,0,0,1,6.2-2.2,57.3,57.3,0,0,1,9.9-1.8c3.3-.3,5.9-1.1,7.7-2.6a13.3,13.3,0,0,1,4.5-.6C204.5,379.3,207.5,379.5,212.4,379.3Zm39.9,40.4,1.4-4.9c1.5-2.7,4.1-8.6,7.8-18s5.5-14.7,5.6-15.9.7-1.8,2.1-1.8a3.3,3.3,0,0,1,2.1-.6l2.1,2.2a4.8,4.8,0,0,1,1.3,3.5,17,17,0,0,1-.2,3l-.3,1.3a8.7,8.7,0,0,1-.7,1.7l-1,2.1c-.2.6-.8,1.7-1.6,3.3l-2.1,4a37.6,37.6,0,0,1-1.6,3.7,20.4,20.4,0,0,0-1.5,2.9,4,4,0,0,0-.6,1.3,2.3,2.3,0,0,1-.3.9,9,9,0,0,1-.5,1.6c-.3.6-.7,1.3-1.1,2.3-3.7,7.6-5.5,11.8-5.6,12.7a2.4,2.4,0,0,1-.7,1.8c-.4,0-.6.3-.6,1v.4a35.9,35.9,0,0,1-2.3,6.9c-4.1,12.5-6.1,20-6.2,22.4a18.4,18.4,0,0,1-.3,4.4,1.9,1.9,0,0,1-1.1,1.4c-2.6.7-4.3-.4-5.2-3.2s-.6-6.6.6-11.5a17.1,17.1,0,0,0,1.5-5.4,82.6,82.6,0,0,1,2.9-8.9c1.7-4.3,2.7-6.9,3.2-7.7s1.3-.9,1.3-2.9S251.3,420.5,252.3,419.7Zm12.8,31.6.6-2.8c-.1-.5.3-1.9,1.1-4.2s3.9-9.6,6.7-18.3c.1-1,.8-1.6,2.2-1.6a2.6,2.6,0,0,1,2.3,0,7.2,7.2,0,0,1,2,2.5c1.3,1.4,1.1,3.7-.5,7.1a30.9,30.9,0,0,0-2.9,7.8,53.1,53.1,0,0,0-3.3,8.1,17.4,17.4,0,0,1-1.8,5.2c-.8,3.5-1.6,5.6-2.3,6.2s-1.6.2-2.9-1.1a8.6,8.6,0,0,1-2-4.8A7.2,7.2,0,0,1,265.1,451.3Zm18.6-57c2.1-1.4,4-.5,5.8,2.6a6.7,6.7,0,0,1,.6,4.2,15.2,15.2,0,0,1-3,4.3c-2.4,3.1-4.8,3.6-7.1,1.6a4.7,4.7,0,0,1-1.6-3.3c-.1-1.4,0-2,.2-2.1s1.5-.8,2.4-2.2a6.3,6.3,0,0,0,1.4-3.5A1.4,1.4,0,0,1,283.7,394.3Zm21.1,38a5.6,5.6,0,0,0,.8,3,2.9,2.9,0,0,0,2.4,1.2c2.6.1,4.9-1.2,6.8-3.7a17.4,17.4,0,0,0,3.6-7.4c.5-2.3.3-3.9-.6-4.6s-5.1,0-9,3.3a38.6,38.6,0,0,0-5.4,5.6l-1.7,2.7a7.6,7.6,0,0,1,2.1-.3C304.5,432,304.8,432.1,304.8,432.3Zm-5.6,5.8c-2.2,5.5-3.4,9.7-3.5,12.3a14.2,14.2,0,0,0,.9,5.9q1.2,1.8,4.2,1.8a15.1,15.1,0,0,0,5.1-.5,28.3,28.3,0,0,0,5.7-3.4l4.5-2.5a1.4,1.4,0,0,0,1-.6,3,3,0,0,1,2.8.5,2.7,2.7,0,0,1,1.5,2.3,10.6,10.6,0,0,1-2.4,3.4c-1.5,1.5-2.5,2.3-3.2,2.4l-2,1h.1a3.3,3.3,0,0,1-2.4,1.5h-1c-.4.7-1.6,1.3-3.6,2a18.6,18.6,0,0,1-5.5.9,11.9,11.9,0,0,1-9.4-4.6,15.8,15.8,0,0,1-3.2-11c.5-6.4,2.8-13.3,6.9-20.5,5.9-10.2,12.2-15.2,19-15.1a14.6,14.6,0,0,1,5.5,1.6,9.7,9.7,0,0,1,5.4,6.4,15.9,15.9,0,0,1-.5,6.7c-2.2,6.3-5.9,10.8-11,13.5a8.9,8.9,0,0,1-5.3,1.2c-4-.1-7-1.5-8.7-4.1Zm64.1-7.9c0-.6-.8-.9-2.5-1.1-5-.9-10.3,1.8-15.7,8.1a34.6,34.6,0,0,0-5.7,8.4c-3.2,6.1-4,9.6-2.2,10.4s6.5-2.3,12.2-7.2a77.9,77.9,0,0,0,8.7-10.4C361.5,433.7,363.2,430.9,363.3,430.2Zm3.6,18.3a64.4,64.4,0,0,0-.8,9.8c-.1,4.4-.5,6.7-1.3,6.6a4.1,4.1,0,0,1-3.6-1.9,9.8,9.8,0,0,1-1.9-3.4,11.6,11.6,0,0,1,0-4.6l.6-6h-.5c-.1-.1-.4,0-.9.4a5.2,5.2,0,0,0-1.1.7,6.3,6.3,0,0,1-1.4,1.2l-1.8,1.4c-7.8,8.4-14.4,12.2-19.6,11.4s-5.9-4.6-4.9-11.9a39.1,39.1,0,0,1,6.8-16.8,26.5,26.5,0,0,1,6.6-7.4,26.2,26.2,0,0,1,8.6-4.9,17.3,17.3,0,0,1,11.8-.5c2.1,1.2,3.5,1,4-.4s.7-1.5,1.4-3.1a17.7,17.7,0,0,1,1.7-3.8q3.6-10.1,6.3-15.9c1.9-4,3.3-7.1,4.3-9.3s2.7-4.4,3.7-4.9,2.1,0,3.3,1.3a5.5,5.5,0,0,1,1,3.9,41,41,0,0,1-2.5,6.8c-2.2,3.3-5.6,10.2-10.1,20.7a40.1,40.1,0,0,1-1.4,4.4c-.7,2.5-1.4,4.9-2,7.3s-1,3.6-1.5,3.6Q369.3,435.6,366.9,448.5Zm63.2,10.6h2.2c1.2-.5.5,2.5-2.2,9.1l-1.5,2.2a11.8,11.8,0,0,1-1.1,1.8,10.5,10.5,0,0,1-.8,1.1c-.4.7-.8,1.1-1.1,1.1-2.8-.5-4.8-1.7-5.8-3.4s-1-4.3-.4-7.8a25.5,25.5,0,0,0,.8-2.8c.5-2.4,1-3.8,1.4-4.2s.4-.8.1-1.1.8-3.7,2.5-7.7c-.5-.7-.3-1.4.7-2.2s1.3-1.5,1-1.9-.1-1.3.6-2.5l2.1-4.1a22.2,22.2,0,0,0,1.7-3.1c-.1-.3.6-2,2.2-5.3s2.7-5.3,3.2-6.1.4-.6-.9-.8a37.3,37.3,0,0,0-7.5-.5c-3.7-.1-6.4-.7-8-1.7s-1.4-3.5,2-3.6l17.2-1,.4-2.2c2.3-3.7,3.6-6.6,4-8.8a16.8,16.8,0,0,0,2.8-6.6,61.5,61.5,0,0,0,3.2-5.3l1.1-2a5.1,5.1,0,0,1,2-1.2,6.5,6.5,0,0,1,2.6,1.4c3.3,2.2,4,4,2.4,5.4a26.2,26.2,0,0,0-1.7,4.2,15.4,15.4,0,0,0-3.6,6.9c-1.9,3.8-3.1,5.7-3.5,5.7s.6,1.3,1.9,1.3l5.6-.3,1.7-.4a4.2,4.2,0,0,1,2.4.5,6.5,6.5,0,0,1,1.1,3.2,2.2,2.2,0,0,1-1.1,2.4l-2.8.7a115.7,115.7,0,0,1-11.9,1.1q-3.6,6.5-4.2,7.8a4.2,4.2,0,0,0-.6,1.4L434.5,441c-.3,0-.5.3-.5.8s.3,1.8-.2,2.1a18,18,0,0,0-1.9,2c.5.5.2,1.5-.7,3s-.7,3.7-2,6.6.1,2.6.2,3S429.7,459.2,430.1,459.1Zm51.2-6.3c5.4-7.7,7.7-14.7,6.9-21.3-.3-2.3-.8-3.6-1.5-3.8-2.5-1.1-5.3-.1-8.4,2.9s-7.2,11.2-10.4,21.2c-1.5,4.6-1,7.7,1.3,9s5.7-.4,9.9-5.2C479.8,454.7,480.6,453.8,481.3,452.8Zm.1-32.9a12.6,12.6,0,0,1,4-1.1c.7,0,1.7.5,3.1,1.6a10.6,10.6,0,0,1,4.6,2.7,11.1,11.1,0,0,1,2.5,5.1c1.5,6.6.1,14-4.3,22.1a40.5,40.5,0,0,1-4.8,7.2,82.3,82.3,0,0,1-6.8,6.1,19.1,19.1,0,0,1-9.2,4.4c-1.5.2-3.3-.4-5.3-1.8-3.8-3.1-5.6-6.2-5.3-9.1.1-.5.1-1,.2-1.5a4.9,4.9,0,0,0-.3-1.5c-.5-.5-.6-.8-.5-1.1s.4-.4.4-.5.8-.6.3-1.4,0-2.3.5-4.7a41.8,41.8,0,0,1,2.4-6.6,44.9,44.9,0,0,1,8-12.6A25.4,25.4,0,0,1,481.4,419.9Zm86.3,16.7c-1.2-1.7-3.4-2-6.7-1a21.4,21.4,0,0,0-13.1,11.6c-2.8,5.4-3.4,8.5-1.8,9.1s3.9-.6,7.9-1.8a28.5,28.5,0,0,0,9.1-4.4,15.5,15.5,0,0,0,4.7-6.1A8.4,8.4,0,0,0,567.7,436.6Zm-35.4,34.5,1-4.7c.5-2.3,2.3-7.8,5.5-16.5s5.9-15.8,8.1-21.1,2.9-7.7,3-10.3c0-.4.5-1.1,1.5-2.2s2.4-.8,4.1.5a4.2,4.2,0,0,1,1,1.5,3.9,3.9,0,0,1,.9,2,11.8,11.8,0,0,1,.1,3.6,15.9,15.9,0,0,1-2.4,6.4c7.2-2.8,12.6-3.1,16.3-.8s5.6,5.9,5.5,11.2a14.6,14.6,0,0,1-1.6,5.7,11.1,11.1,0,0,1-2.7,4.4c-.5,0-1.2.9-2.2,2.7a19,19,0,0,1-5.7,4.3c-2.6,1.4-4.5,1.9-5.5,1.6a.6.6,0,0,0-.7.7c0,.6-1.7,1.3-5,2.1a30,30,0,0,1-7.2,1,5.1,5.1,0,0,1-3.5-1.1,3.5,3.5,0,0,0-1,2.1,21.2,21.2,0,0,1-1.4,4.8c-.9,2.5-1.6,3.7-2.2,3.7s-.5.9,0,1.4a7.3,7.3,0,0,1-.9,4.1,14.4,14.4,0,0,1-1.4,6.2,15.9,15.9,0,0,1-.6,3c-.3,1-.6,1.5-1,1.5s-.9,1.4-1,3.7a9.5,9.5,0,0,1-1.3,5.2,3.2,3.2,0,0,1-2.8,1.7h-.6a.8.8,0,0,1-.7,0c-1.9-.5-2.3-3.1-1.2-7.7a37.7,37.7,0,0,0,1.6-7.6l.7-4.1a11.3,11.3,0,0,0,1.6-6.1A4.1,4.1,0,0,1,532.3,471.1Zm79.3-41.7c4.3-2.8,7.5-4.2,9.5-4.2a5,5,0,0,1,4.6,2.6c1.5,2.8,1.3,5.3-.5,7.5a9.1,9.1,0,0,1-5.7,2.8c-.5,0-1.1-.4-1.9-1.2a4.4,4.4,0,0,1-1.3-2c.1-.4-1.2.3-3.7,2.3a44.8,44.8,0,0,0-4.9,3.9c-2.1,2.4-5.7,8.6-11,18.5a35.2,35.2,0,0,0-1.7,3.8c-1,2.7-1.8,4.1-2.3,4.2a4,4,0,0,1-2.5-.3c-4.4-1.5-4.5-5.1-.2-11,.6-1.2,1.8-4.3,3.7-9.3s2.9-7.9,3.2-8.5a5.2,5.2,0,0,0-.2-3.2,2.1,2.1,0,0,0-2-1.2,5.3,5.3,0,0,1-1.8-.2c-.7-.1-1.1-1-1-2.7s1.2-3,3.1-4.1,5.6-1.6,7.4,0,1.6,3.7,1.5,8.7C608.5,432.1,611.1,429.9,611.6,429.4Zm50.7,13.7a17.1,17.1,0,0,0,.8-5.6c0-2.5-.3-3.9-1-4.2-2.4-1.5-5.2-.9-8.6,1.7s-8.9,10.2-13.4,19.6c-2,4.3-1.9,7.3.1,9.1s7,.2,13.1-6.2A44.9,44.9,0,0,0,662.3,443.1Zm-25.2-1.5c6.1-9.6,13-15.1,20.8-16.8a10.9,10.9,0,0,1,3.9-.5c.9.1,1.9.8,3.1,2.1a10,10,0,0,1,4.3,3.3,10.5,10.5,0,0,1,1.6,5.4c.6,6.8-1.9,13.8-7.3,21.2a39.2,39.2,0,0,1-5.7,6.5,54.5,54.5,0,0,1-7.1,4.7,20.8,20.8,0,0,1-10.2,3.5c-1.5,0-3.2-.9-5.1-2.6-3.2-3.5-4.5-6.7-3.9-9.7l.3-3c-.4-.5-.5-.8-.4-1.1l.6-.5c.5,0,.7-.4.5-1.2s.3-2.4,1.2-4.8A30.7,30.7,0,0,1,637.1,441.6Zm56.2,23.9h2.2c1.2-.4.5,2.6-2.2,9.1a21.7,21.7,0,0,1-1.5,2.2,11.5,11.5,0,0,1-1,1.8,12.5,12.5,0,0,1-.9,1.2c-.4.7-.8,1-1,1-2.9-.5-4.8-1.6-5.8-3.4s-1.1-4.3-.5-7.7c.3-.8.6-1.8.9-2.9s.9-3.8,1.4-4.1a.9.9,0,0,0,0-1.2c0-1.1.9-3.7,2.5-7.6-.5-.8-.2-1.5.8-2.2s1.2-1.5.9-2,0-1.2.6-2.5,1.4-2.5,2.2-4.1a23.2,23.2,0,0,0,1.6-3.1c-.1-.2.7-2,2.2-5.3s2.7-5.3,3.2-6,.4-.6-.9-.8a43,43,0,0,0-7.4-.6c-3.8-.1-6.5-.7-8.1-1.6-2-2.4-1.3-3.6,2.1-3.7l17.1-1,.4-2.2c2.3-3.7,3.6-6.6,4-8.8a15.4,15.4,0,0,0,2.8-6.6c1.6-2.3,2.6-4,3.3-5.2a13.7,13.7,0,0,1,1.1-2.1c1-.8,1.6-1.1,2-1.1a5.7,5.7,0,0,1,2.5,1.3c3.3,2.2,4.1,4,2.4,5.5a29.9,29.9,0,0,0-1.7,4.1,15,15,0,0,0-3.5,7c-2,3.7-3.1,5.6-3.6,5.6s.6,1.3,2,1.4,4.7-.3,5.6-.4l1.7-.4a4.8,4.8,0,0,1,2.3.5,5.9,5.9,0,0,1,1.1,3.3,2,2,0,0,1-1.1,2.3l-2.7.7q-2.1.4-12,1.2l-4.2,7.7c-.4.8-.5,1.2-.6,1.4l-5.7,11.4c-.4,0-.5.2-.6.7s.3,1.8-.1,2.1a9.5,9.5,0,0,0-1.9,2.1c.4.4.2,1.4-.7,3a22.3,22.3,0,0,1-2,6.6,17,17,0,0,0,.2,3C692.7,465.4,692.9,465.6,693.3,465.5Zm43.3-22.7a4.3,4.3,0,0,0,.8,3,3.2,3.2,0,0,0,2.3,1.3c2.6,0,4.9-1.2,6.9-3.8a16.5,16.5,0,0,0,3.6-7.3c.5-2.4.3-3.9-.7-4.6s-5,0-8.9,3.3a38.6,38.6,0,0,0-5.4,5.6l-1.8,2.7a3.9,3.9,0,0,1,2.1-.3C736.2,442.6,736.6,442.6,736.6,442.8Zm-5.7,5.9c-2.2,5.5-3.3,9.6-3.4,12.3s.2,4.7.9,5.9,2.1,1.8,4.1,1.8a15.1,15.1,0,0,0,5.1-.5,23.7,23.7,0,0,0,5.7-3.4l4.5-2.5a1.5,1.5,0,0,0,1.1-.6,2.7,2.7,0,0,1,2.7.4c1.1.7,1.6,1.4,1.5,2.4s-1,1.8-2.4,3.3-2.5,2.4-3.2,2.4l-2,1h.2a3.1,3.1,0,0,1-2.4,1.6h-1.1c-.3.7-1.5,1.4-3.5,2a14.1,14.1,0,0,1-5.5.9,12.4,12.4,0,0,1-9.5-4.5,15.8,15.8,0,0,1-3.1-11c.4-6.5,2.7-13.3,6.9-20.5,5.8-10.2,12.1-15.3,18.9-15.1a13.3,13.3,0,0,1,5.6,1.6,9.3,9.3,0,0,1,5.3,6.4,15.7,15.7,0,0,1-.4,6.6c-2.2,6.3-5.9,10.9-11,13.6a10.9,10.9,0,0,1-5.3,1.2c-4.1-.1-7-1.5-8.8-4.2Zm68.8-8.7a9.9,9.9,0,0,1-1.9,4.3c-.8,1.2-1.6,1.8-2.5,1.8s-1.3.2-1.3.7-.6.9-1.6.2a3.5,3.5,0,0,1-1.7-1.8,9.1,9.1,0,0,1,.1-1.7c.2-.5.4-1.3.8-2.2,2.4-6.8,1.4-9.4-2.8-7.8-7.3,3.9-12.9,12.6-16.7,26a12.6,12.6,0,0,0-.8,5.6c.2,1.2.4,1.9.6,2a15,15,0,0,0,5,.3,17.2,17.2,0,0,0,5.9-1.6,64.2,64.2,0,0,0,5.6-3.4l4-2.9a8.3,8.3,0,0,1,2.1-1.6c.8-1.2,1.5-1.8,2-1.9a16,16,0,0,1,2.2,0c2.1.7,3.1,1.5,3.2,2.3s-.2.3-.5.5l-.7.6c.3.7-1.2,2.6-4.7,5.6s-5.7,4.6-6.6,4.6-1.5.2-1.5.7-1.4,1.2-4.1,2.4a27.5,27.5,0,0,1-6.5,2.2c-3.9.6-7.2-.1-9.8-2.2s-3.8-5.2-3.7-9.2.7-8.6,2.8-14.2a53.8,53.8,0,0,1,9.1-15.1c4-4.5,6.9-7.1,9-7.8a13.8,13.8,0,0,1,6.4-1.2,13.2,13.2,0,0,1,4.5,2.1c1.6,1,2.3,1.9,2.3,2.9l.6.7c.8,0,1.4,1.2,1.8,3.5S800.5,438.7,799.7,440Zm20.1,33.4a15.4,15.4,0,0,1-3-5.8,26,26,0,0,1-.5-6.6,37.4,37.4,0,0,1,1.1-8.5q2.6-11.1,3.9-14.4c.3-1-.2-1.6-1.3-1.9a13.5,13.5,0,0,0-3.8-.5,6.4,6.4,0,0,1-2.6-.3l-.5-.8a1.8,1.8,0,0,0-.5-1.3,1.8,1.8,0,0,1,.3-1.7,2.9,2.9,0,0,1,1.6-1.1l2.7-.4,3.1-.4c2.6-.5,4.5-1.4,5.6-2.7q1.8-4.3,4.5-9.6a39.8,39.8,0,0,1,3.7-6.4q2.3-1.2,3.3-.9c.7.1,1.4.9,2.3,2.3a2.7,2.7,0,0,1,.8,3c-.2,1-2.4,5.2-6.6,12.8a18.6,18.6,0,0,0,4.2.1,25.5,25.5,0,0,1,7.2-.2c3.7.1,5.7,1.7,5.9,5,.1.9-.1,1.5-.6,1.7s-3.9.3-10.2.4-9.4.2-9.5.5-2.5,4.7-4.8,12.4a76.5,76.5,0,0,0-2,13c-.2,4,.3,6.7,1.4,8.2s2.2,1,4.4.6a13.4,13.4,0,0,0,6.2-2.8c2-1.6,3.5-1.9,4.5-1s.7,2.4-1.1,4.8a15.9,15.9,0,0,1-6.5,5.5c-2.6,1.2-5,1.6-7.1,1A17.3,17.3,0,0,1,819.8,473.4ZM272.1,550.7a3.6,3.6,0,0,1,1.6-.8,4.4,4.4,0,0,1,2,.8c1.5,1.8,2.1,3.4,1.9,4.9s-1.3,4-3.3,7.6-3.1,7.5-4.4,8.9c-3,6.5-5.8,12.1-8.2,16.7s-4.1,8.1-5.3,10.8a199.3,199.3,0,0,1-12.1,17.1c-4.9,4.1-8.8,6.5-11.7,7.3s-6.2.5-9.9-.9-5.8-3.2-6.1-5.4a2.5,2.5,0,0,1,1.2-2.5c.9-.7,1.6-.7,2.2.1,6.9,4.9,13.8,2.7,20.8-6.4,4.6-7.2,7.9-12.6,9.9-16.1-1.7-.6-3.3-2.1-4.8-4.7s-2.1-4.4-1.8-5.5v-1.5c-1,0-1.6-2.3-2.1-6.8a74.9,74.9,0,0,1-.1-10.5c.3-2.4.7-6.5,1.2-12.2q0-2.9,1.5-3.9c3.2-1.2,5,.4,5.4,5a69.6,69.6,0,0,1-.2,9.9c-1.2,13.6.1,21.8,3.9,24.8,1.9-4.1,3.2-6.8,3.9-8.2a16.8,16.8,0,0,0,1.4-2.8,4.7,4.7,0,0,1,.7-1.7q.4-1.1,2.7-5.1a113.6,113.6,0,0,1,4.4-11l1.3-2.3c.3-.7.6-1.2.8-1.6l.7-1.2a7.2,7.2,0,0,1,.7-1.1c.1-.3.4-.5.6-.8A4.7,4.7,0,0,1,272.1,550.7Zm39.7,18.6a14.4,14.4,0,0,0,.7-5.6q.2-3.6-.9-4.2-3.6-2.1-8.7,1.8c-4.4,3.6-8.9,10.1-13.4,19.5-1.9,4.3-1.8,7.4.2,9.2s6.9.1,13.1-6.3A46.2,46.2,0,0,0,311.8,569.3Zm-25.2-1.5c6.1-9.5,13-15.1,20.8-16.7a11.4,11.4,0,0,1,3.9-.6c.9.1,1.9.9,3.1,2.2a9.7,9.7,0,0,1,4.2,3.2,11.1,11.1,0,0,1,1.7,5.4c.5,6.8-1.9,13.9-7.3,21.3a39.1,39.1,0,0,1-5.8,6.5,53.2,53.2,0,0,1-7,4.6,21.7,21.7,0,0,1-10.3,3.6c-1.5-.1-3.1-.9-5-2.6-3.2-3.5-4.6-6.8-4-9.8l.4-3c-.4-.4-.6-.8-.4-1l.5-.5q.9,0,.6-1.2t1.2-4.8A29.4,29.4,0,0,1,286.6,567.8Zm45.9-.2a49.1,49.1,0,0,1,5-10q2.7-4.4,4.5-4.2c1.3,0,2.5,1.5,3.7,4.4.6,1.1.3,2.1-.8,3.1a39.8,39.8,0,0,0-4.7,8.9,93.3,93.3,0,0,0-4.5,11.8c-1.1,3.5-1.3,5.3-.7,5.3,2.6.1,5.7-1.6,9.4-5s5.7-6.5,9.5-12.4,6-9.4,6.4-10.3a51,51,0,0,1,2.8-4.7,5.7,5.7,0,0,1,2.3-1.5h1.8a4,4,0,0,1,1.8,1.2,2.1,2.1,0,0,1,1.3,2.1c-.3.6-1,1.9-2,4-6.1,13.1-9.5,21.4-10.2,24.8-1,5.2-.2,9.1,2.6,11.7,1,.7.9,1.6-.4,2.5a5.1,5.1,0,0,1-2.7,1.2c-1.5.7-3.2-.4-5.3-3.2a13.9,13.9,0,0,1-1.4-7.4q.3-4.9-.3-5.1t-5.4,4.5c-4.9,4.5-8.6,6.7-11.2,6.5-.9,0-2-.7-3.1-2.1a15.5,15.5,0,0,1-2.3-5c-.6-2-.5-5.1.3-9.2A76,76,0,0,1,332.5,567.6Zm70-8.4c4.2-2.9,7.4-4.3,9.5-4.3a4.9,4.9,0,0,1,4.5,2.6c1.5,2.9,1.3,5.3-.5,7.5a8.1,8.1,0,0,1-3,2.1,7.7,7.7,0,0,1-2.6.7c-.6,0-1.2-.4-2-1.2a4,4,0,0,1-1.2-2c0-.4-1.3.3-3.7,2.3a49.4,49.4,0,0,0-5,3.9c-2,2.4-5.7,8.6-11,18.5-.5,1.1-1.1,2.3-1.7,3.8s-1.8,4.1-2.3,4.2a4,4,0,0,1-2.5-.3c-4.4-1.5-4.4-5.1-.2-11,.6-1.2,1.9-4.3,3.7-9.3s3-7.9,3.3-8.5a5.6,5.6,0,0,0-.2-3.1,2.4,2.4,0,0,0-2.1-1.3h-1.8c-.7-.2-1-1.1-1-2.8s1.3-3,3.1-4.1,5.7-1.6,7.5,0,1.6,3.7,1.4,8.7Zm55.4,55a31.3,31.3,0,0,0,1.2-6.9,172.2,172.2,0,0,1,5.1-33.2,17.8,17.8,0,0,0,.2-5.5,2.1,2.1,0,0,0-2-1.2c-4-.4-6.2-1.5-6.7-3.2s-1-2.7,2.2-3.3a33,33,0,0,1,5.1-.3c2.2,0,3.7-.3,4.3-.9a11.2,11.2,0,0,0,2.1-4.3l3.1-8.6a3.5,3.5,0,0,0,1.2-3c.1-1.4,2.6-5.7,7.4-12.8a58.5,58.5,0,0,1,8.6-9,15.7,15.7,0,0,1,8.1-3.6c.3-.2,1.6-.2,4-.1s3.8.4,4.5.9a7.9,7.9,0,0,1,2,3.1,7,7,0,0,1,.6,5,11.6,11.6,0,0,1-1.8,4.2,36,36,0,0,1-3.4,3.7c-1.4,1.3-2.4,1.9-2.8,1.9a4.3,4.3,0,0,1-1.5-.5l-1.2-.8c-.1-.1-.2-.2-.2-.3V535a.7.7,0,0,1,.1-.5l.3-.6a3.3,3.3,0,0,1,.7-1.1l.9-1.3c1.7-2.5,2.3-4.7,1.9-6.5-2.9-.6-6.4,1.3-10.6,5.6a20.3,20.3,0,0,0-3.9,4.5l-2.1,3.5a98,98,0,0,0-5.7,11.1c-1.5,3.3-2.5,5.5-3.1,6.6a35.7,35.7,0,0,0-1.7,3.6q-.2.5.6.6a19.3,19.3,0,0,0,3.5,0c8.2-.8,12.6-.1,13.3,2.3s1,3.2-.9,3.9-3,.6-6.3,1-5.5.6-6.7.6H474c-.8,0-1.4,1-2,3a27.8,27.8,0,0,1-.5,3.5c-.3,1.7-.5,2.9-.6,3.8a19,19,0,0,0-.9,3.2,15.1,15.1,0,0,1-.8,3c-.4,3.2-.9,7.4-1.2,12.7a108.7,108.7,0,0,1-1.4,11.5,14,14,0,0,1-2.1,6c-1.6,1.7-2.8,2.2-3.7,1.5a7.7,7.7,0,0,1-1.9-1.1C458.2,614.9,457.9,614.5,457.9,614.2Zm63.1-51c-1.2-1.5-3.2-1.3-5.8.5a12.6,12.6,0,0,0-4,2.8,40.8,40.8,0,0,0-4.5,4.9q-1.8,2.3-1.2,2.7c-.1.1,0,.3.2.4l1.2.3h2.6l2.6-.4,2.7-.4,1.8-1c1.1-.6,2.6-2.3,4.7-5.1S521.9,564.1,521,563.2Zm-28.8,6.4,2.2-.2c1.2,0,1.8.3,1.8.8s1.5.9,2.9-.9a12.8,12.8,0,0,0,1.3-2.1,29.4,29.4,0,0,1,5.5-5.9,35.1,35.1,0,0,1,6.2-4.4,13.7,13.7,0,0,1,7.4-1.3q3.4.3,6.9,4.2a7,7,0,0,1,2.2,5.3,10.8,10.8,0,0,1-1.4,6.1c-.3,1.3-1.8,2.9-4.3,4.9a22.8,22.8,0,0,1-6.6,4,39.8,39.8,0,0,1-6.9.7,13.8,13.8,0,0,1-5.5-.6c-.6-.4-1.1.2-1.5,1.6s-.7,3.4-1,6-.2,4.1.1,4.7a4.4,4.4,0,0,0,1,1.2c3,3.2,6.2,3.5,9.7.8l3.5-3.3,2.9-2.7c.7-1.2,2.2-1.5,4.5-.8a2.9,2.9,0,0,1,1.1,2.2,7.4,7.4,0,0,1-1.1,3,15,15,0,0,1-3.7,4.2,47.2,47.2,0,0,1-4.5,3.5,16.6,16.6,0,0,1-13.9.7c-3.3-1.5-5.5-3.5-6.5-5.9s-1-5.8-.5-9.7.7-6.4.7-7.3a2.9,2.9,0,0,0-.9-2.1l-1.3-1.4a5.3,5.3,0,0,1-1.5-2.2,7.1,7.1,0,0,1,.2-2C491.5,569.9,491.8,569.6,492.2,569.6Zm65.7,3.9a12.2,12.2,0,0,0,4.5-3.1c1.6-1.6,2.5-2.9,2.5-4a3.3,3.3,0,0,0-1.8-2.9,5.2,5.2,0,0,0-4.3-.7,12.7,12.7,0,0,0-5.1,2.9,32.2,32.2,0,0,0-4.5,4.6c-1.1,1.5-1.6,2.3-1.3,2.6s1.7,1.1,4.1,1.3A14.4,14.4,0,0,0,557.9,573.5Zm-.8,21.2.4-.3h.3q.3-.1.3-.3l2.2-2c1-.9,1.7-1.4,2.2-1.4a1.9,1.9,0,0,1,1.2.7l1.1.8c1.4,0,1.1,1.2-.8,3.4a26.1,26.1,0,0,1-6.6,5.7,11.6,11.6,0,0,1-10,2.5,14.1,14.1,0,0,1-8.9-6c-2.6-3.4-3.5-8.9-2.6-16.4q.8-7.2,6.6-14.7c4-5,8.1-8.3,12.4-9.9a7.4,7.4,0,0,1,3.5-1.1,38.6,38.6,0,0,1,5.2.6,9.1,9.1,0,0,1,5.8,3.2,10.5,10.5,0,0,1,3,7.7c-.4,2.1-1.8,4.4-4.2,7.1a28.5,28.5,0,0,1-8.6,6.3c-4.9,1.4-8.9.9-11.9-1.2q-2.2-1-3.3.3c-.5.9-1,3-1.6,6.5-.8,6,.6,9.3,4.1,10l1.6.4,1.3.3,1.1.2h1.3l2-.7a16.5,16.5,0,0,1,1.6-.9Zm30.7-31.9,1.4-5c1.5-2.6,4.1-8.6,7.8-17.9s5.6-14.7,5.6-16,.8-1.8,2.1-1.7a2.4,2.4,0,0,1,2.1-.6l2.1,2.1a4.5,4.5,0,0,1,1.3,3.6,19,19,0,0,1-.2,3l-.3,1.3a8.5,8.5,0,0,1-.7,1.6,22,22,0,0,1-.9,2.1l-1.7,3.4c-.8,1.5-1.5,2.8-2,4s-1,2.3-1.7,3.6l-1.5,2.9a3.5,3.5,0,0,0-.5,1.3,2.3,2.3,0,0,1-.3.9,11.6,11.6,0,0,1-.6,1.6c-.3.6-.6,1.4-1.1,2.3-3.7,7.6-5.5,11.8-5.5,12.7a2.5,2.5,0,0,1-.7,1.8c-.5,0-.7.3-.7,1v.4c0,.9-.8,3.2-2.3,6.9-4,12.5-6.1,20-6.1,22.4a24,24,0,0,1-.4,4.5,2.1,2.1,0,0,1-1.1,1.4q-3.7.9-5.1-3.3c-.8-2.8-.6-6.6.5-11.5a18.1,18.1,0,0,0,1.6-5.4,56.2,56.2,0,0,1,2.8-8.8c1.7-4.3,2.8-6.9,3.2-7.8s1.3-.9,1.4-2.8S586.8,563.5,587.8,562.8Zm21.7,3a1.9,1.9,0,0,1,2.2-.4,5.1,5.1,0,0,1,2.4,1.8c.8.8,1,2.2.7,4.1s-1.3,5.8-3.2,11.9-2.8,10.6-2.7,13.5-1,6-1.3,6.1-2.8-.1-3.9-2a16.2,16.2,0,0,1-1.8-5.4c.4-3.3.8-5.7,1-7.1.7-3.2,1.9-7.5,3.5-13.1S609.2,566.5,609.5,565.8Zm5.7-23.5a8.2,8.2,0,0,1,1.5-3.6c.9-1.2,1.7-1.7,2.4-1.7a11,11,0,0,1,3.9,1,4.7,4.7,0,0,1,.9,1.9c.4.9.7,1.8,1,2.6a11.6,11.6,0,0,1,.6,1.6c.1.3.1.9.2,1.6a1.9,1.9,0,0,1,0,1.5c-.1.5-.3.9-.4,1.5a5.3,5.3,0,0,1-1.9,2.3,2.4,2.4,0,0,1-2.9-.2c-.9-.1-2-.9-3.5-2.3s-2-2.7-2.1-3.4A17.8,17.8,0,0,1,615.2,542.3Zm54.6,29.4c1.1,0,1.5,1.3,1.4,3.8a21.8,21.8,0,0,1-1,5.7c0,1.4-.7,4.7-2.2,9.9s-2.4,10.5-.9,12.7a2,2,0,0,1-.2,2,2.2,2.2,0,0,1-2.3,1c-1.1,0-2.3-1-3.7-3.1a13.4,13.4,0,0,1-1.7-7.3c0-2.9.9-7,2.5-12.2s2.3-8.2,2-8.5-1.6.2-4.1,1.5a20.9,20.9,0,0,0-5.3,3.6l-2,1.7-5.7,4.4c-2.7,2.1-6.2,5.2-10.7,9.4-.8,1.5-1.9,1.9-3.4,1.1a5.9,5.9,0,0,1-2.7-1.7,4.7,4.7,0,0,1-1.1-3.1c.1-3.1,2.9-10.3,8.5-21.7a10.5,10.5,0,0,0,1.4-5.3c.1-2.1.5-3.6,1.4-4.4a1.3,1.3,0,0,1,1.9-.5,4.4,4.4,0,0,1,2.2,1.9c2.2,2.3,2.4,6.1.3,11.3l-2,4.4,6.7-3.6,3.3-2.4c2.5-1.8,4-2.8,4.5-2.7a3.9,3.9,0,0,0,2.3-1.3l1.2-.6a3.2,3.2,0,0,0,2-.9c.7-.6,2-.4,3.9.5s2.9,1.9,2.9,3.2Zm44.7-.2a5.4,5.4,0,0,0,.5-2.7c-.2-.7-.7-1-1.7-1.1-2.9-.7-7.2.6-12.6,3.8a12.7,12.7,0,0,1-4,3.3,2.1,2.1,0,0,1-1.1,1.3,14.8,14.8,0,0,0-3.9,5.7q-1.8,3.9-.9,4.8c4.4,1.7,9.5.4,15.5-4.1A20.6,20.6,0,0,0,714.5,571.5Zm6.8,9.9-2.5.5c-.7,0-1.3.8-1.6,2.3a19.7,19.7,0,0,1-1.1,3.8,6.7,6.7,0,0,0-.6,1.7,10.1,10.1,0,0,1-.8,1.6,7.4,7.4,0,0,0-.9,3.3,27,27,0,0,0-1.7,5,16.1,16.1,0,0,1-1.1,3.9,29,29,0,0,0-1.5,6.8c-3.5,13.6-7.2,21.6-10.9,23.9a11.9,11.9,0,0,1-8.3-.1,19.1,19.1,0,0,1-7.8-4.9,13,13,0,0,1-2.6-4.8c-.8-2.1-1-3.4-.5-3.8a4,4,0,0,1,2.4.1c1.2.4,1.7.8,1.7,1.2,2.5,2.3,4.4,3.5,5.7,3.8s4.9,1.1,6.4,0,4.7-6.5,6.4-13.1c2.5-10.1,4.2-16.4,5.1-18.8s.8-4.6.2-4.5a2.2,2.2,0,0,0-.9.8,29.9,29.9,0,0,0-4.5,2,28.5,28.5,0,0,1-4.6,1.7h-2.9c-.7.5-2,.4-3.8-.2a13.3,13.3,0,0,1-4.6-2.7,25.3,25.3,0,0,1-2.2-3.3q-.1-.9-.3-3.6a14.7,14.7,0,0,1,2.3-6.4,40.2,40.2,0,0,1,5.5-7.5,49.5,49.5,0,0,1,10.8-7.3c4.4-2.2,7.8-3.3,10.4-3.1s6.1,1.8,7.4,3.7a19.2,19.2,0,0,1,3.5,12.1C723.4,578.2,722.7,580.2,721.3,581.4ZM749,600l-2.3-1c0-.7-1.2-1.7-3.7-2.9-4.7-4.1-6.8-6.4-6.4-7v-.6c-.6,0-1.3-.9-2-2.6a10.7,10.7,0,0,1-.9-4.8c0-1.6.7-3.7,2.1-6.5a27.2,27.2,0,0,1,5.4-7,54,54,0,0,1,9.2-6.6c8.1-5,13.8-6.5,17.2-4.4a12.3,12.3,0,0,1,5.3,6.6c-.1,5.5-1,8.2-2.5,8.2s-.7.3-.7,1-.7,1.6-2,2.7c-3.9,2.7-6.1,2.9-6.6.5-.4-.9-.8-1.3-1.1-1.3a1.7,1.7,0,0,1-.8-1.7l.8-1.4q.9,0,2.7-3a13.7,13.7,0,0,0,2-4c0-.6-.1-.9-.3-1a2.2,2.2,0,0,0-1.2-.2c-6.8,2.9-11.1,5.1-12.8,6.6l-.7,1.2h-.6c0-.7-1.4.9-4.3,4.7l-2.9,4a4.5,4.5,0,0,0-1.1,2.6c0,1.1-.1,1.8-.1,1.9s-.1.4-.1.7.2.3.2.5.2.3.3.5l.7.6.9.7,1.1.9c7.8,6.1,11.9,10.2,12.4,12.2s1.8,4.7,1.3,6a6.7,6.7,0,0,1-3.7,3.2,25.5,25.5,0,0,1-8.2,1.5,28.8,28.8,0,0,1-8.1-.2A21.5,21.5,0,0,1,733,608a15.3,15.3,0,0,1-2.9-3.2c0-1.2.3-1.9.8-2s3.3.2,8.1.8a54.2,54.2,0,0,0,6.5-.5c2.5-.5,3.9-1,4.1-1.6S749.7,600.8,749,600Zm27.3-5.9a8.8,8.8,0,0,1,3.4-1.4,6.5,6.5,0,0,1,3.5,1c2.6,1.7,3.7,3.5,3.3,5.5s-2.1,3.8-5.4,5.3-5.5.8-7.6-.9S771.4,597.3,776.3,594.1Z" style="fill:#806d73;opacity:0.8500000238418579;isolation:isolate"/></svg>