<svg id="Layer_1" data-name="Layer 1" xmlns="http://www.w3.org/2000/svg" xmlns:xlink="http://www.w3.org/1999/xlink" viewBox="0 0 1024 1024"><defs><linearGradient id="linear-gradient" x1="311.59" y1="1179.76" x2="290.13" y2="318.46" gradientTransform="matrix(1, 0, 0, -1, 206, 1142)" gradientUnits="userSpaceOnUse"><stop offset="0.01" stop-color="#f3e2e4"/><stop offset="0.01" stop-color="#f6e4e7"/><stop offset="0.85" stop-color="#fdeded"/></linearGradient></defs><title>i miss who we used to be</title><path d="M986.4,810.9c-6.3,39.7-971.6,57.9-971.6,57.9V182l965.6,31.4C970.7,212.2,1018.8,604.7,986.4,810.9Z" style="fill:url(#linear-gradient)"/><path d="M366.3,235.6l19-113.6,338.2,39.6-4.9,99.8Z" style="fill:#fff;opacity:0.5699999928474426;isolation:isolate"/><path d="M239.6,403.2c5.2-.8,8.7-1,10.5-.8a4.4,4.4,0,0,1,3.8,2c1.3,3.9.5,5.8-2.3,5.6a76.8,76.8,0,0,1-11.4,1.3q-9.9,1.2-10.5,2.4l-1,1.3a2.7,2.7,0,0,1-.8,1.1c.3,1.1-.1,3.2-1.1,6.5s-1.9,6.8-2.9,10.5q-3.9,13.9-4.8,15.9a18.5,18.5,0,0,0-1.1,4.5c-1.6,6.5-3.3,13.1-5.2,19.7s-3,11.5-3.7,14.7l10.3-1.4c4.9-.7,8-1,9.4-.8a2.9,2.9,0,0,1,2.9,1.8c2.6,3.2,2.2,5.2-1.1,6.1a35.6,35.6,0,0,1-7.8.7c-7.8.6-12.7,1.1-14.8,1.5s-3.2.9-3.3,1.8-1.2,1.6-3.9.7-5.5-2.1-12.8-1.6a8.6,8.6,0,0,1-5.5-.6q-2.5-1.2-2.1-3c.1-2.4,3.9-3.8,11.5-4.2l7.4-.5,1.3-2.8c.6-2.2,1.3-4.8,2-7.8s1.8-6.4,2.8-10.1c2.8-9.8,4.3-15.3,4.5-16.4,1.3-3,2.6-8.1,4-15.1,3.8-13.6,5.3-20.5,4.5-20.8s-3.5.3-7.7.9-6.3,1-6.8,1.3-1.2.8-2.3.5a3.1,3.1,0,0,1-2.2-1.9c-.3-1.6-.1-2.7.7-3.4s3.1-1.6,6.5-2.8a57.5,57.5,0,0,1,10.5-2.6c3.5-.6,6.2-1.6,8-3.3a12.1,12.1,0,0,1,4.8-1C231.1,403.8,234.3,403.8,239.6,403.2Zm43.2,44.1a18.2,18.2,0,0,0,1.3-5.7,3.6,3.6,0,0,1,1.4-3.2,4,4,0,0,1,3.2-.9q3.9.6,4.2,4.8a11.9,11.9,0,0,1-.9,5.5q-5.5,15.3-5.4,16.8c.1.3.9-.2,2.4-1.6l4.7-4.6a60.5,60.5,0,0,1,8.2-6.4,49,49,0,0,1,8.7-5H312l.9.3a1.5,1.5,0,0,1,1,.5l1,.5,2.6,2.7c1.1.9,1.4,2.6.9,5L316,465c6.7-6.2,11.2-10,13.5-11.3,4.5-2.5,7.9-2.2,10.3,1.1a5.4,5.4,0,0,1,1.8,3c.1.9.2,1.5.2,1.8l.2,4.8c.8,7.2,1.4,11.1,1.7,11.5s1.6.7,3.7,1,3.3.8,3.6,1.8-.4,2-1.7,3-5.6,1.8-9.2.7-5.7-5.5-5.9-12.7a62.6,62.6,0,0,0-.1-6.5c-.1-1.6-.4-2.4-1.1-2.4s-3.7,1.8-7.6,5.1A102.8,102.8,0,0,0,312.8,479a14.9,14.9,0,0,1-1.1,1.5l-1.1,1a2.8,2.8,0,0,1-1.1.7l-1.1.3c-.6.3-2-.4-4.1-2a2.8,2.8,0,0,1-.8-3.2l2.8-9.4c2.7-7.3,3.7-10.9,3-10.9a13.6,13.6,0,0,0-3.4,1.6,5.9,5.9,0,0,0-2.7,2.3c-.3,0-.9.6-1.9,1.6a14,14,0,0,1-2.4,2.2,54.9,54.9,0,0,1-4.4,5.3l-5.1,5.2a33.8,33.8,0,0,0-3.1,3.6c-1.1,1.7-2.1,3.1-2.9,4.2s-1.1,1.6-1.3,1.6a5.2,5.2,0,0,1-5.7-4q-1-2-.3-6c.4-2.6.8-4.8,1.2-6.7a44,44,0,0,0,.8-4.5c.2-1.3.4-2.3.6-3.1s.3-1.5.3-1.7.3-1.1.5-2,.8-2.1,1.3-3.4Zm72.7,26.9.4-3a16.3,16.3,0,0,1,.9-4.6c1.6-3.8,3.5-10.5,5.9-20,0-1.1.7-1.8,2.2-1.9s1.9-.5,2.5-.1,1.4,1.1,2.4,2.5,1.4,3.9-.1,7.6a39.5,39.5,0,0,0-2.6,8.5,51,51,0,0,0-2.9,8.9,21.6,21.6,0,0,1-1.6,5.7c-.7,3.9-1.4,6.1-2.1,6.8s-1.6.4-3.1-1a8.1,8.1,0,0,1-2.4-4.9A7,7,0,0,1,355.5,474.2Zm15.9-62.3c2.1-1.5,4.2-.7,6.4,2.4a8.3,8.3,0,0,1,.9,4.5,18.9,18.9,0,0,1-2.9,4.9q-3.6,5.1-7.5,2.1a4.7,4.7,0,0,1-1.9-3.4c-.2-1.4-.2-2.2,0-2.3s1.6-.9,2.4-2.5a6.5,6.5,0,0,0,1.3-3.8A1.7,1.7,0,0,1,371.4,411.9Zm49.5,20.3a10.1,10.1,0,0,1,1.6,4.7c0,1.4-.7,3.5-2.2,6.2a22.4,22.4,0,0,1-1.1,3.1,8.5,8.5,0,0,0-.6,1.7,2.2,2.2,0,0,1-3.2,1.3,6.8,6.8,0,0,1-3.1-3.7c-.7-2.5-.6-4.6.5-6.3s1.6-2.7-.2-2.6-3.2,1-6.3,2.9a32.2,32.2,0,0,0-7.2,5.6,15.2,15.2,0,0,0-3,4,8.1,8.1,0,0,0-.4,3.4,17.6,17.6,0,0,0,1,5.1,10.5,10.5,0,0,0,2.1,3.7,31.3,31.3,0,0,0,3.6,5.8c3,5.8,3.8,10.1,2.6,12.7s-4.4,4.3-10,4.9a17.3,17.3,0,0,1-9.7-1,9.6,9.6,0,0,1-5.5-5.5c-1.1-2.1-1.2-3.4-.2-4a4.2,4.2,0,0,1,2.3.7,12.1,12.1,0,0,0,2.3,1c2.1,1.7,4.8,2.2,8,1.5s5-2,5.3-3.8a23.2,23.2,0,0,0-1.6-4.9c-5.1-6.7-7.8-12.9-8-18.8-.2-4,1.6-7.5,5.3-10.4a37.5,37.5,0,0,1,17-11.4,18.2,18.2,0,0,1,7.6,1.1A6.2,6.2,0,0,1,420.9,432.2Zm40.2-3.7a16.5,16.5,0,0,0,3.3.9,6.7,6.7,0,0,1,4.7,3,7.7,7.7,0,0,1,2.1,5.4,9.7,9.7,0,0,1-1.5,4.8,4.6,4.6,0,0,1-3,2.4c.6,0,0-.4-1.7-1.2l-.4.3a2.7,2.7,0,0,0-.6-1.4,7,7,0,0,1-.3-3.2c.1-1.6.1-2.5-.1-2.7a5.5,5.5,0,0,0-2-.4c-1.2-.2-3.1.2-5.5,1.2a25.5,25.5,0,0,0-7.2,3.9c-4.7,3.4-7.7,6.9-9.2,10.5-1,1.6-1.6,2.8-1.5,3.5s3,3.9,8.9,6.2,9.4,4.8,10.5,7.4a2.2,2.2,0,0,1,0,2.4l.3.3c1.1,1.6.7,3.4-1.2,5.2a15.9,15.9,0,0,1-7.7,3.8,22.8,22.8,0,0,1-6.8,1.3c-4.6.2-8.1-1.4-10.4-4.6-1.3-1.6-1.6-2.9-1-4s1.6-1.3,2.7,0a11.3,11.3,0,0,0,5.7.9,22.6,22.6,0,0,0,7.5-1.7c2.9-1.5,3.7-2.5,2.4-3.2a33,33,0,0,1-11-4.9c-3.6-2.5-5.7-4.9-6.1-7-1.8-5.6-.2-11.3,4.6-17.1,2.7-1.9,4.5-3,5.3-3.2v.2c2.3-2.7,7.1-5.4,14.4-8.2Zm88.2,12.8a48.9,48.9,0,0,0-2.7,9.5,45.9,45.9,0,0,0-1.1,8.6,8.6,8.6,0,0,0,.6,3.3,1.8,1.8,0,0,0,.9,1,6.3,6.3,0,0,0,1.4,0c4.4-.1,9.5-5.2,15.5-15.2,2.5-4.3,3.7-6.7,3.7-7.4a5.2,5.2,0,0,1,1.2-2.6,8.7,8.7,0,0,1,3.1-3.2c1-.6,2.3-.2,3.8,1.1s.9,2.1,1,4.5a58.7,58.7,0,0,1-2.1,6.6,19,19,0,0,1-2.5,5.2,18.2,18.2,0,0,0-4.2,5.3,58.9,58.9,0,0,1-5.4,6.3l-2,1.9a20.1,20.1,0,0,1-9.1,6c-3.2.8-5.8.6-7.7-.9s-4.5-3.8-4.7-7.3l-.8-2.9c-1.4,0-2.6,1.1-3.6,3.1a22,22,0,0,1-6.1,6.5c-3.1,2.5-5.4,3.7-7.1,3.8s-4-1.7-5.5-5.2a27.7,27.7,0,0,1-2.1-12.4,44.5,44.5,0,0,1,.5-9c.5-2.9.8-4.5.9-4.9q1-10.2,3-12.3a3.2,3.2,0,0,1,2.9-1.3c2.8.1,4.1,2.6,4.1,7.4-.1,3-.5,5.1-1.3,6.2a46.3,46.3,0,0,0-.8,7.2c-.3,4.2-.6,6.9-.7,7.9-.3,3.1.3,4.7,1.9,4.8s4.9-2.8,8.6-8.6a63.7,63.7,0,0,0,7.7-15.6q2.1-6.9,3-7.5c1.4-1,3.2-.8,5.3.5S551.3,436.9,549.3,441.3Zm87.2,19.5-.7,2.1v.7c0,.5-1.2,2-3.6,4.4-5.6,5.6-10.3,7-14.1,4.1s-3.7-5.3-3.9-9.9a53.1,53.1,0,0,1,2.5-16.9c.3-1.2.5-1.8.5-2s0-.4-.3-.7-1.3.6-2.5,1.9a77.7,77.7,0,0,0-11.8,13.9c-4,5.8-5.9,9.5-5.9,11.2a3.4,3.4,0,0,1-1.9,3.4,4.5,4.5,0,0,1-4.2-.2,6,6,0,0,1-3-3.3c-.4-1.4-.6-4.6-.5-9.6a143.3,143.3,0,0,1,1.3-14.7c.9-5,2.5-12.1,4.9-21.2,4.2-13.5,6.5-20.4,6.7-20.9s1.5-2.7,2.6-6.1,1.7-5.8,1.6-6.8a4.3,4.3,0,0,1,1.3-3.1l1.3-1.5a5.6,5.6,0,0,1,3,1,4.1,4.1,0,0,1,2.2,2.3,9.2,9.2,0,0,1,.8,6.3c-.3,2-1.8,5.8-4.3,11.2a120.3,120.3,0,0,0-5.9,15.6c-1.5,5-3,10.8-4.6,17.2s-2.3,9.9-2.2,11,.5,1.3,1.3.9a4.9,4.9,0,0,0,2-1.8c.3-.7,2-2.6,5.1-5.6,7.8-7.7,12.3-11.6,13.7-11.6a5,5,0,0,1,3.6,1.1,5.8,5.8,0,0,1,2.4,2.8,4.2,4.2,0,0,1,.7,1.1l.8.8c1.2,1.2.5,6.5-2.2,15.9-1.5,7.5-2.1,11.6-1.6,12.2l.5.2,4.5-2.9c4.3-3,7.4-4.2,9.2-3.4A.9.9,0,0,1,636.5,460.8Zm38.6-21c-1.2,0-3-.8-5.4-2.6l-2.3-2.7-2.3,2.5c-2.1,2.3-4.3,6.1-6.4,11.3s-3.2,8.7-3.3,10.8.1,3.3.5,3.9a3.7,3.7,0,0,0,2,.7c.9,0,2.4-.6,4.6-1.8a8.8,8.8,0,0,1,2.8-2.4c1.4-.1,3.9-2.6,7.5-7.7s5.5-8.3,4.8-10.7c0-.3-.4-.5-1-.7Zm15.3-9.3q.1,1.5,1.5,1.5c1,0-.3,1.5-4,4.5s-3.5,2.5-3.5,2.9a2.7,2.7,0,0,0,.2,1.4c2.1,4.4.3,10.1-5.5,17s-11.7,10.9-18.1,12a14.4,14.4,0,0,1-3.8.5c-.4,0-1.2-.6-2.3-1.6a11.2,11.2,0,0,1-5-4.1,8.8,8.8,0,0,1-1.7-5.1c.4-6.7,2.5-14,6.3-21.7s7.8-12.5,11.9-14,7.3-1.6,8.8,1.3,1.4,4.5-.6,5.3-1.5.5-1.5,1.3,2.6.1,5.8-.5,5-1.3,5.8-2a4.9,4.9,0,0,1,3.3-.2Q690.4,429.5,690.4,430.5Zm53.7,11.2v9.8c.4,2,.7,3.2.8,3.6s.4.5.6.4l.7-.3c.9-.4,3.4-4.5,7.6-12.4,3.2-5.3,5.3-8.6,6.2-9.9s.6-6.1,1.1-9.8c2.7-3,4.7-3.3,6-1,1.7.7,2.4,2.2,2,4.4l-1.8,7.7c-.5,2-.7,5.6-.5,10.6s.4,8.1.8,9.5.8,2,1.2,2.2,2.1-.3,4.1-2a61.9,61.9,0,0,0,6.6-9.1c2.6-3.9,3.8-6.2,3.8-7a5.2,5.2,0,0,1,1.8-4.5l2-5.7c-.2-.5,0-1.1.6-1.9a10,10,0,0,0,1.2-1.6,2.2,2.2,0,0,1,1.4-2.1,2.9,2.9,0,0,1,2.7.4,3.6,3.6,0,0,1,1.5,3.2c.2,1.4-.4,4-1.9,7.9a49.9,49.9,0,0,1-4.9,10.1,43.1,43.1,0,0,1-5.2,9.5,31,31,0,0,1-4.8,5.9q-4.8,6.8-7.8,6.9t-6.6-4.2c-1.8-2.4-3-7.6-3.7-15.5-6.9,11.5-12.6,18.1-17.1,19.7-1.6.7-2.9.1-4-1.8a14.2,14.2,0,0,1-1.6-7.2c-.6-4.1-1.1-8.8-1.4-14s-.2-8.9.2-10.7l-.2-1.7q-.6-1.1-.3-5.4a19.1,19.1,0,0,1,.7-5.5c.2-.6.8-1,1.9-1.3s2.2.7,2.3,1.5,1.5,1.2,1.9,1.1,1,3,1.2,7.6V434A74.6,74.6,0,0,0,744.1,441.7Zm86.1-18.2c-1.5-1.6-3.6-1.2-6.3.9-.9.3-2.3,1.4-4.1,3.3a53,53,0,0,0-4.4,5.5c-1.2,1.7-1.6,2.7-1.1,3s0,.3.3.4l1.3.2h2.8l2.8-.5,2.7-.7,1.9-1.2c1.1-.7,2.7-2.6,4.7-5.8S831.1,424.4,830.2,423.5Zm-30.5,8.8,2.4-.4c1.3,0,2,.2,2,.8s1.7.8,3-1.1a11.7,11.7,0,0,0,1.3-2.5,30.9,30.9,0,0,1,5.5-6.6,37.4,37.4,0,0,1,6.2-5.2,16.3,16.3,0,0,1,7.9-1.9c2.4.1,5,1.5,7.6,4.1s2.5,2.9,2.7,5.5a11.9,11.9,0,0,1-.9,6.6c-.4,1.4-1.8,3.2-4.3,5.5a25.3,25.3,0,0,1-6.8,4.7,38.4,38.4,0,0,1-7.4,1.3c-2.9.2-4.9.1-5.9-.3s-1.1.3-1.4,1.9a39.8,39.8,0,0,0-.7,6.4c-.1,2.8.1,4.4.5,5.1a4.3,4.3,0,0,0,1.1,1.2c3.4,3.2,6.9,3.2,10.4.1l3.5-3.8c1.3-1.4,2.3-2.5,2.9-3s2.3-1.8,4.7-1.2a3.1,3.1,0,0,1,1.4,2.3,8.3,8.3,0,0,1-1,3.3,15.1,15.1,0,0,1-3.6,4.7,37.2,37.2,0,0,1-4.6,4,17.1,17.1,0,0,1-14.7,1.7c-3.7-1.3-6.2-3.3-7.4-5.8s-1.6-6.1-1.3-10.3a68,68,0,0,0,.3-7.9,3.6,3.6,0,0,0-1.1-2.2l-1.5-1.3a6.1,6.1,0,0,1-1.7-2.3,5,5,0,0,1,0-2.1C799.1,432.7,799.4,432.3,799.7,432.3ZM302.6,621.2v-2.6a8.7,8.7,0,0,1-2.9,3.9,23.1,23.1,0,0,1-6.2,5c-3.2,2.2-5.7,3.4-7.6,3.5s-3.7-.7-5.7-2.8-4.4-5.8-3.6-10.1c0-6.5,1.7-14,5.1-22.3,2.7-6,4.7-10,5.9-12,3-1.2,4.7-.3,5.3,2.6s.1,6.1-3.2,13.1c-5.1,13.5-6,20.8-2.9,21.8,1,.6,2.5.5,4.3-.3s4.2-2.9,6.9-6.3a42.7,42.7,0,0,0,6.5-11.9,36,36,0,0,0,2.7-11.7,4.7,4.7,0,0,1,2.2-5.4,4,4,0,0,1,1.3-1.3c.7-.4,1.1-.4,1.4-.1l2.3-.2c.3,0,.5.3.8.8a3.5,3.5,0,0,0,.9,1.1c2.2,1.7,1.5,7.4-2.3,17.3-2.8,6.4-4.1,11.3-4.1,14.7a11.2,11.2,0,0,0,4.5,8.5c1.4.9,2.1,2.6,2,5.1a3.8,3.8,0,0,1-3,2.7,5.3,5.3,0,0,1-4.6-.6,19,19,0,0,1-5.4-9.3A9,9,0,0,1,302.6,621.2Zm44.3,0-2.6-.8c0-.9-1.4-1.8-4.1-2.9-5.3-4-7.8-6.3-7.3-7v-.7c-.6,0-1.4-.8-2.3-2.6a12.8,12.8,0,0,1-1.3-5.1c-.1-1.7.5-4,1.8-7.1a27.1,27.1,0,0,1,5.2-7.9,66.2,66.2,0,0,1,9.4-7.6c8.3-6,14.4-8,18.1-6a13.5,13.5,0,0,1,6.1,6.8c.3,5.8-.4,8.8-2.1,8.9s-.7.4-.7,1.1-.6,1.8-1.9,3c-4,3.2-6.3,3.5-7,1-.5-.9-.9-1.3-1.3-1.3a1.8,1.8,0,0,1-.9-1.8l.7-1.6q.9,0,2.7-3.3c1.2-2.3,1.8-3.8,1.8-4.4s-.1-1-.3-1.1h-1.3c-7.1,3.6-11.5,6.2-13.3,8l-.6,1.3h-.7q0-1.1-4.2,5.4c-.7.9-1.6,2.4-2.8,4.4a4.2,4.2,0,0,0-1,2.9,8.8,8.8,0,0,1-.1,2.1,5.6,5.6,0,0,1,.1.7.7.7,0,0,1,.1.5l.5.6a1.8,1.8,0,0,1,.7.5l1,.6,1.3,1c8.7,6,13.4,10,14.1,12.1s2.3,5,1.8,6.4-1.8,2.6-3.8,3.7a25,25,0,0,1-8.6,2.1,29.8,29.8,0,0,1-8.6.4,22.3,22.3,0,0,1-5.1-2.6,16.8,16.8,0,0,1-3.3-3.2c-.1-1.3.2-2.1.7-2.2s3.6,0,8.7.2a38.4,38.4,0,0,0,7-.9c2.6-.7,4-1.4,4.2-2S347.7,622.1,346.9,621.2Zm42.3-25.3a5,5,0,0,0,1.1,3.1,3.4,3.4,0,0,0,2.6,1.2c2.8-.1,5.1-1.6,7.1-4.5a19.3,19.3,0,0,0,3.3-8.1c.3-2.6,0-4.2-1.1-4.9s-5.4.4-9.3,4.2a33.5,33.5,0,0,0-5.3,6.4l-1.7,3a5.4,5.4,0,0,1,2.2-.5C388.8,595.6,389.2,595.7,389.2,595.9Zm-5.6,6.6c-2,6.1-2.9,10.5-2.8,13.4a13.3,13.3,0,0,0,1.4,6.3c.9,1.2,2.4,1.7,4.5,1.6a17.7,17.7,0,0,0,5.4-.9,30.4,30.4,0,0,0,5.9-4l4.6-3a1.4,1.4,0,0,0,1.1-.8,3.3,3.3,0,0,1,3,.3,2.9,2.9,0,0,1,1.7,2.5,10.3,10.3,0,0,1-2.3,3.7c-1.4,1.8-2.5,2.7-3.3,2.8l-2,1.2h.1q-1.2,1.8-2.4,1.8h-1.1c-.4.8-1.6,1.6-3.7,2.4a16.3,16.3,0,0,1-5.8,1.4,13.1,13.1,0,0,1-10.4-4.2,16.5,16.5,0,0,1-4.1-11.6c0-6.9,1.9-14.4,5.9-22.4q8.3-16.9,19.2-17.4a14.8,14.8,0,0,1,6,1.3,10.1,10.1,0,0,1,6.2,6.5,16.9,16.9,0,0,1,0,7.1c-2,6.9-5.6,12-10.9,15.3a10.2,10.2,0,0,1-5.5,1.6c-4.4.2-7.6-1.1-9.7-3.8Zm67.9-13c0-.5-.9-.9-2.7-1-5.4-.5-10.8,2.7-16.2,9.8a42.1,42.1,0,0,0-5.5,9.4c-3,6.8-3.5,10.5-1.6,11.3s6.7-3,12.5-8.6a84.8,84.8,0,0,0,8.6-11.7C449.9,593.4,451.6,590.4,451.5,589.5Zm5.2,19.4a65.5,65.5,0,0,0-.2,10.5c.2,4.8-.1,7.1-.9,7.2a5.2,5.2,0,0,1-4-1.8,15.2,15.2,0,0,1-2.3-3.6,11.5,11.5,0,0,1-.3-4.8l.3-6.5h-.6c-.1-.1-.4.1-.9.5a5.3,5.3,0,0,0-1.1.9l-1.5,1.3-1.7,1.6c-7.9,9.6-14.6,14.1-20.2,13.6s-6.6-4.5-6.1-12.4a42.2,42.2,0,0,1,6.1-18.4,30.7,30.7,0,0,1,6.5-8.4,28.2,28.2,0,0,1,8.9-5.8,18.6,18.6,0,0,1,12.5-1.4c2.4,1.1,3.8.9,4.3-.7a22.3,22.3,0,0,0,1.3-3.4,43.5,43.5,0,0,1,1.5-4.2q3.1-11,5.7-17.4l3.9-10.2c1.4-3.1,2.6-4.9,3.6-5.5s2.3-.2,3.7,1.1a6.4,6.4,0,0,1,1.3,4.1,38.4,38.4,0,0,1-2.3,7.4c-2,3.7-5.1,11.4-9.2,22.9q-.2.8-1.2,4.8c-.7,2.7-1.2,5.3-1.7,7.9s-.8,4-1.4,4C459.1,594.1,457.8,599.6,456.7,608.9Zm68.2,6.9,2.4-.3c1.3-.6.7,2.7-1.7,9.9-.4.8-.9,1.6-1.4,2.4a8.4,8.4,0,0,1-1.1,2c-.2.5-.5.9-.7,1.3s-.8,1.2-1.1,1.2c-3.1-.4-5.2-1.4-6.4-3.3s-1.5-4.4-1.1-8.2a18,18,0,0,0,.7-3.1q.6-3.9,1.2-4.5a.9.9,0,0,0,0-1.3c-.1-1.2.7-4,2.2-8.3q-.9-1.1.6-2.4c1-1,1.3-1.7.9-2.2s-.2-1.3.4-2.6l2.1-4.6c.8-1.7,1.3-2.8,1.5-3.4s.6-2.2,2-5.8,2.5-5.9,2.9-6.7.4-.7-1-.8-3.9-.3-7.9-.1-7-.3-8.8-1.2-1.7-3.7,2-4l18.2-2.3.3-2.4c2.2-4.1,3.4-7.3,3.7-9.7a16.8,16.8,0,0,0,2.5-7.2,60.4,60.4,0,0,0,3.1-5.9,19.2,19.2,0,0,1,1-2.2c1-.9,1.7-1.4,2.1-1.4a7.3,7.3,0,0,1,2.8,1.3c3.7,2.1,4.6,4,2.9,5.6s-.8,2.3-1.5,4.6a17.4,17.4,0,0,0-3.3,7.7c-1.8,4.1-2.9,6.2-3.4,6.3s.8,1.3,2.2,1.3l6-.8,1.8-.5a3.7,3.7,0,0,1,2.5.3,6.7,6.7,0,0,1,1.4,3.4,2.4,2.4,0,0,1-1,2.6l-2.9.9c-1.5.5-5.7,1.2-12.7,2.1l-4,8.6a7.9,7.9,0,0,0-.5,1.5l-5.3,12.6c-.4,0-.6.3-.5.8s.4,1.9-.1,2.3a11.1,11.1,0,0,0-1.9,2.3c.5.4.3,1.5-.5,3.2a22.2,22.2,0,0,1-1.7,7.2c.2,1.7.3,2.8.4,3.2S524.6,615.9,524.9,615.8Zm54.4-10.4c5.2-8.5,7.2-16.2,5.9-23.2-.5-2.5-1.1-3.8-1.9-4-2.7-1-5.7.3-8.8,3.7s-6.9,12.5-9.7,23.4q-1.8,7.7,2.1,9.6t10.2-6.3A25.7,25.7,0,0,0,579.3,605.4Zm-2.2-35.2a13.6,13.6,0,0,1,4.1-1.4,7.7,7.7,0,0,1,3.5,1.5,12.2,12.2,0,0,1,5.1,2.6,10.4,10.4,0,0,1,3,5.2c2.1,7,1.1,15-3,23.9a43.8,43.8,0,0,1-4.6,8.1,85.9,85.9,0,0,1-6.9,7,20.4,20.4,0,0,1-9.5,5.4,9.5,9.5,0,0,1-5.8-1.6c-4.3-3.1-6.4-6.2-6.3-9.4a8.1,8.1,0,0,0,.1-1.5c-.1-.5-.2-1-.4-1.7s-.8-.8-.6-1.1.4-.5.4-.6.8-.7.2-1.5-.2-2.4.2-5.1a52,52,0,0,1,2.1-7.2c2.3-6,4.9-10.7,7.7-14S573.3,571.8,577.1,570.2Zm70.2,2.2,1.3-4.8c.5-.4,1.2-2.5,2.3-6.1s2.2-6.9,3.2-9.4c3.1-7.6,5.2-13.2,6.4-16.9l1.6-3c1.3-2.5,2.1-3.9,2.5-4.1a5.1,5.1,0,0,1,2.9.3,5.7,5.7,0,0,1,2.7,2,3.1,3.1,0,0,1,.7,2.7c-.3.8-2,4.9-5.1,12.2s-5.4,13.3-7,17.9-3,9.1-4.2,13.2-2.1,6.9-2.5,8.1l-.6,3.1,3.4-3.5c1.1-.9,2.8-2.4,5.1-4.7l4.3-3.9,4.2-2.2a27.4,27.4,0,0,1,10.5-2.8c3.4-.1,6.4,1.7,8.9,5.5s2.2,8.7-.4,13.6q-2.1,1.6-2.1,3.3c-.1,1.2-2.3,4.4-6.8,9.7a47.8,47.8,0,0,1-9.3,7.9,55.7,55.7,0,0,1-7.9,5l-3.6,1.1-4.5.9a9.5,9.5,0,0,1-3.5-.6,5.6,5.6,0,0,1-1.5-2.2c-1.1-1.1-1.7-2.2-1.5-3.1s1.8-.3,1.9-.6.9-.8,2.7-.7,4.9-1.3,9.6-4.3a86.7,86.7,0,0,0,13.8-11.4c3.3-4.6,5.3-7.9,6-10a6,6,0,0,0,.2-5.2c-.2-.9-1.6-1.2-4.2-.8a17.6,17.6,0,0,0-7.6,3.4c-9.8,6.6-16.2,13.9-19.4,21.8l-.6,1.4c0,.4-.5.9-1.6,1.5a5.4,5.4,0,0,1-2.7.9,4.1,4.1,0,0,1-2.7-3c-1.4-.8-2.1-1.6-2.1-2.2a60.8,60.8,0,0,1,1.6-8.2c.6-3.6,1.4-7.3,2.4-11.2s1.8-6,2.2-6.4A8.7,8.7,0,0,0,647.3,572.4Zm74.4,10.1a15,15,0,0,0,4.6-3.7c1.6-1.7,2.4-3.2,2.3-4.4a3.3,3.3,0,0,0-2.1-3,5.5,5.5,0,0,0-4.6-.4,13.9,13.9,0,0,0-5.3,3.4,29.4,29.4,0,0,0-4.4,5.3c-1.2,1.6-1.6,2.5-1.3,2.8s1.9,1.1,4.5,1.1A15.8,15.8,0,0,0,721.7,582.5Zm.6,22.6.4-.3h.3q.3-.2.3-.3l2.3-2.3a4.9,4.9,0,0,1,2.1-1.7,2.1,2.1,0,0,1,1.5.7l1.1.8c1.5-.1,1.3,1.1-.5,3.6a26.8,26.8,0,0,1-6.8,6.6,12.3,12.3,0,0,1-10.5,3.4,15,15,0,0,1-9.9-5.8c-3-3.5-4.3-9.3-3.9-17.3.2-5.2,2.2-10.6,6.1-16.2s8-9.5,12.5-11.4a7.7,7.7,0,0,1,3.6-1.5,40.8,40.8,0,0,1,5.6.2,9.3,9.3,0,0,1,6.4,3.1,11.2,11.2,0,0,1,3.8,8c-.2,2.2-1.6,4.9-4,7.9a29.9,29.9,0,0,1-8.8,7.3c-5.1,1.8-9.4,1.7-12.7-.4-1.7-.6-2.9-.4-3.5.5s-.9,3.3-1.2,7.1c-.5,6.4,1.2,9.9,5,10.4l1.7.3,1.4.3h1.3l1.4-.2a12.4,12.4,0,0,0,2-1l1.7-1Zm23-7.2a9.7,9.7,0,0,1,3.6-1.8,7.1,7.1,0,0,1,3.8.8c2.8,1.6,4.1,3.6,3.8,5.7s-1.9,4.2-5.3,6-5.9,1.3-8.3-.4S740.2,601.6,745.3,597.9Z" style="fill:#806d73;opacity:0.8500000238418579;isolation:isolate"/></svg>