<svg id="Layer_1" data-name="Layer 1" xmlns="http://www.w3.org/2000/svg" xmlns:xlink="http://www.w3.org/1999/xlink" viewBox="0 0 1024 1024"><defs><linearGradient id="linear-gradient" x1="-154.05" y1="1021.98" x2="873.68" y2="92.1" gradientTransform="matrix(1, 0, 0, -1, 206, 1142)" gradientUnits="userSpaceOnUse"><stop offset="0.01" stop-color="#f3e2e4"/><stop offset="0.01" stop-color="#f1e7ee"/><stop offset="0.94" stop-color="#f6f0f7"/></linearGradient></defs><title>i regret not saying it</title><path d="M988.2,896.4H19.8L30.9,153H978.7Z" style="fill:url(#linear-gradient)"/><path d="M142.1,324c4.9-.5,8.1-.6,9.7-.3a3.8,3.8,0,0,1,3.5,2c1.1,3.7.3,5.3-2.3,5.1a73.5,73.5,0,0,1-10.6.7q-9.2.8-9.9,1.8l-.9,1.2-.7,1c.1,1-.3,3-1.4,6l-3.1,9.5c-2.8,8.5-4.4,13.3-5,14.5a12.9,12.9,0,0,0-1.2,4.2c-1.8,5.9-3.6,11.9-5.6,17.9s-3.3,10.5-4.1,13.5l9.6-.9c4.6-.4,7.5-.6,8.8-.4a2.7,2.7,0,0,1,2.6,1.8c2.2,3,1.8,4.9-1.3,5.6a35.2,35.2,0,0,1-7.3.4c-7.1.2-11.7.5-13.7.7s-2.9.8-3.1,1.6-1.2,1.4-3.6.5-5-2.2-11.8-2a7.7,7.7,0,0,1-5-.8c-1.6-.8-2.2-1.7-1.8-2.8s3.7-3.4,10.7-3.5h6.9l1.3-2.6c.7-2,1.4-4.4,2.2-7.1l3-9.2,4.8-15c1.3-2.7,2.7-7.4,4.3-13.8,4-12.4,5.7-18.8,5-19a53.8,53.8,0,0,0-7.2.5c-3.7.3-5.9.6-6.3.9s-1.2.7-2.2.4a2.8,2.8,0,0,1-1.9-1.9,2.9,2.9,0,0,1,.8-3.1c.8-.6,2.8-1.3,6-2.3a49.7,49.7,0,0,1,9.9-2,14.7,14.7,0,0,0,7.5-2.7,11.9,11.9,0,0,1,4.5-.8C134.2,324.2,137.2,324.4,142.1,324Zm39.4,78.2c-.9,1.3-1.6,1.9-2.3,1.9s-1.8-.7-3.1-2.1a4.9,4.9,0,0,1-1.7-2c-.5-1.2.3-6.6,2.6-16.1.3-2.2,1.8-6.7,4.6-13.6s5-11.6,6.7-14.1,3.4-1.1,5.1.5,1,1.9.5,3.5a108.4,108.4,0,0,1-4.3,10.4c-2.1,4.5-3,6.8-2.7,6.8a1.9,1.9,0,0,0,1.1-.5c1-1.6,3.3-3.9,6.9-6.7s6-4.5,7-4.9a20.9,20.9,0,0,1,3-1.4l1.9-.8a10.4,10.4,0,0,1,6-1c2.1.2,3.4,1,4,2.3a2.3,2.3,0,0,0,1.5,2.1l.7.8c0,.7-1.2,1.2-3.4,1.4a20.7,20.7,0,0,0-7.5,1.9l-2.2,1.3a12.6,12.6,0,0,0-2.2,1.2l-2,1.1-2.2,1.3a10.6,10.6,0,0,1-1.8,1.3l-2.1,1.4-1.8,1.4a38.5,38.5,0,0,0-7.5,9.3c-.6.6-1.2,2.2-1.9,4.8a36.4,36.4,0,0,0-1,4.7A9.1,9.1,0,0,1,181.5,402.2ZM243,374.7a12.6,12.6,0,0,0,4.4-3.2c1.6-1.6,2.4-2.9,2.4-4a3.3,3.3,0,0,0-1.8-2.9,5.2,5.2,0,0,0-4.3-.5,11.7,11.7,0,0,0-5,3,22.9,22.9,0,0,0-4.3,4.6c-1.1,1.5-1.6,2.3-1.3,2.6s1.7,1.1,4.1,1.2A15.6,15.6,0,0,0,243,374.7Zm-.3,20.9.4-.2h.3c.2-.1.2-.2.2-.3a20,20,0,0,0,2.3-2.1c.9-.9,1.6-1.4,2-1.4a1.6,1.6,0,0,1,1.3.7l1,.7c1.4,0,1.2,1.2-.6,3.4a24.3,24.3,0,0,1-6.5,5.8,11.4,11.4,0,0,1-9.8,2.7,13.7,13.7,0,0,1-8.9-5.7q-4.1-5.1-3-16.2.6-7.2,6.3-14.7c3.8-5.1,7.8-8.4,12-10.1a6.8,6.8,0,0,1,3.4-1.1,22.6,22.6,0,0,1,5.2.4,8.5,8.5,0,0,1,5.8,3.1,10.3,10.3,0,0,1,3.2,7.5c-.4,2.1-1.7,4.4-4,7.1a28.7,28.7,0,0,1-8.5,6.5c-4.8,1.4-8.7,1.1-11.7-1s-2.7-.5-3.3.4-1,3-1.4,6.5c-.7,5.9.7,9.2,4.2,9.8l1.6.4,1.3.3H238l1.9-.8,1.5-.9ZM290.4,365a1.2,1.2,0,0,0-.9-.3h-.9l-1,.4a3.1,3.1,0,0,0-1.2.7l-1.1.9a5.8,5.8,0,0,0-1.3,1.1l-1.5,1.2-1.4,1.4-1.5,1.4c-8.3,7.4-12,12.6-11.3,15.6.1.9,1.3,1.2,3.5,1a20.8,20.8,0,0,0,5.3-1.6,30.3,30.3,0,0,1,3.7-1.8l2.6-1.1a7.5,7.5,0,0,0,3.5-2.9,24.5,24.5,0,0,0,1.8-4.8c.6-2,1.3-3.1,2.1-3.2a4.9,4.9,0,0,1,2.8.4,2.3,2.3,0,0,0,1.2-2.7A7.4,7.4,0,0,0,290.4,365Zm10.2,13a5.7,5.7,0,0,0-2.6.9,2.9,2.9,0,0,0-1.4,2.1c0,.6-.7,1.7-2.1,3.2s-.8,3.9-2.1,9.7-2.2,10-2.8,12.4a63.1,63.1,0,0,1-2.5,7.8,21.7,21.7,0,0,1-4,9.7,15,15,0,0,1-4.7,5A10.4,10.4,0,0,1,273,431c-1.8.3-4.6-.4-8.2-2.1a21,21,0,0,1-4.9-5.8c-1.4-2.5-2.1-4.4-1.9-5.6s.9-1,2.2-.3a8.2,8.2,0,0,1,3,2.4,10.5,10.5,0,0,0,3.6,3.1c1.7,1.2,3,1.6,4,1.5,3.5-.6,6.6-3.8,9.2-9.9a127.1,127.1,0,0,0,4.3-15.6c1.5-6.3,2-9.6,1.7-10l-8.4,4.6c-5.4,1.7-9.6,2-12.6,1a7.8,7.8,0,0,1-2.8-3.4,8.9,8.9,0,0,1-1.2-4.5c.2-1.3,1.4-3.9,3.7-7.7s3.5-5.6,3.9-5.5.6-.4.6-1.3,2.6-3,7.1-6.6c6.3-5.5,11.2-8.4,14.9-8.7h2.6a18,18,0,0,0,3.1,1.5,11.3,11.3,0,0,1,4.8,4.7,16.1,16.1,0,0,1,2.3,7,21.7,21.7,0,0,1-1.3,5.6C302,377.3,301.3,378.1,300.6,378Zm50.2-8h-3.4a7.2,7.2,0,0,0-3,.7,15.4,15.4,0,0,0-2.3,1.2l-1.8,1.3-1.3.9a60,60,0,0,0-10.9,8.5c-4.7,5-7.4,8.5-8,10.6-2.8,6.6-4.5,10.2-5.2,10.7s-1.9,1-3.9-.3a2.4,2.4,0,0,1-2.5-2q-.5-1.7,1.5-7.8c1.4-6.4,2.5-10.9,3.2-13.7a29.8,29.8,0,0,0,1.7-4.8,36.2,36.2,0,0,1,2-5.1,44.3,44.3,0,0,1,4.9-11.5c.6-1.2,1.3-1.7,2.2-1.7s2.5-1,4,.4a4.2,4.2,0,0,1,1.2,3.9,19.9,19.9,0,0,1-3.1,6.4c-.6,1.3-1.2,2.9-2,4.7a33.8,33.8,0,0,0-2.7,7.7,76.8,76.8,0,0,1,5.7-6.2,53.6,53.6,0,0,1,9.6-7.6c3.6-2.5,6.9-3.5,9.9-3.1S350.3,365.3,350.8,370Zm19.3,4.7a4.9,4.9,0,0,0,.9,3,2.8,2.8,0,0,0,2.3,1.1c2.6,0,4.8-1.2,6.7-3.8a16.8,16.8,0,0,0,3.4-7.4c.4-2.3.2-3.8-.8-4.5s-5,.1-8.8,3.5a34.4,34.4,0,0,0-5.1,5.6l-1.7,2.7a6.9,6.9,0,0,1,2-.3C369.7,374.5,370.1,374.5,370.1,374.7Zm-5.5,5.9c-2.1,5.5-3.1,9.6-3.1,12.3s.3,4.6,1,5.8,2.2,1.7,4.2,1.7a17.5,17.5,0,0,0,5-.6,30.1,30.1,0,0,0,5.6-3.5l4.4-2.6a1.4,1.4,0,0,0,1-.6,2.7,2.7,0,0,1,2.7.4,2.6,2.6,0,0,1,1.6,2.3,11.8,11.8,0,0,1-2.4,3.4c-1.3,1.5-2.4,2.3-3.1,2.4l-1.9,1.1h.1c-.8,1-1.5,1.5-2.3,1.5h-1.1c-.3.7-1.5,1.4-3.5,2.1a17.7,17.7,0,0,1-5.4,1A12.1,12.1,0,0,1,358,403a16,16,0,0,1-3.4-10.9c.3-6.4,2.4-13.2,6.4-20.4,5.6-10.3,11.7-15.4,18.4-15.4a13.1,13.1,0,0,1,5.6,1.5,9.4,9.4,0,0,1,5.4,6.2,17.7,17.7,0,0,1-.3,6.6c-2.1,6.3-5.6,10.8-10.6,13.7a10.3,10.3,0,0,1-5.2,1.3c-4,0-7-1.3-8.8-3.9Zm38.2-19.9a2.4,2.4,0,0,1-1.5-.9,3.7,3.7,0,0,1-.5-1.6,4,4,0,0,1,1-2.3c.8-1.1,1.4-1.5,2-1.4h3.8a21.2,21.2,0,0,0,4.2-.5,2.3,2.3,0,0,0,1.4-1.5,52.8,52.8,0,0,1,3.3-6.9c2.6-5,4.6-8.2,6.2-9.5s3.4-1,5.6.8a6,6,0,0,1,1,2.1c.1.2-.2,1-.8,2.2s-1.5,2.8-2.7,4.8-1.9,3.2-2.4,4.1-1.7,3.2-.6,3.4a42,42,0,0,0,7.6-.7c4.2-.7,6.4.5,6.9,3.5s0,3.4-.7,3.8-2.7.6-5.9.6a78.3,78.3,0,0,1-7.9.8,31.2,31.2,0,0,0-4.4.2,3.9,3.9,0,0,0-2.5,2.5,2.8,2.8,0,0,0-.9,1.4l-3.2,6.1a100.5,100.5,0,0,0-4.7,17.4c-.7,4.7-.9,7.4-.4,8.3s1.9,1.3,4.5,1.6c4.4.5,9.1-.7,14.2-3.8l3.5-2c.9-1.4,1.8-1,2.7,1.3a11.8,11.8,0,0,1-.2,2.2,5.9,5.9,0,0,1-1.5,2.2,11.8,11.8,0,0,1-3.7,2.8c-6.6,4.1-12.9,5.6-18.9,4.4a8.6,8.6,0,0,1-4.3-2.8,12.2,12.2,0,0,1-2.7-4.5l-.6-1c-.5-.5-.7-2.7-.5-6.6a43.7,43.7,0,0,1,.9-8.6c.4-1.7,1.2-4,2.3-7.1a50.8,50.8,0,0,0,2.1-5.9l3.5-7.5Zm112.6,10c1,0,1.5,1.3,1.4,3.8a19.3,19.3,0,0,1-.8,5.7c0,1.3-.6,4.6-1.9,9.8s-2.3,10.5-.7,12.5a2.2,2.2,0,0,1-2.3,3.1c-1.2,0-2.4-1-3.8-2.9a13.5,13.5,0,0,1-1.9-7.3,47.1,47.1,0,0,1,2.2-12.1c1.5-5.4,2.1-8.2,1.8-8.5s-1.6.2-4,1.6a20,20,0,0,0-5.2,3.7l-1.9,1.7a57.8,57.8,0,0,1-5.6,4.5c-2.6,2.1-6,5.3-10.3,9.6A2.3,2.3,0,0,1,479,397a5,5,0,0,1-2.7-1.7,4.4,4.4,0,0,1-1.2-2.9c0-3.1,2.7-10.4,8-21.7a11.9,11.9,0,0,0,1.3-5.3c0-2.1.4-3.6,1.3-4.4s.9-.9,1.8-.6a4.4,4.4,0,0,1,2.2,1.9c2.3,2.2,2.5,6,.6,11.2l-2,4.4,6.7-3.7,3.2-2.5c2.4-1.9,3.9-2.8,4.4-2.8a3.5,3.5,0,0,0,2.2-1.3l1.2-.6a2.7,2.7,0,0,0,1.9-1c.7-.6,2-.4,3.9.4s3,1.9,2.9,3.2Zm37.4,20.4c5.1-7.7,7.3-14.7,6.3-21.2-.3-2.3-.8-3.6-1.5-3.7-2.5-1.1-5.3-.1-8.3,3s-6.9,11.2-9.9,21.2c-1.3,4.7-.8,7.7,1.6,9s5.6-.5,9.7-5.5A34,34,0,0,0,552.8,391.1Zm-.6-32.6c1.9-.8,3.2-1.2,3.9-1.1a6.4,6.4,0,0,1,3.1,1.5,10.1,10.1,0,0,1,4.6,2.6,10.3,10.3,0,0,1,2.6,4.9c1.6,6.6.4,13.9-3.8,22a41.5,41.5,0,0,1-4.5,7.2,63.3,63.3,0,0,1-6.7,6.2,18.7,18.7,0,0,1-9,4.7,8.8,8.8,0,0,1-5.3-1.7q-5.7-4.5-5.4-9a6.6,6.6,0,0,0,.1-1.4,4.9,4.9,0,0,0-.3-1.5c-.5-.5-.6-.8-.5-1.1s.4-.4.4-.5.8-.6.3-1.4-.1-2.2.4-4.7a34,34,0,0,1,2.2-6.6,42.7,42.7,0,0,1,7.6-12.6A25.8,25.8,0,0,1,552.2,358.5Zm38.4,40.2h2.2c1.2-.6.5,2.5-2,9l-1.4,2.2a11.5,11.5,0,0,1-1,1.8,8.3,8.3,0,0,0-.8,1.2c-.5.7-.8,1-1.1,1-2.8-.4-4.7-1.5-5.8-3.2s-1.1-4.2-.6-7.7a25.5,25.5,0,0,0,.8-2.8c.4-2.4.9-3.8,1.3-4.1s.3-.9,0-1.2.8-3.7,2.3-7.6c-.5-.7-.3-1.5.7-2.2s1.2-1.5.9-2-.1-1.2.5-2.4l2.1-4.2a12.9,12.9,0,0,0,1.5-3.1,54.4,54.4,0,0,1,2.1-5.3l3-6c.7-.4.4-.6-.9-.8a39.6,39.6,0,0,0-7.4-.4c-3.7,0-6.3-.5-8-1.5s-1.4-3.4,2-3.6l16.9-1.4.4-2.2a28.4,28.4,0,0,0,3.8-8.8,16.4,16.4,0,0,0,2.6-6.5c1.5-2.4,2.5-4.1,3.1-5.3a23.1,23.1,0,0,1,1-2.1c1-.8,1.6-1.2,2-1.2a8.3,8.3,0,0,1,2.6,1.3c3.2,2.1,4,3.9,2.4,5.3s-.9,2.1-1.6,4.2a14.6,14.6,0,0,0-3.3,7c-1.8,3.7-3,5.6-3.4,5.6s.6,1.3,1.9,1.3a35.4,35.4,0,0,0,5.6-.5,7,7,0,0,0,1.7-.4,6.2,6.2,0,0,1,2.3.4,7.4,7.4,0,0,1,1.2,3.3,2.1,2.1,0,0,1-1.1,2.3l-2.7.8c-1.4.3-5.3.8-11.8,1.4l-4,7.7a13.4,13.4,0,0,0-.5,1.4l-5.5,11.4c-.3,0-.5.3-.5.8s.3,1.7-.1,2.1a8.6,8.6,0,0,0-1.8,2c.4.5.2,1.4-.7,3a19.3,19.3,0,0,1-1.8,6.6c.1,1.5.2,2.5.2,3S590.2,398.8,590.6,398.7Zm77.6-1.5-2.3-.9c0-.8-1.2-1.8-3.7-2.9-4.8-3.9-6.9-6.1-6.5-6.7V386q-.9,0-2.1-2.4a15.8,15.8,0,0,1-1-4.8c0-1.6.7-3.7,2-6.5a25.1,25.1,0,0,1,5.2-7.1,55,55,0,0,1,8.9-6.7c7.9-5.2,13.6-6.8,17-4.8a13.7,13.7,0,0,1,5.4,6.5c0,5.4-.8,8.2-2.4,8.2s-.6.3-.6,1-.7,1.6-2,2.7c-3.8,2.8-5.9,3-6.4.6-.5-.8-.9-1.3-1.2-1.3a1.6,1.6,0,0,1-.8-1.6l.8-1.5c.5,0,1.4-1,2.6-2.9s1.8-3.4,1.8-4a2,2,0,0,0-.2-1.1h-1.2c-6.7,3-10.9,5.3-12.6,6.8l-.6,1.2h-.7c0-.7-1.3.9-4.1,4.8l-2.7,4a4.2,4.2,0,0,0-1.1,2.6,7.2,7.2,0,0,1-.1,1.9v.7a.7.7,0,0,1,.1.5l.4.5.7.5.9.7,1.1.9c7.9,5.9,12,9.8,12.5,11.8s2,4.6,1.5,5.9a7.2,7.2,0,0,1-3.7,3.3,23.8,23.8,0,0,1-8,1.6,26.1,26.1,0,0,1-8,0,17,17,0,0,1-4.5-2.6,12,12,0,0,1-3-3.1c0-1.2.3-1.9.8-1.9a75,75,0,0,1,8,.5,41.2,41.2,0,0,0,6.5-.6c2.4-.6,3.7-1.1,4-1.7S668.9,397.9,668.2,397.2Zm58.4-26.4c-1.5-3.5-3.3-5.2-5.2-5.2s-4.8,2.3-8.6,6.8a83.2,83.2,0,0,0-10.7,15.9l-3.2,7.4c0,.9,1,.9,3.2-.1a39.1,39.1,0,0,0,5.6-3.5c7.4-6.4,12.8-11.9,16-16.7Zm-32.4,32.1a5.8,5.8,0,0,0-1.3-1.5,3.2,3.2,0,0,1-.8-1.7,2.7,2.7,0,0,0-.6-1.7c-1.5-1.5.9-7.8,7-19a15.5,15.5,0,0,0,2-2.7,9.7,9.7,0,0,1,1.6-2.2,1.3,1.3,0,0,1,.4-.9,1.1,1.1,0,0,1,.9-.5v-.8c0-.8,1.5-2.7,4.3-5.7,7.6-7.9,13.5-10.2,17.6-6.9.5.6,4.1,3.9,10.7,9.8l-2.3,6.5a17.4,17.4,0,0,0,1.7,15.7,6.4,6.4,0,0,0,2.5,2.8,9,9,0,0,0,3.9,1.5c1.9.4,2.9,1.4,2.9,3a2.9,2.9,0,0,1-2.4,3c-5.8.7-10.7-2.8-14.7-10.7a12.1,12.1,0,0,1-2.3-5.7,34.7,34.7,0,0,1-4.2,5C708.9,402.4,700,406.6,694.2,402.9Zm77.9-8.6a13.8,13.8,0,0,1-3.2,2.3,12,12,0,0,1-3.2,1.4c-.4,0-.5.2-.5.7s-1.2.9-3.4,1.6a22.1,22.1,0,0,1-4.5,1.1,4.8,4.8,0,0,1-2.6-1.3,15.5,15.5,0,0,1-2-2.4,14.8,14.8,0,0,0-1.1-2.2l-.9-1.9a7.2,7.2,0,0,1-.3-5.7c1.1-3.9,2.8-9.4,5.2-16.4s4.5-11.6,5.8-13.6a2.9,2.9,0,0,1,2.7-1.4,3.8,3.8,0,0,1,2.8,2.1c.9,1.3,1.2,2.3,1,3.1s-.8,2.4-2.2,5a16.6,16.6,0,0,1-1.3,3.2l-.9,2c0,.1-.1.6-.2,1.7-.6,2.7-1.2,4.1-1.6,4.1s-.9,2-1.6,4.6c-1.4,6.4-1.8,10-1,10.8,5.1,0,10.6-3.8,16.4-11.4l2.4-10.1c1.1-4.5,1.9-8.3,2.5-11.2a8.5,8.5,0,0,1,1.1-2.1,3.4,3.4,0,0,1,1.8-.4,5.1,5.1,0,0,1,2.1.3,4.7,4.7,0,0,1,1.6,1.6,10.6,10.6,0,0,1,.9,5.8,12.3,12.3,0,0,1-2.4,6.1c-1.3,1.8-2.5,6.7-3.8,14.7-.7,3.3-1.7,8.3-2.8,15.1a52.6,52.6,0,0,0-2.6,7.8,47,47,0,0,1-3,7.5c-6.9,14-15.4,21.4-25.7,22a21.2,21.2,0,0,1-3.9.2l-2.8-1.3c-2-1.3-3-2.2-3-2.6s1.1-2,3.3-2a5.2,5.2,0,0,0,2.9.6,5.5,5.5,0,0,0,3.4-.9,9.1,9.1,0,0,1,3.9-1.4c5.2-2.5,9.5-6.8,13.1-12.7s6.5-13.8,9.3-26Zm30.2-27.4c.5-.6,1.1-.7,2.1-.4a4.5,4.5,0,0,1,2.4,1.7c.8.8,1.1,2.1.8,4a86.1,86.1,0,0,1-2.9,11.9c-1.7,6.1-2.5,10.5-2.3,13.5s-.9,6-1.2,6-2.7,0-3.9-1.9a15.5,15.5,0,0,1-1.9-5.3c.4-3.3.6-5.6.8-7,.7-3.2,1.8-7.5,3.3-13.1S802,367.6,802.3,366.9Zm5.1-23.4a9.3,9.3,0,0,1,1.4-3.6c.8-1.1,1.6-1.7,2.4-1.7a9.3,9.3,0,0,1,3.9.9,14.3,14.3,0,0,1,.9,1.8l1,2.6a11.6,11.6,0,0,1,.6,1.6,9.6,9.6,0,0,1,.3,1.5,2.2,2.2,0,0,1,0,1.6,10.3,10.3,0,0,1-.4,1.4,5.2,5.2,0,0,1-1.8,2.3,2.4,2.4,0,0,1-2.9-.1,7.6,7.6,0,0,1-3.5-2.2,9.8,9.8,0,0,1-2.2-3.2A18.9,18.9,0,0,1,807.4,343.5Zm27.3,15.7a2.9,2.9,0,0,1,2,1.2,7.7,7.7,0,0,1,1.7,2.7c0,2.8-1.3,5.7-3.7,8.9a31.8,31.8,0,0,0-4.4,10.6,21,21,0,0,0-1,2.5L828,388l-.7,2.9L836,382q9-9,13.2-10.5c2.8-1,4.9,0,6.3,3.2a15.3,15.3,0,0,1,1.7,3.8,36.4,36.4,0,0,1,0,7v8l5.5-1.9a19.9,19.9,0,0,1,6.6-1.5q-.3,3.4-3.9,7.2t-6.9,3.6a6.4,6.4,0,0,1-3.9-1.7,9,9,0,0,1-2.7-3.6c-.5-1.4-.8-4.5-.8-9.4v-4.8c0-1.3-.4-1.7-1.3-1.2s-5.5,4.7-12.1,11.6-11.1,10.3-13.5,10.3a3.8,3.8,0,0,1-2.5-1.4,6.5,6.5,0,0,1-1.7-2.5c0-.6-.1-2.2-.1-4.7,0-4.4,2.5-12,7.4-22.7l4.3-9a15.5,15.5,0,0,1,1.8-2.6Zm68.1,9.3a5.1,5.1,0,0,0-.8-2.7c-.3-.4-1-.5-2.1-.4-3.3.5-7,3.3-11,8.3a24,24,0,0,0-3.3,6.4,29.1,29.1,0,0,0-1.6,7.3c-.1,2.2.3,3.5,1.1,3.9,5.2-.2,9.8-3.4,13.9-9.6A18.7,18.7,0,0,0,902.8,368.5Zm-7-10.1a7.7,7.7,0,0,1,5.8-.2c2.1.3,4.5,1.5,7.2,3.9a21.2,21.2,0,0,1,4.5,6.8,6.4,6.4,0,0,1-.8,6.9,18.9,18.9,0,0,0-3,4.1,14,14,0,0,0-1.4,3.8c-.1.7-2.3,9.3-6.7,25.8-3.9,13.4-7.8,21.1-11.7,23.2a9.4,9.4,0,0,1-7.5-.4c-4.5-2-7.6-5.9-9.4-11.7-.8-2.7-.9-4.2-.5-4.5a2.3,2.3,0,0,1,2.3,0,2.6,2.6,0,0,1,2,1.8,12.7,12.7,0,0,0,2.2,3.6c1.1,1.6,1.9,2.4,2.4,2.5q3.6,1.7,5.7.3a15.5,15.5,0,0,0,3.5-4.4,47.3,47.3,0,0,0,3.4-8.4c3.6-12.8,5.9-20,6.7-21.6l-2.5,2.3a23.7,23.7,0,0,1-6.4,4.4c-.5.7-1.8,1.1-3.9,1.1a16.2,16.2,0,0,1-5.8-.7,13.4,13.4,0,0,1-3.4-2.3,16.1,16.1,0,0,1-1.6-3.1c-.7-1.6-.8-3.9-.4-6.8a40.8,40.8,0,0,1,2.3-8.8,47.9,47.9,0,0,1,7.8-10.7C890.2,361.5,893.2,359.2,895.8,358.4ZM221.5,540.2l.5-2.7c-.1-.5.2-1.9,1-4.3s3.7-9.5,6.3-18.2c0-1,.7-1.6,2-1.7a3.2,3.2,0,0,1,2.4,0,7.2,7.2,0,0,1,2,2.5c1.3,1.3,1.2,3.6-.4,7a48.4,48.4,0,0,0-2.7,7.7,55.2,55.2,0,0,0-3,8.2,21.9,21.9,0,0,1-1.7,5.2c-.8,3.5-1.5,5.6-2.2,6.2s-1.5.2-2.8-1.1a8.4,8.4,0,0,1-2.1-4.6A6.8,6.8,0,0,1,221.5,540.2Zm17.2-56.9c1.9-1.3,3.9-.5,5.8,2.5a6.5,6.5,0,0,1,.6,4.1,14.3,14.3,0,0,1-2.8,4.4c-2.4,3.1-4.7,3.7-7,1.7a4.3,4.3,0,0,1-1.7-3.2,4.8,4.8,0,0,1,.1-2.1c.7-.1,1.5-.8,2.4-2.2a7.2,7.2,0,0,0,1.3-3.5A1.6,1.6,0,0,1,238.7,483.3Zm12.4,23.1a2.9,2.9,0,0,1-1.6-.9,3.3,3.3,0,0,1-.5-1.6,4.6,4.6,0,0,1,1.1-2.3c.7-1,1.4-1.5,1.9-1.4h3.9a19.9,19.9,0,0,0,4.1-.5,2.6,2.6,0,0,0,1.5-1.4,38.6,38.6,0,0,1,3.2-7c2.6-5,4.7-8.2,6.2-9.4s3.4-1.1,5.6.7a5.6,5.6,0,0,1,1,2.1c.1.3-.1,1-.8,2.2s-1.5,2.8-2.7,4.8l-2.3,4.1c-1.5,2.1-1.7,3.2-.7,3.4s3.6,0,7.7-.6,6.4.4,6.8,3.5,0,3.3-.6,3.7-2.7.7-6,.6a57.2,57.2,0,0,1-7.9.8,17.8,17.8,0,0,0-4.4.3c-1,.2-1.8,1-2.5,2.4a8.5,8.5,0,0,0-.9,1.4c-.5,1.1-1.6,3.1-3.2,6.1a120,120,0,0,0-4.7,17.5c-.7,4.6-.8,7.4-.4,8.2s1.9,1.3,4.5,1.6c4.4.5,9.2-.7,14.3-3.7l3.5-2.1c.8-1.4,1.7-.9,2.7,1.3a6.1,6.1,0,0,1-.3,2.2,5.9,5.9,0,0,1-1.4,2.2,12.1,12.1,0,0,1-3.8,2.8c-6.5,4.2-12.8,5.6-18.9,4.4a8.3,8.3,0,0,1-4.2-2.7,13.3,13.3,0,0,1-2.7-4.6l-.7-1c-.5-.4-.7-2.6-.5-6.6a51.7,51.7,0,0,1,.9-8.5,74.3,74.3,0,0,1,2.4-7.1c1.1-3.1,1.8-5,2.1-6l3.5-7.5Zm80.1.7.6-3.9a4.1,4.1,0,0,1,1.3-2.5c1.3-.6,2.7-.3,4.4,1.2s2,2.3,2,3.1-.7,2.6-2,5.8a96.6,96.6,0,0,0-6.4,19,2.1,2.1,0,0,0-.5,1.3,9.7,9.7,0,0,1-.4,2.4l-.6,3.2c-.1,1.1.1,1.9.7,2.3a2,2,0,0,0,2.2-.2,3,3,0,0,1,1-.9,18.3,18.3,0,0,0,3.1-3.7,4.8,4.8,0,0,1,1.4-2.3,2.2,2.2,0,0,0,1-1.7c0-.5,1.3-2.5,3.9-6.2s4.6-7.9,5.5-9.1,1.5-2.1,1.8-2.6.4-1,.5-1.2a1.1,1.1,0,0,0,.1-.5l.6-.6.4-.3H353a3.8,3.8,0,0,1,2.4.5,2.6,2.6,0,0,1,.7,1.4,5,5,0,0,1,1.3,3.8l-.6,1.9a15.8,15.8,0,0,1-1.8,6.1,75.8,75.8,0,0,0-2.3,14c-.2,4.9-.1,7.5.5,7.8s1.6-.3,3-2,2.6-3.5,3.8-5.2a28.6,28.6,0,0,1,3.1-4.1,32,32,0,0,0,4-5.7,21.9,21.9,0,0,1,1.4-3.7,15.4,15.4,0,0,0,1.6-3.9,3.2,3.2,0,0,1,.6-1.7,53.7,53.7,0,0,0,3.6-6.6c.6-2.4,1.8-3.9,3.6-4.4s2.9-.1,3,1.4v.9c-.7,4.2-2.5,9.3-5.3,15.4a104.6,104.6,0,0,1-8.6,16.4,9.7,9.7,0,0,0-1.9,2.1,4.6,4.6,0,0,0-.7,1.8c0,.3-.8,1.1-2.4,2.3s-3.1,2.4-4.6,3.4a5.7,5.7,0,0,1-6.6.6,8,8,0,0,1-4-4.8,33.6,33.6,0,0,1-1.1-9.9v-6.2c-1.3,1.6-2.8,3.7-4.5,6.2a53.5,53.5,0,0,1-5.7,8.6c-1.9,2.3-3.5,3.7-4.5,4s-2.5.2-4.7-.5-3.2-1.6-3.6-2.5-.4-3.6-.1-8,.9-7.4,1.6-8.7l.2-1.3a.6.6,0,0,0-.2-.5C328,516.3,330.3,509.1,331.2,507.1Zm99,11.3a20.6,20.6,0,0,1,.8,5.2c0,1.4-.3,5.2-.7,11.1a71.2,71.2,0,0,0-1.2,7.9,4.6,4.6,0,0,0,1.8,2.7c2.5,2.1,2.6,3.7.3,4.9a7.9,7.9,0,0,1-3.7.5,5,5,0,0,1-2.3-1.3,26.1,26.1,0,0,1-1.7-2l-.9-1.5a15.1,15.1,0,0,1-1.1-3.2c-.1-.7-.2-1.6-.3-2.6a26.9,26.9,0,0,1,.3-5.2,41.5,41.5,0,0,0,.4-4.2q1.5-6.5.9-8.4c-.2-1.5-.5-2.2-.9-2.2s-4.1,1.6-8.5,5.8A191.3,191.3,0,0,0,399,540.8q-4.7,6.6-5.1,6.6a7,7,0,0,1-3.9-1.3c-1.6-1-2.5-2-2.5-3s3.6-12.3,10.9-33.7c.4-1.2,1.5-4,3.2-8.3s2.7-6.8,2.9-7.3,1-2.5,2.2-5.6c2.9-7.2,4.7-12.1,5.5-14.5a5.4,5.4,0,0,1,.9-3.6h1.8c0-.2.3,0,.9.5s3.1,2.9,3.1,3.8-.2,6.2-2.6,12.3c-.8,1-1.8,3.3-3.1,6.9a61.8,61.8,0,0,1-3,7.3c-.6,1.2-2.2,4.7-4.8,10.7A136,136,0,0,0,400,526c-.9,2.2-1.2,3.6-.9,4.1s1.4-.2,3.1-2.3c8.1-8.5,13.3-13.4,15.7-15s4.2-2.3,5.3-2.2,2.3,1.3,3.8,3A14.9,14.9,0,0,1,430.2,518.4Zm29.9,2.5a4.9,4.9,0,0,0,.9,3,2.8,2.8,0,0,0,2.3,1.2c2.6,0,4.8-1.3,6.7-3.9a15.3,15.3,0,0,0,3.4-7.4c.5-2.3.2-3.8-.7-4.5s-5,.1-8.8,3.5a28.5,28.5,0,0,0-5.2,5.7l-1.7,2.7a5.2,5.2,0,0,1,2.1-.4C459.7,520.7,460.1,520.7,460.1,520.9Zm-5.5,6c-2,5.5-3.1,9.6-3.1,12.2s.3,4.7,1,5.9,2.2,1.6,4.2,1.7a17.2,17.2,0,0,0,5-.7,27.1,27.1,0,0,0,5.6-3.5l4.4-2.5a1.5,1.5,0,0,0,1-.7,3,3,0,0,1,2.7.4A2.6,2.6,0,0,1,477,542a13,13,0,0,1-2.3,3.4c-1.4,1.5-2.5,2.4-3.2,2.4l-1.9,1.1h.1a2.9,2.9,0,0,1-2.3,1.5h-1c-.4.7-1.5,1.4-3.5,2.1a15.6,15.6,0,0,1-5.5,1,11.8,11.8,0,0,1-9.4-4.3,15.3,15.3,0,0,1-3.3-10.9c.2-6.3,2.4-13.1,6.3-20.4,5.6-10.2,11.7-15.3,18.4-15.3A14.4,14.4,0,0,1,475,504a9.1,9.1,0,0,1,5.4,6.2,14.3,14.3,0,0,1-.3,6.6c-2,6.3-5.6,10.9-10.6,13.7a9.3,9.3,0,0,1-5.2,1.3c-4,0-6.9-1.3-8.8-3.9Zm65.9-10.5a11.7,11.7,0,0,1,4.3-1.4c.8,0,2,.8,3.7,2.3a11.1,11.1,0,0,1,3.3,3.9,12,12,0,0,0,.4,3.1,24.1,24.1,0,0,1,.3,6.2c-.1,3.1-.4,4.8-1,5.2a.5.5,0,0,0,.6.6v.7c-.9,0-1,.8-.2,2.4a11.7,11.7,0,0,0,2.4,3.5,2.8,2.8,0,0,1,.9,2.6c-.2.9-.9,1.5-2.3,1.8-3.4,0-5.7-1.6-7.1-4.8a27.7,27.7,0,0,1-1-6.2c-.2-2.4-.2-3.9.1-4.4a9.3,9.3,0,0,0,.4-4.1c0-2.4-.4-3.6-1.2-3.9s-1.7-.1-3.1.8c-10.2,6.3-17.4,11.3-21.6,14.9a33.3,33.3,0,0,0-4,5.7,1.4,1.4,0,0,1-1.1.7c-.8.4-2.1-.1-3.7-1.5a30.1,30.1,0,0,1-3-3.5,36.8,36.8,0,0,1,.8-4.8,28.8,28.8,0,0,1,1.4-4.7c.4,0,.8-.6,1.3-1.7l1.3-2.5a73.7,73.7,0,0,1,3.4-8.9,24.3,24.3,0,0,0,3.5-10.3.8.8,0,0,1,.3-.9,1.2,1.2,0,0,1,.9-.6c1.6-1.4,3.1-1,4.8,1.2s2.4,4.5,2,6.7-1.6,5.3-4.1,9.4a29,29,0,0,0-1.8,4.9l7.2-4.9a36.1,36.1,0,0,1,5.6-4.2C517.2,517.8,519.3,516.6,520.5,516.4Zm107.7-45.3c4.8-.5,8-.7,9.7-.4a4.3,4.3,0,0,1,3.5,2.1c1,3.6.2,5.3-2.4,5s-5,.6-10.6.8-9.4,1.1-9.8,1.8a3.5,3.5,0,0,0-.9,1.1l-.8,1.1c.2.9-.3,2.9-1.3,5.9s-2.1,6.2-3.1,9.6c-2.8,8.4-4.5,13.2-5.1,14.5a20,20,0,0,0-1.2,4.1c-1.7,5.9-3.6,11.9-5.6,18s-3.2,10.5-4,13.4l9.5-.9a68.1,68.1,0,0,1,8.8-.4,2.7,2.7,0,0,1,2.6,1.9c2.3,3,1.8,4.8-1.3,5.5a28.1,28.1,0,0,1-7.2.4c-7.2.2-11.8.5-13.7.7s-3,.8-3.1,1.6-1.3,1.5-3.7.5-5-2.2-11.7-2a8.2,8.2,0,0,1-5.1-.8c-1.5-.7-2.1-1.7-1.8-2.8s3.8-3.4,10.8-3.5h6.8l1.3-2.6c.7-2,1.4-4.3,2.2-7.1l3-9.2q4.5-13.3,4.8-15a71.6,71.6,0,0,0,4.3-13.8c4-12.4,5.7-18.7,5-19a52.7,52.7,0,0,0-7.1.5c-3.8.4-5.9.6-6.4.9s-1.1.7-2.2.4a3.1,3.1,0,0,1-1.9-1.8c-.3-1.5,0-2.5.8-3.1a23.3,23.3,0,0,1,6.1-2.3,41.8,41.8,0,0,1,9.8-2.1q4.9-.5,7.5-2.7a11.9,11.9,0,0,1,4.5-.8C620.3,471.2,623.2,471.4,628.2,471.1Zm81.6,68.4-.7,2v.6c0,.5-1.2,1.7-3.5,3.9-5.5,5-9.9,6.1-13.2,3.2s-3.3-5-3.2-9.3a49.4,49.4,0,0,1,3-15.5c.3-1.1.5-1.7.5-1.8s0-.4-.3-.7-1.2.6-2.3,1.7A70.5,70.5,0,0,0,678.5,536c-3.8,5.1-5.8,8.5-5.8,10.1a3.2,3.2,0,0,1-1.9,3.1,4.5,4.5,0,0,1-3.9-.4,5.9,5.9,0,0,1-2.6-3.1,39.6,39.6,0,0,1-.1-9,121.6,121.6,0,0,1,1.8-13.5c1-4.6,2.8-11.1,5.4-19.4,4.4-12.3,6.7-18.6,7-19s1.5-2.5,2.6-5.6,1.8-5.3,1.8-6.2a4.1,4.1,0,0,1,1.3-2.8l1.3-1.3a4.8,4.8,0,0,1,2.7,1,3.8,3.8,0,0,1,2,2.2,8.9,8.9,0,0,1,.5,5.8,60,60,0,0,1-4.4,10.2,96.7,96.7,0,0,0-6.2,14.3c-1.5,4.5-3.2,9.7-4.9,15.6s-2.5,9.1-2.5,10.1.4,1.2,1.2.9a4.9,4.9,0,0,0,1.9-1.6c.4-.7,2-2.3,4.9-5,7.6-6.8,11.9-10.2,13.1-10.2a5.2,5.2,0,0,1,3.4,1.2,6.6,6.6,0,0,1,2.1,2.7l.6,1c.3.5.6.7.6.8s.3,6-2.6,14.6c-1.7,6.9-2.4,10.7-1.9,11.3h.4l4.2-2.4c4.2-2.7,7.1-3.6,8.7-2.9A1,1,0,0,1,709.8,539.5Zm37.8-24.8c-.4-1-.8-1.5-1.3-1.6-3-.5-7.8,4-14.6,13.7-4.7,6.8-7.1,11.6-7.1,14.3l.6,1.3c1,0,3.4-1.3,7.3-4a47.6,47.6,0,0,0,7.4-6l3.7-3.9a18.2,18.2,0,0,0,4.1-7.4C748.4,518.4,748.4,516.2,747.6,514.7Zm-7-7.1a13.5,13.5,0,0,1,3.5-1.4,13,13,0,0,1,3.5,1.5,8.8,8.8,0,0,1,2.7,1.1c2.3,1.7,3.9,5.3,4.7,10.9q1.3,4.3,0,5.7l-.7.9c0,.1,0,.2.2.4a4.6,4.6,0,0,1-.6,1.8c-1.6,4.6-2,8.2-1.4,10.9s1.9,3.1,3.7,3.3,3.7-.5,5.7-2.3,4-2.4,4-1.7a1.6,1.6,0,0,0,1.1.7c.5,0,.8.2.9.5s.1,1.8-.7,3.2-2,2.2-2,2.6a17.3,17.3,0,0,1-1.9,1.8,11.1,11.1,0,0,1-6,1.5,10.2,10.2,0,0,1-5.4-1.4,16.3,16.3,0,0,1-3.5-3.8,19.9,19.9,0,0,1-2.2-4.4l-.6-1.3-3.8,2.4-3.1,2.9a17.3,17.3,0,0,0-2.6,2.3,1.6,1.6,0,0,1-1.3.6h-1.3c0,.6-.8,1.3-2.6,2.1a11.1,11.1,0,0,1-4.4,1,6.4,6.4,0,0,1-5-1.4,7.4,7.4,0,0,1-3.2-4.3c-.6-2.9.3-6.9,2.7-12.3a72.9,72.9,0,0,1,9.2-15C734,511.8,737.5,508.9,740.6,507.6Zm81.8-36.3c.5,0,1.1.4,2,1.1a4.1,4.1,0,0,1,1.6,2.3c0,2.9-1.8,8.5-5.4,16.9s-5.7,13.9-6.5,16.2-1.5,4.2-2.2,5.8-1.2,2.8-1.6,3.8a31.9,31.9,0,0,0-1,3.5,49.9,49.9,0,0,1-2.1,6c-1.1,2.8-1.9,5-2.5,6.6a25.5,25.5,0,0,1-1.2,3.3c-.1.6-.4,1.4-.7,2.5s-.7,1.8-.8,2.2l-.4,2a8.2,8.2,0,0,0-.3,1.8,13.6,13.6,0,0,1-.1,1.8,11.5,11.5,0,0,0,.1,1.9,16.3,16.3,0,0,1,.1,2.4,1.9,1.9,0,0,1-1,2,3.8,3.8,0,0,1-2.1.4,20.6,20.6,0,0,1-2.7-1.9c-.8-1.4-1.3-3.8-1.3-7.3a105.6,105.6,0,0,1,3-12.8c1.8-6.2,3-10.2,3.8-12s.6-3.3.3-3.7-1.3-.9-3-1.1a11.3,11.3,0,0,0-8.9,3c-2.7,2.3-5.7,6.1-9.1,11.3s-4.5,9.3-3.5,12.4,3.8,1.5,8-.7l4.9-2.2c1,0,1.4.6,1.4,1.7a2.2,2.2,0,0,0,1.3,2.1c.5.5-.2,1.4-2.2,2.8a63.2,63.2,0,0,1-5.4,3.6,19.6,19.6,0,0,1-6.2.9,9.3,9.3,0,0,1-4.7-1.7c-4.8-2.9-5.5-9.4-2-19.4,2.2-5.3,6.2-10.9,11.8-16.7,1.4-1.3,4.2-2.7,8.5-4s7.5-1.1,9.6.3,2.6.3,3-.1,2.6-5.7,6.5-15.8,6.1-15.3,6.4-15.9.5-1.3.9-2.2a16.2,16.2,0,0,1,.8-2,2.3,2.3,0,0,1,.5-1.1ZM272.6,652.5a2.9,2.9,0,0,1-1.6-.9,3.7,3.7,0,0,1-.5-1.6,4.3,4.3,0,0,1,1.1-2.3c.7-1,1.4-1.5,1.9-1.4h3.9a19.9,19.9,0,0,0,4.1-.5,2.3,2.3,0,0,0,1.4-1.5,52.8,52.8,0,0,1,3.3-6.9c2.6-5,4.7-8.2,6.2-9.5s3.4-1,5.6.8a5.6,5.6,0,0,1,1,2.1c.1.3-.2,1-.8,2.2s-1.5,2.8-2.7,4.8l-2.3,4.1c-1.5,2.1-1.7,3.2-.7,3.4s3.6-.1,7.7-.7,6.4.5,6.8,3.5,0,3.4-.7,3.8-2.6.6-5.9.6a57.2,57.2,0,0,1-7.9.8,31.2,31.2,0,0,0-4.4.2,4.1,4.1,0,0,0-2.5,2.5,5.5,5.5,0,0,0-.9,1.4c-.5,1.1-1.6,3.1-3.2,6.1a110.5,110.5,0,0,0-4.7,17.4c-.7,4.7-.8,7.5-.4,8.3s1.9,1.3,4.5,1.6c4.4.5,9.2-.7,14.2-3.7l3.5-2.1c.9-1.4,1.8-.9,2.8,1.3a6.5,6.5,0,0,1-.3,2.2,6.7,6.7,0,0,1-1.4,2.2,13.8,13.8,0,0,1-3.8,2.8c-6.5,4.2-12.8,5.6-18.9,4.4a8.3,8.3,0,0,1-4.2-2.7,15.7,15.7,0,0,1-2.8-4.6l-.6-1c-.5-.4-.7-2.6-.5-6.6a50.3,50.3,0,0,1,.9-8.5,66,66,0,0,1,2.4-7.1c1.1-3.1,1.8-5,2-6l3.6-7.5Zm87.1,32.4-.8,1.9v.6c0,.5-1.1,1.8-3.5,3.9-5.4,5-9.8,6.1-13.2,3.2s-3.2-5-3.2-9.3a49.4,49.4,0,0,1,3-15.5,6,6,0,0,0,.5-1.8c.1-.2,0-.4-.2-.7s-1.2.6-2.4,1.7a70.3,70.3,0,0,0-11.5,12.4c-3.9,5.2-5.8,8.5-5.8,10.1a3.2,3.2,0,0,1-2,3.1,4.2,4.2,0,0,1-3.9-.4,5.8,5.8,0,0,1-2.5-3.1c-.4-1.4-.4-4.4-.1-8.9a103.3,103.3,0,0,1,1.8-13.6,198.4,198.4,0,0,1,5.3-19.4c4.5-12.3,6.8-18.6,7.1-19s1.4-2.5,2.6-5.6,1.8-5.2,1.8-6.2a3.7,3.7,0,0,1,1.3-2.8l1.3-1.3a4.8,4.8,0,0,1,2.7,1,3.9,3.9,0,0,1,1.9,2.2,8.1,8.1,0,0,1,.5,5.9c-.4,1.9-1.9,5.3-4.4,10.2a101.2,101.2,0,0,0-6.1,14.2c-1.6,4.5-3.2,9.8-4.9,15.6s-2.5,9.2-2.5,10.1.4,1.3,1.1.9a4.3,4.3,0,0,0,2-1.5c.3-.7,2-2.4,4.9-5.1,7.5-6.8,11.9-10.2,13.1-10.2a5.2,5.2,0,0,1,3.4,1.2,5.6,5.6,0,0,1,2,2.7,4.2,4.2,0,0,1,.7,1.1c.3.4.5.7.6.7s.3,6-2.6,14.7c-1.7,6.8-2.4,10.6-2,11.2h.4c1.5-.7,2.9-1.6,4.3-2.4,4.1-2.7,7-3.6,8.7-2.8A.8.8,0,0,1,359.7,684.9Zm31.4-17.8a14.8,14.8,0,0,0,4.4-3.2c1.5-1.6,2.3-2.9,2.3-4.1A3.1,3.1,0,0,0,396,657a4.9,4.9,0,0,0-4.3-.5,12.4,12.4,0,0,0-5,2.9,26.2,26.2,0,0,0-4.3,4.7c-1.1,1.4-1.6,2.3-1.3,2.6s1.7,1,4.1,1.1A14.4,14.4,0,0,0,391.1,667.1Zm-.3,20.9.3-.2.3-.2c.2,0,.3-.1.3-.2l2.2-2.1c.9-.9,1.6-1.4,2-1.4a1.6,1.6,0,0,1,1.3.7l1.1.7c1.3,0,1.1,1.2-.7,3.4a24.3,24.3,0,0,1-6.5,5.8,11.4,11.4,0,0,1-9.8,2.7,13.7,13.7,0,0,1-8.9-5.7q-4-5.1-3-16.2.6-7.2,6.3-14.7c3.8-5.1,7.8-8.5,12-10.1a6.2,6.2,0,0,1,3.4-1.1,22.3,22.3,0,0,1,5.2.4,8.2,8.2,0,0,1,5.8,3.1,10.3,10.3,0,0,1,3.2,7.5c-.3,2-1.7,4.4-4,7.1a27.6,27.6,0,0,1-8.4,6.4c-4.9,1.5-8.8,1.2-11.8-.9-1.6-.6-2.6-.5-3.2.4s-1,3-1.5,6.5c-.7,5.9.7,9.2,4.3,9.8l1.5.4,1.3.2,1.2.2H386l1.9-.8a5.4,5.4,0,0,1,1.6-.9Zm79.9,5.1-2,.5a23.6,23.6,0,0,0-4,.9,20.7,20.7,0,0,0-4.3,1.3c-2.3,1-5.5.8-9.8-.8a3.8,3.8,0,0,1-2.1-1.2,6.6,6.6,0,0,1-2.1-2.6c-3.1-4.3-2.4-11.9,2-22.7a66.5,66.5,0,0,1,4.7-7.8c2.2-3.2,3.7-5.1,4.5-5.5a23.4,23.4,0,0,0,4.8-2.1c4.2-2,8.6-1.1,13.1,2.9,2.6,2.3,3.7,4.3,3.1,6,0,.1-.3.4-.8.9l-2.9,2.8c-.7.9-1.6,1-2.8.4a4,4,0,0,1-1.8-3.4c-.2-.6-1.4-1.5-3.5-2.8s-3.7,2.1-6.6,6.3-6.2,8.7-8.1,15.4a7.4,7.4,0,0,0-.1,3.7,6.6,6.6,0,0,0,.9,2.7c.7.4,3.3.2,7.9-.5a50.9,50.9,0,0,0,10.3-2.4c2.6-1.6,5-2.2,7-1.8s1.9,1.3,1.6,2.5-2,2.2-4.8,3.7S470.7,692.2,470.7,693.1Zm64.2-20.2-.6,6.9-.8,4.1h2.1l2.8.7c.8.9,1.5,1.4,2.1,1.4s1.6.7.7,2a5.4,5.4,0,0,1-1.5,1.5q-6.3,4.1-10.2,0c-2.7-2.7-3.4-6.6-2.1-11.8a62,62,0,0,0,.6-8.3c0-1.8-.5-2.7-1.3-2.7s-6.1,2.3-12.3,6.8a56.5,56.5,0,0,0-13.9,13.7c-2.6,3.3-4.6,5-6.1,5.2a4.7,4.7,0,0,1-3.6-1.2c-.9-.9-1.5-1.6-1.5-2.2a15.6,15.6,0,0,1,.5-3.5,215.9,215.9,0,0,1,7.7-26,98.9,98.9,0,0,1,3.9-11.6c1.6-4,3-7.6,4.1-10.7s2.2-6.2,3.3-9.1,1.8-4.9,2.3-6.2,1.3-3.5,1.8-5.1a1.9,1.9,0,0,1,2.1-2.1c1.7,0,3,1.2,3.8,3.6a9.7,9.7,0,0,1-.7,7.6c-1.2,2.6-3.3,8.1-6.4,16.5s-5,13.9-6.4,16.6c0,1.1-.9,3.4-2.7,7a36.3,36.3,0,0,1-1.7,5.8,59.2,59.2,0,0,0-1.9,7.8,32.3,32.3,0,0,1,6.6-7.5c4.7-4,7.7-6.5,8.8-7.2l4-2.7c0-.5.4-.7,1-.7s1.1-.2,1.1-.8,1-1.1,3-1.5a20.6,20.6,0,0,1,4.9-.8,5,5,0,0,1,2.8.7,10.5,10.5,0,0,1,2.3,2.8C536,665,536.4,668.7,534.9,672.9Zm21.9,13.3c0,3,1.5,3.6,4.6,1.8a42.7,42.7,0,0,0,7.7-6.3,83.5,83.5,0,0,0,8-9.2,25.9,25.9,0,0,0,4.5-9.9,11,11,0,0,0-1.6-3c-.8-1.1-1.5-1.8-2.1-1.8-2.7,0-6.7,3.7-12.2,11.2l-4.3,6.3a42.4,42.4,0,0,0-2.7,5.6A20.9,20.9,0,0,0,556.8,686.2Zm33.1-1.6a4.5,4.5,0,0,1,3.9-.3c1.3.4,1.9,1.4,1.9,3s-1.1,3-3.3,4.5a9.4,9.4,0,0,1-5.9,2.3q-3.9,0-7.5-13.8c-7.1,6.9-10.7,10.4-10.9,10.7s-3.3,3.2-7.1,4.6a8.6,8.6,0,0,1-4.3.1c-1.7-.2-2.5-.5-2.5-.9s-.1-.6-.2-.6-.1-.1-.5-.1a5.9,5.9,0,0,0-2.3-1.6,6.5,6.5,0,0,1-1.2-3.9,31.1,31.1,0,0,1,1.2-6.8c.4-4.3,3-9.7,7.7-16.3s9-11.3,12.9-13.6,5.6-2.7,9.3-.7,5,4.4,7,8.5a39.9,39.9,0,0,1,0,9.9,41.5,41.5,0,0,0-1.6,11.5,5.1,5.1,0,0,0,.5,3.5C587.6,685.2,588.6,685.2,589.9,684.6Zm56.2-21.5c1,0,1.5,1.2,1.4,3.7a19.3,19.3,0,0,1-.8,5.7c0,1.4-.6,4.7-1.9,9.8s-2.2,10.5-.7,12.6a2.2,2.2,0,0,1-.1,2.1,2.5,2.5,0,0,1-2.2,1c-1.2,0-2.4-1-3.8-3a13.4,13.4,0,0,1-1.9-7.2,47.7,47.7,0,0,1,2.2-12.2q2.3-8,1.8-8.4c-.2-.3-1.5.2-4,1.5a17.6,17.6,0,0,0-5.1,3.8,11,11,0,0,0-2,1.7l-5.6,4.5a119,119,0,0,0-10.3,9.5,2.3,2.3,0,0,1-3.4,1.2,5.6,5.6,0,0,1-2.7-1.7,4.6,4.6,0,0,1-1.2-3c0-3.1,2.7-10.3,8-21.7a11.2,11.2,0,0,0,1.3-5.3c0-2.1.4-3.5,1.3-4.4s.9-.9,1.8-.5a4.7,4.7,0,0,1,2.2,1.8c2.3,2.3,2.5,6,.6,11.3l-1.9,4.4,6.6-3.8,3.2-2.4c2.4-1.9,3.9-2.9,4.4-2.9a3.5,3.5,0,0,0,2.2-1.3l1.2-.6a3,3,0,0,0,1.9-.9c.7-.6,2-.5,3.9.4s3,1.8,3,3.1Zm43,30.5-2,.5a23.6,23.6,0,0,0-4,.9,15.8,15.8,0,0,0-4.3,1.3c-2.3,1-5.5.7-9.8-.8a3.8,3.8,0,0,1-2.1-1.2,8.3,8.3,0,0,1-2.1-2.6c-3.1-4.3-2.4-11.9,2-22.8a76.6,76.6,0,0,1,4.7-7.7c2.2-3.3,3.7-5.1,4.5-5.6a29.2,29.2,0,0,0,4.8-2c4.2-2.1,8.6-1.1,13.1,2.8,2.6,2.4,3.7,4.4,3.1,6s-.3.5-.8.9l-2.9,2.8c-.7.9-1.6,1-2.8.4a4,4,0,0,1-1.8-3.3c-.2-.6-1.3-1.6-3.5-2.9s-3.7,2.1-6.6,6.3-6.2,8.8-8.1,15.4a7.8,7.8,0,0,0-.1,3.8,8.1,8.1,0,0,0,.9,2.7c.7.3,3.3.2,7.9-.5a44,44,0,0,0,10.3-2.5c2.6-1.6,5-2.2,7-1.8s1.9,1.4,1.6,2.5-2,2.3-4.8,3.7S689.1,692.6,689.1,693.6Zm47.3-35.1c-1.3-1.5-3.2-1.3-5.8.6a13.8,13.8,0,0,0-3.9,2.8,63.7,63.7,0,0,0-4.3,5c-1.2,1.5-1.6,2.4-1.1,2.7s0,.3.2.4l1.2.2h2.6l2.6-.3,2.6-.5,1.8-1.1q1.5-.9,4.5-5.1C737.4,660.9,737.3,659.3,736.4,658.5ZM708,665.4l2.2-.3c1.2,0,1.8.3,1.8.8s1.5.8,2.8-.9a9.1,9.1,0,0,0,1.3-2.2,30.5,30.5,0,0,1,5.3-5.9,31.7,31.7,0,0,1,6-4.5,13.7,13.7,0,0,1,7.4-1.4c2.2.1,4.5,1.5,6.8,4a6,6,0,0,1,2.3,5.2,10.6,10.6,0,0,1-1.1,6c-.4,1.3-1.8,3-4.2,5a25.5,25.5,0,0,1-6.5,4.1,49.2,49.2,0,0,1-6.8.9c-2.8,0-4.6-.1-5.5-.6s-1,.3-1.4,1.7-.6,3.4-.9,6-.1,4,.2,4.6a6.5,6.5,0,0,0,1.1,1.2c3,3.1,6.2,3.3,9.5.5a34.4,34.4,0,0,0,3.4-3.3l2.9-2.7c.7-1.2,2.1-1.5,4.4-.9a2.6,2.6,0,0,1,1.1,2.2,6.6,6.6,0,0,1-1,2.9,14.1,14.1,0,0,1-3.5,4.3,47.4,47.4,0,0,1-4.4,3.5,16.2,16.2,0,0,1-13.7,1q-5.1-2.1-6.6-5.7c-1-2.5-1.2-5.7-.8-9.6a63,63,0,0,0,.6-7.2,2.9,2.9,0,0,0-.9-2.1,15.9,15.9,0,0,1-1.3-1.3,4.8,4.8,0,0,1-1.6-2.2,4.1,4.1,0,0,1,.2-1.9Q707.4,665.4,708,665.4Zm44.3,17.5a11.9,11.9,0,0,1,3.4-1.5,7.4,7.4,0,0,1,3.5.9c2.6,1.7,3.7,3.5,3.3,5.5s-2,3.7-5.2,5.3a7.3,7.3,0,0,1-7.6-.7C746.6,689.4,747.5,686.2,752.3,682.9Z" style="fill:#806d73;opacity:0.8500000238418579;isolation:isolate"/><path d="M355.8,176.1l7.8-103.7,313.2,31.2L669,207.3Z" style="fill:#f2f2f3;opacity:0.5699999928474426;isolation:isolate"/></svg>