<svg id="Layer_1" data-name="Layer 1" xmlns="http://www.w3.org/2000/svg" xmlns:xlink="http://www.w3.org/1999/xlink" viewBox="0 0 1024 1024"><defs><linearGradient id="linear-gradient" x1="-201.3" y1="1013.3" x2="844.45" y2="188.02" gradientTransform="matrix(1, 0, 0, -1, 206, 1142)" gradientUnits="userSpaceOnUse"><stop offset="0.01" stop-color="#f3e2e4"/><stop offset="0.01" stop-color="#faf5e3"/><stop offset="0.85" stop-color="#fbfbed"/></linearGradient></defs><title>im scared i always feel alone</title><path d="M982.4,800.3,86.7,909.9,17.5,220.2,930.6,143Z" style="fill:url(#linear-gradient)"/><path d="M341.8,225.9l-6.4-97,312.4-11.6,6.3,96.9Z" style="fill:#fff;opacity:0.5699999928474426;isolation:isolate"/><path d="M261.3,362.9a45.9,45.9,0,0,1,9.5-1.7,4.1,4.1,0,0,1,3.7,1.6c1.5,3.5.9,5.2-1.7,5.3a75.1,75.1,0,0,1-10.3,2.1c-6,1.3-9.1,2.3-9.4,3.1a4.1,4.1,0,0,0-.8,1.2l-.6,1.1c.3.9.1,3-.5,6.1s-1.3,6.3-1.9,9.8c-1.6,8.6-2.7,13.6-3.1,14.9a17,17,0,0,0-.6,4.2c-.9,6.1-2,12.2-3.2,18.4s-1.8,10.8-2.2,13.8l9.3-2.1a51.9,51.9,0,0,1,8.6-1.5,2.8,2.8,0,0,1,2.8,1.4q3.9,4-.6,5.7a39.8,39.8,0,0,1-7.1,1.3c-7,1.1-11.5,2-13.4,2.5s-2.8,1.1-2.8,1.9-1,1.6-3.5,1-5.3-1.6-11.9-.4a8.5,8.5,0,0,1-5-.2c-1.7-.5-2.4-1.4-2.2-2.5s3.3-3.9,10.1-4.8l6.8-1,.9-2.8c.4-2,.9-4.4,1.3-7.2s1.1-6,1.7-9.5c1.8-9.2,2.7-14.3,2.8-15.3,1-2.9,1.8-7.7,2.5-14.2,2.3-12.7,3.1-19.2,2.4-19.4a56.5,56.5,0,0,0-7,1.5c-3.6.8-5.7,1.3-6.1,1.7s-1,.8-2.1.6a2.5,2.5,0,0,1-2.1-1.5c-.5-1.4-.4-2.5.3-3.2a26.2,26.2,0,0,1,5.7-3,44,44,0,0,1,9.4-3.3c3.2-.8,5.6-2,7.1-3.7a12.7,12.7,0,0,1,4.3-1.3C253.5,364,256.5,363.8,261.3,362.9Zm12.2,40.9a15.6,15.6,0,0,0,.7-5.4,3.4,3.4,0,0,1,1.1-3,4.1,4.1,0,0,1,2.8-1.2,4.4,4.4,0,0,1,4.3,4.1,13.4,13.4,0,0,1-.4,5.1c-2.5,9.7-3.8,14.9-3.7,15.8s.9-.2,2.2-1.6,2.6-3,3.9-4.6a57.8,57.8,0,0,1,6.9-6.5,49.3,49.3,0,0,1,7.6-5.3h1.3a1.3,1.3,0,0,1,.8.2c.3-.1.6.1,1,.4l1,.3,2.6,2.3q1.5,1.1,1.2,4.5l-1.5,8.4c5.7-6.3,9.5-10.1,11.5-11.5,3.8-2.7,7-2.6,9.4.2a4,4,0,0,1,1.9,2.6c.2.8.3,1.4.4,1.6l.5,4.4c1.4,6.5,2.2,10,2.5,10.4a8.6,8.6,0,0,0,3.5.6c2,0,3.1.4,3.4,1.4s-.1,1.8-1.3,2.8-4.9,2.1-8.4,1.4-5.6-4.6-6.3-11.1a50,50,0,0,0-.7-6c-.2-1.5-.6-2.1-1.2-2.1s-3.2,1.9-6.5,5.3a95,95,0,0,0-10.5,13,6.8,6.8,0,0,1-.9,1.4l-.9,1a3,3,0,0,1-.9.8l-1,.4c-.6.2-1.9-.3-3.9-1.6s-1.2-1.5-1.1-2.8l1.9-8.8c1.8-6.9,2.5-10.3,1.9-10.2a7.8,7.8,0,0,0-3,1.7,4.9,4.9,0,0,0-2.3,2.3c-.3.1-.8.6-1.6,1.7a11.3,11.3,0,0,1-2.1,2.2,36.8,36.8,0,0,1-3.6,5.1c-2,2.6-3.5,4.3-4.2,5.2a29.9,29.9,0,0,0-2.5,3.6l-2.4,4c-.5,1.1-.9,1.6-1,1.6-2.7.3-4.5-.7-5.5-3.2s-1-3-.8-5.4.4-4.6.6-6.3a40.6,40.6,0,0,0,.3-4.2c.1-1.2.2-2.1.3-2.9a13.2,13.2,0,0,1,.2-1.6,9.2,9.2,0,0,1,.3-1.8l.8-3.3A49.5,49.5,0,0,0,273.5,403.8Zm132.2-26a8.9,8.9,0,0,1,1.8,4.2c.2,1.4-.3,3.3-1.4,5.9a24.5,24.5,0,0,1-.8,2.9,8,8,0,0,0-.4,1.6,2,2,0,0,1-2.8,1.4,5.8,5.8,0,0,1-3.1-3.1c-.9-2.2-1-4.1-.1-5.8s1.3-2.6-.4-2.4-2.8,1.2-5.5,3.2a31.2,31.2,0,0,0-6.1,5.7,13.2,13.2,0,0,0-2.5,4,6.1,6.1,0,0,0-.1,3.1,16.8,16.8,0,0,0,1.4,4.6,9.1,9.1,0,0,0,2.2,3.2,35.9,35.9,0,0,0,3.7,5c3.2,5.1,4.3,8.9,3.5,11.4s-3.8,4.3-8.8,5.3a17.1,17.1,0,0,1-9-.1,9.1,9.1,0,0,1-5.5-4.6c-1.2-1.9-1.3-3.1-.4-3.7a3.9,3.9,0,0,1,2.1.5l2.2.7c2,1.4,4.5,1.6,7.4.7s4.4-2.2,4.6-3.9a32.4,32.4,0,0,0-1.9-4.3c-5.2-5.7-8.2-11.2-8.9-16.6-.4-3.6.9-7,4.1-10A34,34,0,0,1,395.6,375a14.6,14.6,0,0,1,7.1.4A5.7,5.7,0,0,1,405.7,377.8Zm39.8,37.6-2,.8a18.7,18.7,0,0,0-3.8,1.4,20.3,20.3,0,0,0-4,1.8c-2.1,1.3-5.4,1.5-9.8.5a3.5,3.5,0,0,1-2.2-.9,7.6,7.6,0,0,1-2.4-2.3c-3.6-3.8-3.9-11.4-1-22.6a67.1,67.1,0,0,1,3.6-8.3c1.8-3.5,3.1-5.5,3.8-6a25,25,0,0,0,4.4-2.7c3.9-2.5,8.3-2.2,13.3,1.2,2.9,1.9,4.2,3.7,3.8,5.4s-.2.5-.7,1l-2.4,3.2a2.1,2.1,0,0,1-2.8.7,3.8,3.8,0,0,1-2.2-3.1c-.2-.5-1.5-1.3-3.8-2.3s-3.3,2.5-5.7,7.1-5,9.4-5.9,16.2a7.3,7.3,0,0,0,.4,3.7,5.1,5.1,0,0,0,1.2,2.5c.7.3,3.3-.2,7.7-1.5a54,54,0,0,0,9.9-3.7q3.5-3,6.6-2.7c1.4.3,2.1,1.1,1.9,2.2s-1.7,2.5-4.3,4.3S445.4,414.5,445.5,415.4Zm47.8-37c-2-3.2-3.9-4.7-5.8-4.4s-4.4,2.8-7.6,7.8a77,77,0,0,0-8.4,17l-2.3,7.7c.1.9,1.2.8,3.2-.5a27.6,27.6,0,0,0,5-4.2c6.5-7.2,11.1-13.4,13.7-18.4Zm-27.7,35.8a6.7,6.7,0,0,0-1.5-1.3,3.2,3.2,0,0,1-1-1.6,2.7,2.7,0,0,0-.8-1.6c-1.7-1.2-.2-7.7,4.4-19.6a10.2,10.2,0,0,0,1.6-2.9,8.9,8.9,0,0,1,1.4-2.4,1,1,0,0,1,.2-.9.9.9,0,0,1,.8-.6v-.8c0-.8,1.1-2.8,3.5-6.1,6.5-8.8,12-11.9,16.5-9.2.6.6,4.5,3.4,11.8,8.3l-1.5,6.7a17.8,17.8,0,0,0,3.7,15.3,6.5,6.5,0,0,0,2.9,2.4,8.8,8.8,0,0,0,4,1c1.9.1,3,1,3.2,2.6a2.7,2.7,0,0,1-1.9,3.2c-5.6,1.5-10.9-1.3-15.9-8.6a12.1,12.1,0,0,1-3-5.3,35.9,35.9,0,0,1-3.5,5.4C480,411.8,471.7,417.2,465.6,414.2Zm62.4-7.6c-.7,1.2-1.4,1.9-2.1,2s-1.8-.4-3.3-1.6a4.6,4.6,0,0,1-1.9-1.7c-.7-1.1-.5-6.5.5-16.3-.1-2.1.9-6.8,2.7-13.9s3.4-12.1,4.8-14.7,3.2-1.6,5-.2,1.3,1.7,1,3.4a97.2,97.2,0,0,1-2.9,10.7c-1.4,4.8-2,7.2-1.8,7.1s.6-.2,1.1-.6,2.7-4.3,5.9-7.5a81.6,81.6,0,0,1,6.2-5.8,26.1,26.1,0,0,1,2.8-1.7l1.8-1.1a10.6,10.6,0,0,1,5.7-1.7c2.2-.1,3.6.5,4.3,1.7s.7,1.5,1.8,1.9l.7.7c.1.7-.9,1.3-3.1,1.8A20.9,20.9,0,0,0,550,372a12.1,12.1,0,0,1-2,1.5l-2,1.4-1.7,1.4-2,1.6-1.7,1.5-1.8,1.7-1.6,1.6a33.5,33.5,0,0,0-6.2,10.1c-.5.7-1,2.3-1.3,5a24.2,24.2,0,0,0-.3,4.7A13.3,13.3,0,0,1,528,406.6Zm49.4-34.4a4.9,4.9,0,0,0,1.3,2.8,2.5,2.5,0,0,0,2.4.8c2.6-.3,4.6-1.9,6.2-4.6a16.8,16.8,0,0,0,2.3-7.7c.2-2.4-.3-3.8-1.3-4.4s-4.9.8-8.2,4.6a38.7,38.7,0,0,0-4.4,6.2l-1.3,2.9a7.6,7.6,0,0,1,2-.6C577.1,372,577.4,372,577.4,372.2Zm-4.6,6.5c-1.3,5.7-1.8,9.9-1.5,12.5a13,13,0,0,0,1.8,5.6c.9,1,2.3,1.4,4.3,1.1a14.6,14.6,0,0,0,4.9-1.2,28,28,0,0,0,5-4.2l4-3.1c.4,0,.7-.3,1-.8a2.9,2.9,0,0,1,2.7.1,2.4,2.4,0,0,1,1.8,2.1,10.3,10.3,0,0,1-1.9,3.6c-1.1,1.7-2,2.6-2.7,2.8l-1.8,1.3h.1c-.6,1.2-1.3,1.8-2,1.9h-1.1c-.2.7-1.3,1.6-3.1,2.5a16.3,16.3,0,0,1-5.3,1.7,11.8,11.8,0,0,1-9.8-3,15.3,15.3,0,0,1-4.7-10.3c-.6-6.3.7-13.3,3.6-20.9,4.2-10.8,9.5-16.6,16.2-17.5a12.8,12.8,0,0,1,5.6.7,9.7,9.7,0,0,1,6.2,5.4,16.6,16.6,0,0,1,.5,6.5c-1.2,6.5-4.1,11.5-8.7,14.9a8.7,8.7,0,0,1-4.9,1.9c-4,.5-7-.4-9.1-2.7Zm61.1-17.3c0-.6-.9-.8-2.5-.7q-7.5-.1-14.1,10.2A40,40,0,0,0,613,380c-2.1,6.4-2.3,9.9-.5,10.4s5.9-3.2,10.7-8.9a76.6,76.6,0,0,0,7-11.4C632.8,365,634,362.1,633.9,361.4Zm6.3,17.3a68.4,68.4,0,0,0,.7,9.6q.9,6.4-.3,6.6a4.3,4.3,0,0,1-3.8-1.3,11.5,11.5,0,0,1-2.3-3,10.6,10.6,0,0,1-.7-4.5l-.3-5.9H633c-.1-.1-.4,0-.8.5l-.9.8L630,383l-1.5,1.6c-6.4,9.4-12.1,14-17.3,14s-6.4-3.5-6.6-10.8a37.8,37.8,0,0,1,4.1-17.3,27.9,27.9,0,0,1,5.3-8.2,25.8,25.8,0,0,1,7.6-6.1c4-2.1,7.8-2.9,11.4-2.2s3.5.5,3.9-1a19.3,19.3,0,0,0,.8-3.3c.4-1.7.8-3,1.1-3.9,1.3-6.9,2.6-12.3,3.8-16.4l2.8-9.7c1-2.9,1.9-4.6,2.8-5.3s2.1-.4,3.5.8a5.7,5.7,0,0,1,1.5,3.7,30.7,30.7,0,0,1-1.5,6.9c-1.6,3.5-3.8,10.8-6.6,21.7,0,.4-.3,1.9-.7,4.5s-.7,4.9-.9,7.3-.4,3.7-.9,3.8Q640.6,365.8,640.2,378.7Zm88.9-76.4c4.7-1.1,7.8-1.7,9.5-1.6a4,4,0,0,1,3.7,1.6c1.5,3.4.9,5.2-1.7,5.2s-4.8,1.3-10.3,2.1-9.1,2.3-9.5,3.1l-.7,1.2-.6,1.2c.3.9.1,2.9-.5,6s-1.3,6.4-1.9,9.8c-1.6,8.7-2.7,13.6-3.1,14.9a14.2,14.2,0,0,0-.6,4.2c-1,6.1-2,12.3-3.2,18.4s-1.8,10.8-2.2,13.8l9.3-2.1a51.9,51.9,0,0,1,8.6-1.5,2.8,2.8,0,0,1,2.8,1.4q3.9,4-.6,5.7A32.4,32.4,0,0,1,721,387c-7,1.2-11.5,2-13.4,2.5s-2.8,1.1-2.8,1.9-1,1.6-3.5,1-5.3-1.5-11.9-.4a8.5,8.5,0,0,1-5-.1c-1.7-.6-2.4-1.5-2.2-2.6s3.3-3.8,10.1-4.8l6.8-1,.9-2.7c.4-2.1.9-4.5,1.3-7.3s1-6,1.7-9.4c1.8-9.2,2.7-14.4,2.8-15.4a79.9,79.9,0,0,0,2.5-14.2c2.3-12.7,3.1-19.2,2.4-19.3a48.8,48.8,0,0,0-7,1.4c-3.7.8-5.7,1.4-6.1,1.7s-1,.8-2.1.6a2.5,2.5,0,0,1-2.1-1.5c-.5-1.4-.4-2.5.3-3.2a26.2,26.2,0,0,1,5.7-3,42.1,42.1,0,0,1,9.4-3.3c3.2-.8,5.6-2,7.1-3.6a11.2,11.2,0,0,1,4.3-1.4C721.3,303.5,724.3,303.3,729.1,302.3Zm17.4-5.2a9.4,9.4,0,0,1,3.1-2,7.2,7.2,0,0,1,3.5.5c3.2,1.4,4.5,3.3,4,5.7a30.8,30.8,0,0,1-.8,6.8c-.5,2.1-.8,3.5-.9,4-.4,2.8-2.1,6.5-5.2,11,.1.4-.3.7-1.2,1l-1.7.7a3.8,3.8,0,0,1-3-.5c-.3-.8.4-2.9,2.1-6.5a52.1,52.1,0,0,0,3.4-9.3,1.4,1.4,0,0,1,0-.9,5.3,5.3,0,0,1-4.7-.9C741.7,304.1,742.1,300.9,746.5,297.1ZM758,337.7l.6-5c1-2.9,2.6-9.1,4.8-18.7s3.3-15.1,3.1-16.3.5-1.9,1.8-2a2.7,2.7,0,0,1,2-.9l2.3,1.7a4.7,4.7,0,0,1,1.8,3.3,25.2,25.2,0,0,1,.3,2.9,6.2,6.2,0,0,0-.1,1.3l-.4,1.8c-.3.8-.5,1.5-.7,2.1a24.1,24.1,0,0,1-1.1,3.5c-.5,1.7-1,3.1-1.4,4.2a36.1,36.1,0,0,1-1,3.8c-.5,1.3-.8,2.3-1.1,3.1a7,7,0,0,0-.3,1.4,4.4,4.4,0,0,1-.1.9,11.6,11.6,0,0,0-.3,1.6l-.8,2.4c-2.4,7.9-3.6,12.3-3.5,13.1a2.4,2.4,0,0,1-.4,1.9c-.4.1-.5.4-.5,1.1v.4c.1.8-.3,3.2-1.2,7-2,12.8-2.9,20.4-2.6,22.7a21,21,0,0,1,.3,4.4,1.9,1.9,0,0,1-.8,1.5c-2.4,1-4.2.2-5.5-2.4s-1.6-6.3-1.2-11.2a19.5,19.5,0,0,0,.7-5.5,53.8,53.8,0,0,1,1.4-9,69.4,69.4,0,0,1,2-8c.8-.2,1.1-1.1.9-3S757.1,338.5,758,337.7Zm35.9-41.3a8.9,8.9,0,0,1,1.2,2.9,3.6,3.6,0,0,1-.4,2.1c-.3.6-.9,2.2-2,4.9a63.2,63.2,0,0,1-1.6,9.1c-.6,1.8-.9,3-1.1,3.7s-.5,2.5-1.1,5.2-1.5,6.4-2.3,10.9a49.5,49.5,0,0,1-1.8,8.6c-.5,1.1-.8,3.8-1,8.3s-1.2,6.3-1.1,7-.2,2.6-.3,5.2a25.3,25.3,0,0,1-.7,5.4c.1,2.8-1.2,3.7-4,2.7a4.3,4.3,0,0,1-3-3.5,32.7,32.7,0,0,1,.5-8.2,25.1,25.1,0,0,1,1.2-9.4c2-12.2,3-19,3.1-20.2s1.2-5.3,2.1-9.1,1.4-6.4,1.7-7.8.7-4,1.2-7.6,1.1-6,1.7-7.2,1.6-3.6,2-4.5.5-.8,1.4-.8a3.1,3.1,0,0,1,2.4.7C792.6,294.5,793.2,295.1,793.9,296.4ZM329.2,541.7c-2-3.2-3.9-4.7-5.8-4.4s-4.4,2.8-7.6,7.8a81.8,81.8,0,0,0-8.5,17l-2.2,7.7c.1.9,1.2.8,3.2-.5a31.5,31.5,0,0,0,5-4.2c6.5-7.2,11-13.4,13.7-18.5Zm-27.8,35.8a6,6,0,0,0-1.4-1.3,3.2,3.2,0,0,1-1-1.6,2.9,2.9,0,0,0-.9-1.6c-1.6-1.2-.1-7.8,4.5-19.6a16.8,16.8,0,0,0,1.6-2.9,10,10,0,0,1,1.3-2.4,1.6,1.6,0,0,1,.3-.9.9.9,0,0,1,.8-.6v-.8c-.1-.8,1.1-2.8,3.5-6.2,6.5-8.7,11.9-11.8,16.4-9.1.6.6,4.6,3.4,11.9,8.3l-1.5,6.7a17.5,17.5,0,0,0,3.7,15.3,6.8,6.8,0,0,0,2.8,2.4,10.7,10.7,0,0,0,4.1,1c1.9.1,2.9.9,3.1,2.6a2.6,2.6,0,0,1-1.9,3.2c-5.6,1.5-10.8-1.4-15.8-8.6a13.3,13.3,0,0,1-3.1-5.3,29.1,29.1,0,0,1-3.4,5.4C315.9,575.1,307.6,580.4,301.4,577.5Zm58.3-46.2.7-5c1-2.9,2.6-9.1,4.8-18.7s3.3-15.1,3.1-16.3.4-1.9,1.8-2a3.2,3.2,0,0,1,2-1l2.3,1.8a4.7,4.7,0,0,1,1.8,3.3,25.2,25.2,0,0,1,.3,2.9,6.2,6.2,0,0,0-.1,1.3,13.2,13.2,0,0,1-.5,1.8q-.3,1.2-.6,2.1c-.2.7-.5,1.8-1.1,3.5s-1,3.1-1.4,4.2-.6,2.4-1,3.8-.8,2.3-1.1,3.1a8.7,8.7,0,0,0-.3,1.3,4.6,4.6,0,0,1-.1,1c-.1.3-.2.9-.4,1.6s-.4,1.4-.7,2.4c-2.4,7.9-3.6,12.3-3.5,13.1a2.4,2.4,0,0,1-.4,1.9c-.4,0-.6.4-.5,1.1v.4c.1.8-.3,3.2-1.2,7-2,12.8-2.9,20.4-2.6,22.7a21,21,0,0,1,.3,4.4,1.9,1.9,0,0,1-.8,1.5c-2.4,1-4.2.2-5.5-2.4s-1.6-6.3-1.2-11.2a19.5,19.5,0,0,0,.7-5.5,53.8,53.8,0,0,1,1.4-9c1-4.5,1.6-7.1,1.9-8s1.2-1.1,1-3S358.9,532.1,359.7,531.3Zm24.2-5.6v-3.9a3.3,3.3,0,0,1,1-2.6q1.7-1.4,4.5.6c1.4,1.1,2.2,2,2.3,2.8s-.3,2.6-1.2,6a86.1,86.1,0,0,0-3.8,19.5,2,2,0,0,0-.4,1.3,9.3,9.3,0,0,1,0,2.4,31.6,31.6,0,0,0-.3,3.2c.1,1.1.4,1.9,1.1,2.2a1.9,1.9,0,0,0,2.1-.5,4.1,4.1,0,0,1,.8-1,18.8,18.8,0,0,0,2.6-4,5.8,5.8,0,0,1,1.1-2.5,2.1,2.1,0,0,0,.8-1.7c-.1-.5.9-2.8,3-6.6s3.5-8.5,4.2-9.8a16.2,16.2,0,0,0,1.5-2.8c.1-.6.3-1,.3-1.2a1.1,1.1,0,0,0,.1-.5c.2-.5.3-.7.4-.7l.4-.3a.8.8,0,0,1,.6-.2h.6c1.3-.2,2.1-.1,2.4.2a2.5,2.5,0,0,1,.9,1.3,5,5,0,0,1,1.8,3.5l-.4,2a16.7,16.7,0,0,1-1,6.3,71.7,71.7,0,0,0-.4,14c.4,4.9.9,7.4,1.5,7.7s1.5-.6,2.7-2.4,2.1-3.8,3-5.6,1.8-3.4,2.5-4.5a31.7,31.7,0,0,0,3.3-6.1q-.2-.5.9-3.9a14.7,14.7,0,0,0,1-4,2.8,2.8,0,0,1,.4-1.7,42.9,42.9,0,0,0,2.6-7c.3-2.4,1.3-4,3-4.7s2.9-.5,3.2,1a2.2,2.2,0,0,1,.1.9,65.5,65.5,0,0,1-3.2,15.8,115.9,115.9,0,0,1-6.4,17.3,7.1,7.1,0,0,0-1.5,2.2,6.2,6.2,0,0,0-.6,1.9c.1.3-.6,1.1-2,2.6a50,50,0,0,1-4.1,3.9,5.5,5.5,0,0,1-6.4,1.5,8.9,8.9,0,0,1-4.6-4.2,39.4,39.4,0,0,1-2.3-9.7l-.8-6.1c-1,1.8-2.2,4-3.5,6.7a60.7,60.7,0,0,1-4.5,9.2c-1.7,2.6-3,4.1-3.9,4.6s-2.5.4-4.7,0-3.4-1.1-3.9-1.9-.8-3.5-1.1-7.9-.1-7.4.4-8.7v-1.3a.5.5,0,0,0-.3-.5C382,535.2,383.3,527.8,383.9,525.7ZM449,549.9q.6,4.4,4.8,1.2a41.9,41.9,0,0,0,6.7-7.3,83.1,83.1,0,0,0,6.7-10,24.6,24.6,0,0,0,3.2-10.4,9.4,9.4,0,0,0-2-2.7,3.7,3.7,0,0,0-2.3-1.5q-3.9.4-10.5,12.6l-3.4,6.8a37,37,0,0,0-2,5.8C449.3,547.5,448.9,549.3,449,549.9Zm32.4-5.9a4.5,4.5,0,0,1,3.8-.8,2.9,2.9,0,0,1,2.3,2.7c.1,1.5-.7,3.1-2.6,4.9a10.6,10.6,0,0,1-5.6,3.1c-2.6.3-5.6-3.9-9.2-12.7l-9.3,11.9c-.7,1.8-2.9,3.6-6.4,5.5a10.2,10.2,0,0,1-4.2.7q-2.6,0-2.7-.6c0-.4-.1-.6-.2-.6s-.1-.1-.5,0a5.4,5.4,0,0,0-2.5-1.3,6.6,6.6,0,0,1-1.6-3.6,29.2,29.2,0,0,1,.3-6.9c-.2-4.3,1.7-9.9,5.4-17.1s7.5-12.2,11-15,5.2-3.4,9.1-1.9,5.5,3.6,7.9,7.5a34,34,0,0,1,1.3,9.7,40.1,40.1,0,0,0-.1,11.5,5.7,5.7,0,0,0,1,3.4C479.3,545,480.2,544.8,481.4,544Zm22.4-26v12.2c-.9,7.7-.8,11.6.3,11.8,3.2-3.5,7.7-10.3,13.3-20.4,1.8-4.6,2.9-7.9,3.5-9.9s1.1-3,1.9-3.2,1.3-.2,2.5.2,1.7.6,1.7.8l1.4.3c.8,0,1.2.1,1.2.4s-.4,1.8-1.2,4.9-1.1,4.8-1,5.1-.5,3.2-2.2,9.1a81.1,81.1,0,0,1-4.7,17.4c-.7,1.8-4.1,13.3-10.1,34.5a6.6,6.6,0,0,1-.7,3.7l-1.7.3c-.1.2-.4.1-1.1-.3s-3.2-2.4-3.2-3.4-.3-6.1,1.8-12.5a35.3,35.3,0,0,0,1.7-5.4,50.1,50.1,0,0,1,1.8-5.7c4.6-11.7,7.5-19.8,8.6-24.3l-5.4,8.1a48.6,48.6,0,0,1-5.2,6.9,5.1,5.1,0,0,1-3.2,1.7c-3.4-.3-5.6-1.5-6.5-3.4-1.2-3.6-1.7-10.4-1.3-20.5.3-4.5.4-7.4.1-8.8a5.3,5.3,0,0,0-2.1-3.3c-2.6-1.8-2.8-3.4-.6-4.9a10.7,10.7,0,0,1,3.7-1,3.5,3.5,0,0,1,2.2,1.2,18.9,18.9,0,0,1,2,2,9.2,9.2,0,0,1,1.2,1.6A14.6,14.6,0,0,1,503.8,518ZM556,538.9l-2.4-.6c-.1-.8-1.5-1.6-4.1-2.4-5.1-3.2-7.6-5.1-7.2-5.8v-.6c-.6.1-1.4-.6-2.3-2.1a14.5,14.5,0,0,1-1.7-4.6,16.6,16.6,0,0,1,1.1-6.6,24.9,24.9,0,0,1,4.2-7.7,64.9,64.9,0,0,1,7.9-7.8c7.2-6.1,12.5-8.4,16.1-6.8a12.6,12.6,0,0,1,6.2,5.6c.7,5.4.3,8.2-1.3,8.4s-.6.4-.5,1.1-.4,1.6-1.5,2.9c-3.4,3.2-5.5,3.7-6.3,1.4-.6-.7-1-1.1-1.3-1.1a1.6,1.6,0,0,1-1-1.5l.6-1.5q.8-.1,2.1-3.3c1-2.2,1.4-3.6,1.3-4.2s-.2-.9-.4-1h-1.1c-6.3,3.8-10.1,6.6-11.5,8.3s-.4,1.1-.5,1.2a.8.8,0,0,1-.6.2c-.1-.6-1.3,1.1-3.5,5.3l-2.2,4.3a4.3,4.3,0,0,0-.7,2.7,10.1,10.1,0,0,1,.2,1.9,1.3,1.3,0,0,0,.1.6,1.1,1.1,0,0,1,.1.5l.5.5.7.4,1,.5,1.2.8c8.5,4.7,13.1,8.1,13.9,10s2.5,4.3,2.1,5.6-1.3,2.6-3.1,3.7a22.5,22.5,0,0,1-7.7,2.7,29.9,29.9,0,0,1-7.9,1,19.6,19.6,0,0,1-4.8-2,12.4,12.4,0,0,1-3.3-2.7c-.2-1.1,0-1.8.5-2l8-.5a36.5,36.5,0,0,0,6.3-1.4c2.3-.9,3.5-1.6,3.7-2.2S556.8,539.5,556,538.9Zm69.5-72.2a38.9,38.9,0,0,1,5.5-7.9,26.3,26.3,0,0,1,5.6-5.1,14.3,14.3,0,0,1,5.3-1.7,6.9,6.9,0,0,1,5.5,1.9,7,7,0,0,1,3.2,4.9c.6,4-.9,9.4-4.2,16-1.7,1.2-2.8,1.5-3.4,1s-.2-.4,0-.8a8.5,8.5,0,0,1,.1-1.3c.4-1.9.6-3.2.8-3.8a5.1,5.1,0,0,0,.1-2.1c.8-5.8.3-8.6-1.2-8.4s-1.9.6-3.3,1.7-2,1.9-2,2.5v.5c-.4-.1-1.8,1.7-4,5.3a65.1,65.1,0,0,0-4.9,9.2,176,176,0,0,0-5.2,18.9h2.1a40,40,0,0,0,6.5-1.5c3.3-1,5.5-1.4,6.8-1.1s2.4,1.1,3.3,2.8.4,2.8-1.7,3.8-6.3,2.2-12.9,3.4c-3.2.1-5,.5-5.4,1.1s-1.1,2.2-1.7,5.7a76.7,76.7,0,0,0-1.1,9.9,62.8,62.8,0,0,0-.1,12.3q.6,6.5,1.8,9c1.7,4.1,1.5,6.6-.4,7.7s-3.3-.7-4.8-3.2a23.6,23.6,0,0,1-3.1-9.7c-1.5-6.3-1.2-17,1-32.1a174.6,174.6,0,0,1,4.5-18.7c2.3-8.1,3.8-12.4,4.4-13.1l.6-.2v-.8a7.4,7.4,0,0,1,.2-1.2l1-2.3Zm46.6,26.2c-1.4-1.3-3.3-.8-5.6,1.4-.8.3-2,1.4-3.5,3.3a37.1,37.1,0,0,0-3.5,5.3c-1,1.7-1.3,2.7-.8,2.9s0,.3.3.3h2.6l1.1-.2,2.5-.7,2.5-.8,1.6-1.3c1-.7,2.3-2.6,3.8-5.7S673.1,493.6,672.1,492.9ZM645,503.4l2.2-.6c1.1-.1,1.8.1,1.8.6s1.7.6,2.7-1.3a9.9,9.9,0,0,0,1-2.3,28.3,28.3,0,0,1,4.5-6.5,32.6,32.6,0,0,1,5.3-5.3,13.5,13.5,0,0,1,7-2.3c2.3-.1,4.7.9,7.3,3.1a6.4,6.4,0,0,1,3,4.8,11.3,11.3,0,0,1-.4,6.1c-.2,1.3-1.3,3.1-3.5,5.4a24.3,24.3,0,0,1-5.8,4.9,47.8,47.8,0,0,1-6.6,1.7c-2.8.5-4.6.5-5.5.2s-1,.4-1.1,1.9a33.9,33.9,0,0,0-.2,5.9c.2,2.5.5,4,.9,4.6a4.7,4.7,0,0,0,1.1,1c3.4,2.7,6.6,2.4,9.5-.7.9-1.1,1.9-2.3,2.9-3.7a29,29,0,0,1,2.5-3.1c.5-1.3,1.9-1.7,4.2-1.4a2.6,2.6,0,0,1,1.4,2,6.5,6.5,0,0,1-.6,3,15.8,15.8,0,0,1-2.9,4.7,50.6,50.6,0,0,1-3.9,4,16.3,16.3,0,0,1-13.4,2.8q-5.2-1.5-7.2-4.8a20.7,20.7,0,0,1-2-9.3,58.9,58.9,0,0,0-.4-7.2,2.9,2.9,0,0,0-1.2-2l-1.4-1.1c-1.1-.8-1.7-1.4-1.8-1.9a4.4,4.4,0,0,1-.1-2C644.4,503.8,644.7,503.4,645,503.4Zm64.5-6a14.1,14.1,0,0,0,4-3.8c1.3-1.7,1.9-3.1,1.7-4.2a3,3,0,0,0-2.1-2.6,5.3,5.3,0,0,0-4.3,0,14.5,14.5,0,0,0-4.6,3.6,34.6,34.6,0,0,0-3.6,5.1q-1.4,2.4-.9,2.7c.4.7,1.8.9,4.2.7A16.6,16.6,0,0,0,709.5,497.4Zm2.4,20.6.4-.3c.1,0,.2,0,.2-.1s.3-.2.3-.3l1.9-2.3c.8-1.1,1.4-1.7,1.8-1.7a1.7,1.7,0,0,1,1.4.5l1.1.6c1.4-.2,1.3.9-.2,3.4a24.5,24.5,0,0,1-5.6,6.5,11.5,11.5,0,0,1-9.4,4,13.6,13.6,0,0,1-9.5-4.5c-3.1-3-4.7-8.1-5-15.5-.3-4.8,1.2-9.9,4.3-15.3s6.6-9.4,10.5-11.5a6.4,6.4,0,0,1,3.2-1.6,29.6,29.6,0,0,1,5.1-.3,8.8,8.8,0,0,1,6.1,2.3,10.6,10.6,0,0,1,4.2,7c-.1,2.1-1.1,4.6-3.1,7.5a26.4,26.4,0,0,1-7.4,7.5q-6.9,3-11.7.6c-1.6-.4-2.7-.1-3.2.8a26.6,26.6,0,0,0-.5,6.5c.1,6,1.9,9,5.4,9.2l1.6.2a5.2,5.2,0,0,1,1.3,0h1.2a2.1,2.1,0,0,0,1.2-.3,5.2,5.2,0,0,0,1.8-1l1.5-1.1Zm25.9-46.4.5-2.1a7.3,7.3,0,0,1,.7-3.1,27.9,27.9,0,0,0,1.7-4.8,60.8,60.8,0,0,1,2.7-7.1,15.7,15.7,0,0,1,2.4-5.2h-.1a3.2,3.2,0,0,1,2.8-2c1.6-.2,2.4-.1,2.6.2s.6,1.2.8,3a6.1,6.1,0,0,1-.6,4h.1a32.2,32.2,0,0,1-1.6,4.7c-.4.6-1.6,4.1-3.7,10.6-3.4,9.9-5,15.4-4.8,16.4s-1.1,3.4-1.1,3.5l-1.5,10.5c-.9,3.8-1.4,5.9-1.4,6.4-.9,3.9-1.1,9.2-.8,16v.5c0,1.8-.2,3.1-.8,3.7a2.5,2.5,0,0,1-2.6.8c-2.2-.4-3.6-2.2-4.1-5.5.5-12.6,1.4-22.2,2.9-28.8.4-1.7.7-3.2,1-4.5C734.6,480,736.3,474.3,737.8,471.6ZM325.7,674.7a2.1,2.1,0,0,1-1.6-.7,2.1,2.1,0,0,1-.7-1.4,4.1,4.1,0,0,1,.7-2.5c.6-1.1,1.2-1.6,1.7-1.6l3.8-.5a19.8,19.8,0,0,0,4-1,2.6,2.6,0,0,0,1.3-1.6,42.2,42.2,0,0,1,2.2-7.3c2-5.3,3.6-8.6,5-10.1s3.2-1.5,5.5.1c.8.9,1.3,1.5,1.3,1.9a4.1,4.1,0,0,1-.5,2.2c-.4,1.3-1.1,3-2,5.1a41.3,41.3,0,0,0-1.8,4.4c-1.2,2.2-1.2,3.3-.2,3.3s3.5-.5,7.4-1.6,6.4-.3,7.2,2.6.5,3.3-.1,3.8-2.6,1-5.8,1.4-5.2,1.3-7.7,1.7a15,15,0,0,0-4.3.9,3.6,3.6,0,0,0-2.1,2.7,3.4,3.4,0,0,0-.7,1.5l-2.4,6.4a120.8,120.8,0,0,0-2.4,17.8c0,4.7.2,7.4.7,8.2s2.1,1,4.7.9c4.4,0,8.9-1.8,13.5-5.5l3.2-2.4c.6-1.5,1.6-1.2,2.8.9a8,8,0,0,1,0,2.2,5,5,0,0,1-1.1,2.3,10.3,10.3,0,0,1-3.3,3.3c-5.9,4.9-12,7.2-18,6.7a7.3,7.3,0,0,1-4.6-2.1,12.4,12.4,0,0,1-3.2-4.1l-.8-.9c-.6-.4-1-2.5-1.4-6.5a51.9,51.9,0,0,1-.2-8.5c.2-1.7.7-4.2,1.4-7.3s1.2-5.1,1.3-6.1l2.5-7.8Zm90,20.6-.6,2v.7c.1.4-.9,1.8-2.9,4.2-4.7,5.6-8.9,7.3-12.6,4.9s-3.8-4.5-4.4-8.8a51.4,51.4,0,0,1,1-15.6,18.8,18.8,0,0,0,.3-1.9.7.7,0,0,0-.4-.6c-.4.1-1.1.7-2.1,2a72.4,72.4,0,0,0-9.7,13.7c-3.2,5.6-4.6,9.1-4.4,10.6a3.2,3.2,0,0,1-1.6,3.3,3.9,3.9,0,0,1-3.8.2,5.5,5.5,0,0,1-3-2.8q-.7-2-1.2-8.7a102.9,102.9,0,0,1,0-13.6c.4-4.7,1.3-11.3,2.8-19.8,2.7-12.6,4.2-19.2,4.4-19.6s1.1-2.6,1.8-5.8,1.2-5.5,1-6.4a4,4,0,0,1,1-3l1.1-1.4a4.8,4.8,0,0,1,2.8.7,3.8,3.8,0,0,1,2.2,1.9,8.7,8.7,0,0,1,1.2,5.7c-.2,1.9-1.2,5.4-3,10.6a89.7,89.7,0,0,0-4.2,14.8c-.9,4.7-1.9,10-2.8,16s-1.3,9.3-1.2,10.3.6,1.1,1.3.7a4.2,4.2,0,0,0,1.7-1.8,38.1,38.1,0,0,1,4.2-5.6c6.5-7.6,10.4-11.5,11.6-11.7a5,5,0,0,1,3.4.7,6.9,6.9,0,0,1,2.4,2.4,4.9,4.9,0,0,1,.8,1l.7.6c1.3,1,1,5.9-.7,14.8-.8,7-.9,10.8-.4,11.3s.2.1.4.1l3.8-3c3.8-3.1,6.5-4.5,8.2-3.9A1,1,0,0,1,415.7,695.3Zm9,.5v-2.7a19.5,19.5,0,0,1,.5-4.3,155.5,155.5,0,0,0,3.8-18.8c-.1-1,.5-1.7,1.8-1.9a2.5,2.5,0,0,1,2.3-.3,7.6,7.6,0,0,1,2.4,2.1c1.4,1.2,1.6,3.5.5,7a39.8,39.8,0,0,0-1.7,8,55.8,55.8,0,0,0-1.9,8.4,22.3,22.3,0,0,1-1,5.3c-.3,3.6-.8,5.7-1.4,6.4s-1.5.4-2.9-.7a7.8,7.8,0,0,1-2.6-4.3A6.5,6.5,0,0,1,424.7,695.8Zm9.5-58.2c1.8-1.6,3.8-1,6.1,1.7a6.2,6.2,0,0,1,1.1,4c-.1,1-.8,2.5-2.2,4.7s-4.1,4.2-6.7,2.5a4.2,4.2,0,0,1-2-2.9,4.3,4.3,0,0,1-.2-2.1c.7-.2,1.4-1,2-2.5a5.6,5.6,0,0,0,.9-3.6A1.5,1.5,0,0,1,434.2,637.6Zm40.1,13.6a10.3,10.3,0,0,0,3,.5,8.3,8.3,0,0,1,6.9,7.2,9.9,9.9,0,0,1-1,4.5,3.9,3.9,0,0,1-2.5,2.4c.5-.1-.1-.4-1.7-1l-.3.3a4,4,0,0,0-.7-1.2,6.2,6.2,0,0,1-.5-2.9,5,5,0,0,0-.3-2.4c-.1-.2-.8-.3-1.9-.3a12.5,12.5,0,0,0-5,1.6,24.6,24.6,0,0,0-6.2,4.1c-4,3.5-6.5,6.9-7.6,10.4a6.8,6.8,0,0,0-1.1,3.3c.2,1.6,3.1,3.3,8.7,5s9,3.6,10.2,5.9a2.2,2.2,0,0,1,.2,2.2l.3.2c1.1,1.4.9,3.1-.7,4.9a14.2,14.2,0,0,1-6.7,4.1,21.9,21.9,0,0,1-6.2,1.7c-4.2.6-7.5-.6-9.8-3.4-1.3-1.3-1.7-2.5-1.3-3.6s1.4-1.2,2.5-.1a10.8,10.8,0,0,0,5.3.3,18.9,18.9,0,0,0,6.7-2.2c2.6-1.5,3.2-2.5,1.9-3.1a30.4,30.4,0,0,1-10.4-3.5c-3.5-2.1-5.6-4.1-6.2-6-2-5-1.1-10.3,2.9-16,2.3-2,3.8-3.1,4.6-3.3h0c1.9-2.6,6.1-5.4,12.5-8.6ZM529,681.5q.4,4.5,4.8,1.2a37.3,37.3,0,0,0,6.7-7.2,83.1,83.1,0,0,0,6.7-10,24.6,24.6,0,0,0,3.2-10.4,11.7,11.7,0,0,0-2-2.7,4.5,4.5,0,0,0-2.3-1.6c-2.6.4-6.2,4.6-10.5,12.7l-3.4,6.8c-.5.7-1.1,2.6-2,5.8S528.9,681,529,681.5Zm32.3-5.8a4.6,4.6,0,0,1,3.8-.8,2.8,2.8,0,0,1,2.3,2.7c.2,1.4-.7,3.1-2.6,4.9a9.5,9.5,0,0,1-5.5,3c-2.6.4-5.6-3.9-9.2-12.6-6.1,7.7-9.2,11.6-9.3,11.9s-2.9,3.6-6.4,5.5a10.2,10.2,0,0,1-4.2.7c-1.8-.1-2.6-.2-2.7-.6s-.1-.6-.2-.6h-.5a6.5,6.5,0,0,0-2.5-1.2,6,6,0,0,1-1.6-3.7,34.2,34.2,0,0,1,.2-6.9c-.1-4.2,1.7-9.9,5.5-17s7.4-12.2,11-15,5.1-3.4,9-2,5.5,3.7,8,7.6c.7,2,1.1,5.2,1.3,9.6a40.8,40.8,0,0,0-.1,11.6,5.2,5.2,0,0,0,.9,3.3C559.2,676.6,560.2,676.5,561.3,675.7ZM578.1,645l.7-5q1.5-4.2,4.8-18.6c2.2-9.7,3.3-15.2,3.1-16.3s.4-1.9,1.8-2.1a2.7,2.7,0,0,1,2-.9l2.3,1.8a4.5,4.5,0,0,1,1.8,3.2,28.5,28.5,0,0,1,.3,3,5.7,5.7,0,0,0-.1,1.3c-.1.3-.2.9-.4,1.7s-.5,1.6-.7,2.2-.5,1.8-1.1,3.5-1,3-1.4,4.2-.6,2.4-1,3.7-.8,2.4-1.1,3.2a6.6,6.6,0,0,0-.3,1.3,1.8,1.8,0,0,1-.2.9,6.1,6.1,0,0,1-.3,1.6,19.1,19.1,0,0,1-.7,2.4c-2.4,8-3.6,12.3-3.5,13.2a2.1,2.1,0,0,1-.4,1.8c-.4.1-.6.5-.5,1.2v.3c.1.9-.3,3.2-1.2,7-2,12.8-2.9,20.4-2.6,22.8a20.7,20.7,0,0,1,.3,4.4,1.9,1.9,0,0,1-.8,1.5c-2.4,1-4.2.2-5.5-2.4s-1.6-6.4-1.2-11.3a19.1,19.1,0,0,0,.7-5.5,56.9,56.9,0,0,1,1.4-9c1-4.4,1.6-7.1,1.9-8s1.2-1.1,1-3A4.8,4.8,0,0,1,578.1,645Zm39.4,22.1c4.1-8.2,5.3-15.4,3.6-21.7-.7-2.2-1.3-3.4-2.1-3.5-2.5-.7-5.1.7-7.7,4.1s-5.4,11.9-7,22.2c-.7,4.7.2,7.6,2.7,8.6s5.5-1.3,8.8-6.6A30.7,30.7,0,0,0,617.5,667.1Zm-4.8-32c1.8-1,3-1.6,3.7-1.6a5.6,5.6,0,0,1,3.3,1.1,10.5,10.5,0,0,1,4.9,1.9,9.9,9.9,0,0,1,3.1,4.5c2.5,6.3,2.2,13.7-.8,22.2a43.4,43.4,0,0,1-3.6,7.7,59.3,59.3,0,0,1-5.7,6.9,18.3,18.3,0,0,1-8.3,5.8,8.9,8.9,0,0,1-5.4-1c-4.2-2.5-6.3-5.2-6.5-8.1a6.1,6.1,0,0,0-.1-1.4,5.6,5.6,0,0,0-.4-1.5c-.6-.4-.8-.7-.7-1s.4-.4.3-.5.7-.8.1-1.5-.4-2.1-.2-4.6a41.1,41.1,0,0,1,1.3-6.8,43.2,43.2,0,0,1,5.9-13.4C606.4,639.7,609.4,636.8,612.7,635.1Zm67.6,3.5c1.1-.1,1.7,1.1,1.9,3.6a21.4,21.4,0,0,1,0,5.7c.2,1.3-.1,4.6-.7,9.9s-.8,10.6,1,12.4a2,2,0,0,1,.1,2.1c-.2.7-.9,1.1-2,1.3s-2.5-.7-4.1-2.5a13,13,0,0,1-2.8-6.9c-.4-2.8-.2-6.8.6-12.2s1-8.3.7-8.5-1.5.3-3.7,2a16.9,16.9,0,0,0-4.7,4.4l-1.7,1.9c-.9,1-2.5,2.8-4.9,5.1s-5.2,6-8.9,10.8a2.4,2.4,0,0,1-3.2,1.6,6,6,0,0,1-2.9-1.4,4.1,4.1,0,0,1-1.5-2.7c-.4-3.1,1.3-10.6,5-22.4a12.2,12.2,0,0,0,.6-5.4c-.3-2.1,0-3.6.7-4.5a1.3,1.3,0,0,1,1.7-.8,4.5,4.5,0,0,1,2.4,1.5c2.6,2,3.3,5.6,2.1,11l-1.4,4.6,6.1-4.5,2.8-2.8c2.2-2.2,3.5-3.3,4-3.4a3.4,3.4,0,0,0,2-1.6l1.1-.8a2.6,2.6,0,0,0,1.8-1.1c.6-.7,1.8-.7,3.8-.1s3.2,1.4,3.4,2.7Zm36.8-.2a12.3,12.3,0,0,0,3.9-3.7c1.4-1.8,2-3.2,1.8-4.3a3.2,3.2,0,0,0-2.1-2.6,5,5,0,0,0-4.3.1,11.4,11.4,0,0,0-4.6,3.6,26.5,26.5,0,0,0-3.6,5.1q-1.4,2.4-.9,2.7t4.2.6A13.4,13.4,0,0,0,717.1,638.4Zm2.4,20.7.4-.3.2-.2c.2-.1.2-.2.2-.3a16.6,16.6,0,0,0,1.9-2.3c.9-1,1.5-1.6,1.9-1.7a2.2,2.2,0,0,1,1.4.5,2.4,2.4,0,0,0,1.1.6c1.3-.1,1.3,1-.2,3.4a23.8,23.8,0,0,1-5.7,6.6,11.4,11.4,0,0,1-9.3,3.9,13.9,13.9,0,0,1-9.5-4.4c-3.1-3-4.7-8.2-5-15.6q-.4-7.2,4.2-15.3c3.1-5.5,6.6-9.3,10.6-11.5a5.9,5.9,0,0,1,3.2-1.5,21.9,21.9,0,0,1,5.1-.3,8.5,8.5,0,0,1,6.1,2.3,10.4,10.4,0,0,1,4.2,7c-.1,2.1-1.1,4.6-3.1,7.5a26.1,26.1,0,0,1-7.4,7.4q-6.9,3.1-11.7.6c-1.6-.4-2.7-.1-3.2.8s-.6,3.1-.5,6.6c0,5.9,1.8,9,5.4,9.1l1.6.2h2.5l1.2-.3a7.7,7.7,0,0,0,1.8-1l1.4-1.1Zm20.5-8.5a11.5,11.5,0,0,1,3.1-2,8.6,8.6,0,0,1,3.5.5c2.8,1.3,4.1,2.9,4,4.9s-1.4,4-4.4,5.9-5.3,1.7-7.6.3S735.6,654.4,740,650.6Z" style="fill:#806d73;opacity:0.8500000238418579;isolation:isolate"/></svg>