<svg id="Layer_1" data-name="Layer 1" xmlns="http://www.w3.org/2000/svg" xmlns:xlink="http://www.w3.org/1999/xlink" viewBox="0 0 971.4 787"><defs><linearGradient id="linear-gradient" x1="-120.64" y1="1034.97" x2="868.95" y2="139.59" gradientTransform="matrix(1, 0, 0, -1, 206, 1142)" gradientUnits="userSpaceOnUse"><stop offset="0.01" stop-color="#f3e2e4"/><stop offset="0.01" stop-color="#f6e4e7"/><stop offset="0.85" stop-color="#fdeded"/></linearGradient></defs><title>you never knew</title><path d="M960.5,883.8,34,831.1,95.5,105.2,1005.4,169Z" transform="translate(-34 -96.8)" style="fill:url(#linear-gradient)"/><path d="M370.3,199.2l8.4-102.4,301.8,12.4-5.8,103.4Z" transform="translate(-34 -96.8)" style="fill:#fff;opacity:0.5699999928474426;isolation:isolate"/><path d="M289.7,318.3a4,4,0,0,1,2.9-1.5c.5.2.8.9,1,2a21.2,21.2,0,0,0,.9,2.7,2.3,2.3,0,0,1,.2,1.8c-.1.6-1.1,1.8-3.1,3.5s-5.2,4.2-9.7,8.3-8,7.5-10.6,10.3c-8.5,8.5-14.1,13.9-16.9,16l-2.9,2.6-2.8,8.9c-.6,1.7-1.5,4.1-2.7,7.1s-3,8.1-4.2,11.1-2.2,5.9-3.2,8.8a35,35,0,0,1-2.1,5.8c-.5.8-1,1.1-1.7.9a21.2,21.2,0,0,1-4.1-2.9,3.2,3.2,0,0,1-1-2.8l.5-1.8L232,394a31.3,31.3,0,0,1,4.9-14.1c.2-2.7,1.8-7.1,4.9-13.3l2.6-6.1q-6.6-10-7.2-18.9c-1-4.5-.9-11.5.3-21.1a19.6,19.6,0,0,1,2.8-9.3l.5-.9c1.5-1.6,2.7-.9,3.6,2.2a24.2,24.2,0,0,1,.5,8.3c-.8,19,.6,29.8,4.3,32.5a4,4,0,0,0,3.4-.3c3-1.9,8.2-6.7,15.7-14.3s12.7-12.9,15.4-15.5A30.7,30.7,0,0,1,289.7,318.3Zm14.5,53.8a16.1,16.1,0,0,0,1-5.6c.2-2.4-.1-3.8-.7-4.2-2.4-1.6-5.3-1.1-8.7,1.4s-9.3,9.6-14.2,18.8c-2.2,4.2-2.2,7.2-.3,9.1s6.9.4,13.3-5.6A46.7,46.7,0,0,0,304.2,372.1Zm-25-2.7c6.5-9.2,13.6-14.4,21.4-15.7a13.3,13.3,0,0,1,4-.4,6,6,0,0,1,2.9,2.3,9.6,9.6,0,0,1,4.1,3.4,10.3,10.3,0,0,1,1.4,5.5c.3,6.7-2.5,13.7-8.2,20.8a45,45,0,0,1-6,6.2,52.4,52.4,0,0,1-7.2,4.3,22.2,22.2,0,0,1-10.4,3.1c-1.5-.1-3.1-1.1-4.9-2.9-3-3.6-4.2-6.8-3.5-9.8l.5-3c-.4-.5-.5-.8-.3-1.1l.5-.4q.9,0,.6-1.2c-.1-.9.4-2.4,1.4-4.7A30.6,30.6,0,0,1,279.2,369.4Zm45.7,1.9a52.6,52.6,0,0,1,5.3-9.8c2-2.8,3.5-4.1,4.8-4s2.4,1.6,3.4,4.5a2.3,2.3,0,0,1-.9,3.1,39.8,39.8,0,0,0-5.1,8.6c-2,4.2-3.7,8-5,11.6s-1.5,5.2-.9,5.2q3.8.3,9.6-4.5c2.6-2.3,5.9-6.2,10-12s6.4-9,6.8-9.9a41.3,41.3,0,0,1,3-4.5,4.6,4.6,0,0,1,2.3-1.4H360a5.6,5.6,0,0,1,1.8,1.3,2.2,2.2,0,0,1,1.1,2.2l-2.1,3.9c-6.7,12.7-10.4,20.8-11.3,24.2-1.2,5.1-.5,9.1,2.1,11.7,1,.8.8,1.6-.5,2.5a5,5,0,0,1-2.8,1.1c-1.4.6-3.1-.6-5.1-3.5a13,13,0,0,1-1-7.3c.3-3.3.3-5-.1-5.1s-2.2,1.2-5.6,4.1q-7.7,6.6-11.4,6c-.9,0-1.9-.8-2.9-2.1a14.9,14.9,0,0,1-2.2-5.1c-.4-2.1-.2-5.1.8-9.2A73.5,73.5,0,0,1,324.9,371.3Zm108.3,2.9c2.2-.8,3.6-1.2,4.4-1.1s2,.9,3.6,2.6,2.7,3,3,4.1a11.3,11.3,0,0,0,.2,3.1,26.7,26.7,0,0,1-.1,6.3c-.3,3.1-.8,4.8-1.4,5.1s.2.7.6.7v.6c-1,0-1.1.8-.5,2.5a17,17,0,0,0,2.3,3.7,2.9,2.9,0,0,1,.7,2.6c-.2.9-1.1,1.4-2.5,1.7a7.5,7.5,0,0,1-6.8-5.3,30.6,30.6,0,0,1-.6-6.3c0-2.5.2-3.9.5-4.4a9.7,9.7,0,0,0,.6-4.1c.2-2.4-.1-3.7-.9-4s-1.7-.2-3.1.5c-10.7,5.7-18.2,10.3-22.7,13.6a31.9,31.9,0,0,0-4.4,5.4,1.4,1.4,0,0,1-1.1.6c-.9.4-2.1-.2-3.7-1.7a33.9,33.9,0,0,1-2.7-3.7,24.4,24.4,0,0,1,1.1-4.7,25.4,25.4,0,0,1,1.8-4.7c.3,0,.8-.6,1.4-1.6a19.3,19.3,0,0,1,1.4-2.4,72,72,0,0,1,4-8.7,24.4,24.4,0,0,0,4.2-10.2.9.9,0,0,1,.4-.8,1,1,0,0,1,.9-.5c1.7-1.4,3.2-.9,4.7,1.5a8.7,8.7,0,0,1,1.6,6.9q-.6,3.2-4.8,9a31.4,31.4,0,0,0-2.1,4.8l7.6-4.4a37.4,37.4,0,0,1,5.8-3.8C429.8,375.4,432,374.4,433.2,374.2Zm53.3-.7c-1.2-1.6-3.2-1.5-5.9.2a12.2,12.2,0,0,0-4.1,2.6,39.9,39.9,0,0,0-4.6,4.6c-1.3,1.5-1.8,2.4-1.4,2.7s0,.3.3.4l1.1.3,1.4.2h1.2l2.6-.2,2.6-.3,1.9-.9c1.1-.6,2.7-2.2,4.9-4.9S487.3,374.4,486.5,373.5Zm-29,5h2.2c1.2.1,1.8.4,1.7.9s1.5.9,2.9-.7a19.1,19.1,0,0,0,1.5-2.1,30.4,30.4,0,0,1,5.7-5.6,33.9,33.9,0,0,1,6.3-4.1,13.7,13.7,0,0,1,7.5-1q3.3.6,6.6,4.5a6.8,6.8,0,0,1,2,5.4,11.7,11.7,0,0,1-1.6,6c-.5,1.3-2,2.8-4.5,4.6A21,21,0,0,1,481,390a42.5,42.5,0,0,1-6.9.5q-4.2-.2-5.4-.9c-.6-.4-1.1.1-1.6,1.6a42.5,42.5,0,0,0-1.3,5.9c-.3,2.4-.4,4-.1,4.6l1,1.3q4.2,5,9.6,1.2l3.6-3.2c1.3-1.2,2.4-2,3-2.5s2.3-1.4,4.5-.6a2.8,2.8,0,0,1,1,2.3,8.3,8.3,0,0,1-1.3,2.9,12.5,12.5,0,0,1-3.8,4,32.4,32.4,0,0,1-4.6,3.2c-4.8,2.1-9.4,2.2-13.8.1s-5.4-3.7-6.2-6.2-.8-5.7-.1-9.6a56.5,56.5,0,0,0,1-7.2,2.9,2.9,0,0,0-.8-2.2l-1.2-1.4c-.9-1-1.4-1.7-1.4-2.3a4.4,4.4,0,0,1,.3-1.9C456.8,378.8,457.1,378.5,457.5,378.5Zm76-.7c0,.2.6.3,1.9.1s1.5-.5,2.5.2,1.2,1.4,1.1,2-.8,2.1-2.4,4.5-2.6,3.7-3.2,4l-1.4,1.2c-.8,2.2-5.7,8.2-14.7,18.1a17,17,0,0,1-6,4.7c-.9.6-1.6.9-1.9.8s-1-.7-1.8-1.7c-2.8-3.1-3.6-12.3-2.6-27.7a133.3,133.3,0,0,0,1.6-13.3c.8-.8,2-.7,3.8.3a4.1,4.1,0,0,1,1.8,3.6,130.1,130.1,0,0,1-.5,13.1q-1.8,12.2-1.2,13.2c.5.7.9.9,1.4.8s1.4-1,2.9-2.3c2.9-3.9,5.8-7.5,8.5-10.7s4.6-5.4,5.3-6.3a23.8,23.8,0,0,1,2.7-3.1C532.4,378.3,533.1,377.7,533.5,377.8Zm32.1,10.5a12.5,12.5,0,0,0,4.6-2.9c1.7-1.5,2.5-2.7,2.6-3.9a2.9,2.9,0,0,0-1.6-2.9,5,5,0,0,0-4.2-.9,12.7,12.7,0,0,0-5.3,2.7,32.2,32.2,0,0,0-4.6,4.3c-1.2,1.4-1.7,2.3-1.5,2.6s1.7,1.2,4.1,1.4A13.6,13.6,0,0,0,565.6,388.3Zm-1.7,21,.4-.2h.2q.3-.2.3-.3a24.2,24.2,0,0,0,2.4-1.9c1-.9,1.7-1.3,2.1-1.3a2,2,0,0,1,1.3.8l1,.8q2.1.1-.9,3.3a23,23,0,0,1-6.9,5.4,11.5,11.5,0,0,1-10,2.1,13.9,13.9,0,0,1-8.6-6.4c-2.4-3.5-3.1-9-1.8-16.4.6-4.8,3.1-9.6,7.2-14.3s8.4-7.9,12.8-9.3a5.8,5.8,0,0,1,3.4-.9,27.5,27.5,0,0,1,5.2.7,8.7,8.7,0,0,1,5.6,3.5,10.4,10.4,0,0,1,2.7,7.8c-.5,2-2,4.3-4.5,6.8a27.1,27.1,0,0,1-8.9,5.9c-4.9,1.2-8.8.6-11.7-1.7-1.5-.7-2.6-.7-3.3.2s-1.2,2.9-1.9,6.4c-1.1,5.9.1,9.3,3.6,10.1l1.6.5,1.2.3,1.2.3h1.3a6.6,6.6,0,0,0,2-.6l1.6-.8Zm63.9-21.6-3.4-.4a9.9,9.9,0,0,0-3,.6l-2.4,1a9.3,9.3,0,0,0-1.9,1.2l-1.4.8a63.1,63.1,0,0,0-11.5,7.8c-5,4.7-7.9,8-8.7,10.1-3.3,6.4-5.2,9.9-6,10.4s-1.9.9-3.8-.6a2.4,2.4,0,0,1-2.4-2.2c-.2-1.1.4-3.6,2-7.7q2.9-9.4,4.2-13.5a36,36,0,0,0,2-4.7,35.6,35.6,0,0,1,2.3-5,43.9,43.9,0,0,1,5.7-11.2,2.9,2.9,0,0,1,2.4-1.6c1.2-1,2.5-.8,4,.7a4.3,4.3,0,0,1,.8,4c-.3,1.5-1.5,3.6-3.5,6.2l-2.3,4.6c-1.8,3.5-2.9,6-3.2,7.6a59.6,59.6,0,0,1,6.1-5.9,51.2,51.2,0,0,1,10.1-6.9c3.8-2.3,7.2-3.1,10.2-2.5S627.7,382.9,627.8,387.7Zm67.4-44.3a2.4,2.4,0,0,1,1.7-.6c.7.1,1.5.8,2.3,2.3a5.5,5.5,0,0,1,1.2,3.5c-.2,3.4-3.3,10.2-9.1,20.2-9.7,17.6-14.3,26.8-13.6,27.6a47.9,47.9,0,0,0,8.5-4.3c1.6-.9,3.7-2.1,6.3-3.4s5.8-2.9,6.1-3.3a6,6,0,0,1,3.3-.4,4.7,4.7,0,0,1,2.2,2.1c.7,1.3.8,2.3.2,3a11.1,11.1,0,0,1-3.6,2.5l-7.4,3.9-7.6,3.9a18.2,18.2,0,0,0-3.1,1.9,66.7,66.7,0,0,0,3.3,7c1.7,3,2.5,4.7,2.5,5.1a11.4,11.4,0,0,0,3.9,6.3,7.4,7.4,0,0,0,6.6.6c2.6-1,4.3-.4,4.8,1.7s.4,1.3.2,1.6a8.1,8.1,0,0,1-1.9,1.8c-3.6,3.2-6.8,3.9-9.7,2.1-1.3,0-2.9-1-4.8-2.9a96.1,96.1,0,0,1-7.4-10.1c.1-.6-.9-2.9-3-7.1a14.3,14.3,0,0,0-1.2-2.8l-1.5-.2c-.2-.1-.6,0-1,.4a11.1,11.1,0,0,0-1.9,2,4.8,4.8,0,0,1-.8,1.2c-3.5,7.5-5,12.3-4.5,14.3a4.4,4.4,0,0,1-.9,2.8,3.8,3.8,0,0,1-2.7.5c-1.1-.4-2.1-1.5-3.1-3.2a8.7,8.7,0,0,1-1.3-4.8,23.2,23.2,0,0,0,1.1-2.7l1.9-4.8c.8-2,1.5-3.8,2.2-5.4a48.2,48.2,0,0,0,3.2-6.7c.9-1.6,2.6-4.8,5.1-9.7s3.9-8,4.6-9.3,3.8-7.4,9.1-17.8,8-16,8.2-16.9S694.2,343.3,695.2,343.4Zm59.9,53.5c1,.1,1.4,1.4,1.1,3.9a16.8,16.8,0,0,1-1.2,5.6c-.1,1.4-.9,4.6-2.6,9.7s-2.9,10.4-1.5,12.6a1.8,1.8,0,0,1-.3,2c-.4.7-1.1,1-2.3.9s-2.3-1.2-3.5-3.2a13.1,13.1,0,0,1-1.4-7.4c.2-2.9,1.2-6.9,3-12.1s2.6-8,2.4-8.3-1.6.1-4.1,1.3a18.7,18.7,0,0,0-5.5,3.4l-2,1.6-5.9,4.1c-2.8,1.9-6.4,4.9-11.1,8.9a2.2,2.2,0,0,1-3.4.9,4.8,4.8,0,0,1-2.6-1.9,4.5,4.5,0,0,1-1-3c.2-3.1,3.4-10.2,9.4-21.2a10.4,10.4,0,0,0,1.7-5.3,6.1,6.1,0,0,1,1.6-4.3c.4-.7,1-.8,1.9-.4a3.9,3.9,0,0,1,2,2c2.2,2.4,2.2,6.2-.1,11.3l-2.2,4.3,6.8-3.3,3.4-2.3c2.6-1.7,4.1-2.5,4.6-2.5a3.4,3.4,0,0,0,2.3-1.2l1.2-.5a3.3,3.3,0,0,0,2.1-.8c.7-.6,2-.3,3.8.7s2.9,2,2.8,3.3Zm28.9,6.3a4.2,4.2,0,0,0,.7,3,2.7,2.7,0,0,0,2.2,1.4c2.6.1,4.9-1,7-3.5a16.3,16.3,0,0,0,3.9-7.1c.6-2.3.4-3.8-.5-4.6s-5-.2-9,2.9a36.9,36.9,0,0,0-5.6,5.3l-1.9,2.6a5,5,0,0,1,2.1-.2C783.6,403,784,403,784,403.2Zm-5.9,5.6c-2.5,5.4-3.8,9.4-4,12.1a12.1,12.1,0,0,0,.7,5.9c.7,1.2,2,1.8,4,2a19.3,19.3,0,0,0,5.1-.3,34.6,34.6,0,0,0,5.8-3.1l4.6-2.3a1.7,1.7,0,0,0,1.1-.6,2.9,2.9,0,0,1,2.7.6,2.7,2.7,0,0,1,1.4,2.4,9.5,9.5,0,0,1-2.6,3.2c-1.5,1.5-2.6,2.2-3.3,2.3l-2,.9h.1a3.1,3.1,0,0,1-2.4,1.4h-1c-.4.7-1.7,1.3-3.7,1.8a15.4,15.4,0,0,1-5.5.7,12.3,12.3,0,0,1-9.2-4.9,15.8,15.8,0,0,1-2.6-11.2c.7-6.3,3.3-13,7.8-20,6.2-9.9,12.7-14.6,19.5-14.2a14.9,14.9,0,0,1,5.4,1.8,10.1,10.1,0,0,1,5.1,6.6,16.6,16.6,0,0,1-.8,6.6c-2.5,6.2-6.3,10.5-11.5,13a9.9,9.9,0,0,1-5.3,1c-4.1-.3-6.9-1.8-8.6-4.5Zm47.2,1.8-.9,9.1c.2,1.9.3,3,.4,3.4s.3.5.5.4l.7-.2c.9-.3,3.6-3.8,8.3-10.6,3.5-4.6,5.7-7.5,6.7-8.6s1.2-5.5,2-8.9c2.8-2.5,4.7-2.6,5.6-.3s2,2.2,1.4,4.3l-2.4,6.8a50,50,0,0,0-1.6,9.8,57.3,57.3,0,0,0-.2,8.9,4.1,4.1,0,0,0,.9,2.1c.7.4,2-.1,4-1.4a83.3,83.3,0,0,0,7.1-7.7c2.7-3.4,4.1-5.4,4.2-6.1a5,5,0,0,1,2.1-4l2.4-5.1c-.2-.4.1-1,.8-1.6a7.9,7.9,0,0,0,1.2-1.4,2.3,2.3,0,0,1,1.6-1.8,2.4,2.4,0,0,1,2.4.7,3.5,3.5,0,0,1,1.1,3.1c0,1.3-.9,3.6-2.6,7.1a53,53,0,0,1-5.5,8.8,42.8,42.8,0,0,1-5.8,8.2,32.4,32.4,0,0,1-5.1,5c-3.3,3.8-6,5.6-7.9,5.6s-3.1-1.4-5.7-4.6-2-7.3-1.8-14.7c-7.6,9.9-13.5,15.4-17.8,16.5-1.5.4-2.7-.3-3.5-2.1a13.3,13.3,0,0,1-.7-6.8,115.8,115.8,0,0,1,.1-13.1c.2-5,.7-8.2,1.3-9.8V400c-.3-.7-.2-2.4.2-5.1s.9-4.4,1.3-5,.8-.8,1.9-1,1.9.9,1.9,1.7,1.3,1.2,1.6,1.1.6,2.9.3,7.2l-.4,4.6C825.3,405.2,825.2,407.6,825.3,410.6ZM326.2,511.8l-1.1,6.9-1.1,4.1h2.1l2.8.8c.7,1,1.4,1.6,2,1.6s1.6.8.6,2a7.5,7.5,0,0,1-1.6,1.5c-4.4,2.3-7.8,2.1-10.3-.8s-2.9-6.8-1.2-11.9a59.6,59.6,0,0,0,1-8.3c.2-1.8-.2-2.7-1.1-2.8s-6.2,1.9-12.8,6.1a57.9,57.9,0,0,0-14.8,12.7c-2.8,3.1-5,4.7-6.4,4.8a5.2,5.2,0,0,1-3.6-1.4,5,5,0,0,1-1.4-2.3,21.8,21.8,0,0,1,.8-3.5,220.9,220.9,0,0,1,9.4-25.5,109.7,109.7,0,0,1,4.7-11.4c2-4,3.6-7.5,4.9-10.5l3.9-8.9c1.2-2.7,2.1-4.8,2.8-6s1.5-3.5,2.1-5.1a1.8,1.8,0,0,1,2.2-1.9c1.8.1,2.9,1.4,3.6,3.9a9.5,9.5,0,0,1-1.2,7.6c-1.4,2.5-3.9,7.8-7.5,16s-6,13.6-7.5,16.3c-.1,1-1.2,3.3-3.2,6.8q-.2.6-2.1,5.7a64,64,0,0,0-2.5,7.7,31.4,31.4,0,0,1,7.1-7.1l9.3-6.6,4.3-2.5c0-.4.3-.6,1-.6s1.1-.1,1.1-.7,1.1-1,3.1-1.3a18.8,18.8,0,0,1,5-.4,4.3,4.3,0,0,1,2.8.8,10.6,10.6,0,0,1,2.1,3C327.7,504,328,507.7,326.2,511.8Zm45.4-.6a15.9,15.9,0,0,0,1-5.5c.2-2.5-.1-3.9-.8-4.3-2.3-1.5-5.2-1.1-8.6,1.4s-9.4,9.7-14.2,18.8c-2.2,4.2-2.2,7.2-.3,9.1s6.9.5,13.3-5.6A46.7,46.7,0,0,0,371.6,511.2Zm-25-2.6c6.5-9.2,13.6-14.5,21.4-15.8a10,10,0,0,1,4-.3c.8.1,1.8.9,2.9,2.3a10.2,10.2,0,0,1,4.1,3.4,10.9,10.9,0,0,1,1.4,5.4c.3,6.8-2.5,13.7-8.2,20.8a39.9,39.9,0,0,1-6,6.2,48.7,48.7,0,0,1-7.2,4.3,20.1,20.1,0,0,1-10.4,3.1c-1.5-.1-3.1-1-4.9-2.8-3-3.6-4.2-6.9-3.5-9.9l.5-3c-.4-.4-.5-.8-.3-1l.5-.5c.6,0,.8-.3.6-1.1s.4-2.5,1.4-4.8A32.6,32.6,0,0,1,346.6,508.6Zm53.5-11.2.9-3.8a3.3,3.3,0,0,1,1.5-2.4c1.2-.6,2.7-.1,4.3,1.5s1.8,2.4,1.7,3.2-.8,2.6-2.3,5.7a86.2,86.2,0,0,0-7.7,18.6,1.6,1.6,0,0,0-.6,1.3,7,7,0,0,1-.6,2.3,29.9,29.9,0,0,0-.8,3.2,2.4,2.4,0,0,0,.6,2.4,2.2,2.2,0,0,0,2.2-.1,3,3,0,0,1,1-.9,16.9,16.9,0,0,0,3.3-3.4,6.6,6.6,0,0,1,1.6-2.2,2.7,2.7,0,0,0,1.2-1.6c0-.6,1.5-2.5,4.3-6s5.1-7.7,6.1-8.8a29.6,29.6,0,0,0,2-2.5l.6-1.1a1.3,1.3,0,0,0,.1-.5q.5-.6.6-.6l.4-.3h1.3c1.3.1,2.1.3,2.3.7a2.6,2.6,0,0,1,.7,1.4,5.5,5.5,0,0,1,1,3.9l-.8,1.9a15.3,15.3,0,0,1-2.2,6,81.9,81.9,0,0,0-3.2,13.8c-.6,4.9-.6,7.6,0,8s1.6-.3,3.1-1.9,2.9-3.3,4.2-4.9a25.6,25.6,0,0,1,3.4-4,33.7,33.7,0,0,0,4.4-5.4,19,19,0,0,1,1.7-3.7,25.1,25.1,0,0,0,1.8-3.7,3.1,3.1,0,0,1,.7-1.7,50.4,50.4,0,0,0,4-6.3q1.2-3.6,3.9-4.2c2-.5,2.9.1,2.9,1.6a1.4,1.4,0,0,1,0,.9,66.1,66.1,0,0,1-6.3,15.1,124,124,0,0,1-9.8,15.9,6,6,0,0,0-2,1.9,3.6,3.6,0,0,0-.9,1.8c0,.2-.8,1-2.5,2.1a44.2,44.2,0,0,1-4.9,3.1,5.5,5.5,0,0,1-6.6.2,8.4,8.4,0,0,1-3.7-5.1c-.6-2.2-.7-5.5-.4-10l.5-6.3a72.7,72.7,0,0,0-4.9,6,46.5,46.5,0,0,1-6.3,8.2c-2.1,2.2-3.7,3.5-4.8,3.7s-2.5,0-4.6-.8-3.2-1.8-3.5-2.7-.1-3.7.4-8.1,1.4-7.3,2.2-8.5l.3-1.3a.4.4,0,0,0-.2-.5C396.3,506.4,399.1,499.4,400.1,497.4ZM544.4,546a10.7,10.7,0,0,1-4.7-1.7,4.8,4.8,0,0,1-1.9-4.5l.6-8.1c.2-4,.1-6.3-.5-6.9s-3.6.5-7,3.8a73.6,73.6,0,0,0-8.9,10.6c-2.6,3.6-4.1,5.6-4.5,5.8s-1,.1-1.9-.5c-3.2-1.3-4.3-3.4-3.3-6.5a182.7,182.7,0,0,0,5.9-18.1c-.6-1.2-2-1.1-4.3.2s-5.3,4.7-9,10-7.9,9.9-9.7,11.2-2.2,2.8-2.6,2.9a4,4,0,0,1-2.5-.8,7.3,7.3,0,0,1-3.2-7.2c.2-3.2,1.8-9.1,5-17.7,2.3-3.7,3.5-6.1,3.6-7.3,1.3-5.7,2.4-8.7,3.1-9.2a2.8,2.8,0,0,1,2.5-.6,3.6,3.6,0,0,1,2.4,2.1c1.6,2,1.3,5.3-.7,10a80.7,80.7,0,0,0-5.8,13.8c1.2-1.2,2.8-3,4.7-5.3a90.3,90.3,0,0,1,7.7-8c3.2-3.1,6.5-4.5,9.9-4.3s6,4.5,6.2,10.5l-1.1,6.7a47.8,47.8,0,0,1,8.5-8.2c3.8-2.5,6.8-2.5,9,.1q5.7,3.8,3.9,15.3a18.9,18.9,0,0,0,0,8.2c.6.5.7,1.2.2,2.2S545,546,544.4,546Zm18.8-23.7a52.6,52.6,0,0,1,5.4-9.8c1.9-2.8,3.5-4.1,4.7-4s2.4,1.6,3.4,4.5a2.3,2.3,0,0,1-.8,3.1,36.8,36.8,0,0,0-5.2,8.6c-2,4.1-3.7,8-5,11.5s-1.4,5.3-.8,5.3c2.5.2,5.7-1.3,9.5-4.5s5.9-6.3,10-12,6.4-9,6.8-9.9a53.9,53.9,0,0,1,3-4.5,5.1,5.1,0,0,1,2.3-1.4h1.9c.5.1,1,.6,1.7,1.3a2.2,2.2,0,0,1,1.1,2.2l-2,3.9c-6.8,12.7-10.5,20.8-11.4,24.2q-1.8,7.6,2.1,11.7c1,.8.8,1.6-.4,2.5a5.5,5.5,0,0,1-2.9,1.1c-1.4.6-3.1-.6-5.1-3.5s-1.2-4.2-1-7.4.3-4.9,0-5-2.3,1.2-5.7,4.1c-5.1,4.4-8.8,6.4-11.3,6a4.6,4.6,0,0,1-3-2.1,13.1,13.1,0,0,1-2.1-5.1c-.5-2.1-.2-5.1.7-9.2A84.9,84.9,0,0,1,563.2,522.3Zm79,1.3a12.2,12.2,0,0,1-2.1,4.1c-.9,1.2-1.7,1.7-2.6,1.7s-1.3.1-1.4.6-.5.9-1.5.2-1.5-1.3-1.6-1.9a8.6,8.6,0,0,1,.1-1.7c.2-.5.6-1.2,1-2.2,2.6-6.7,1.8-9.3-2.5-7.8-7.4,3.5-13.4,11.9-17.7,25.1a11.8,11.8,0,0,0-1.1,5.5,7.1,7.1,0,0,0,.5,2,16.3,16.3,0,0,0,4.9.6,17.5,17.5,0,0,0,6-1.4,39.7,39.7,0,0,0,5.7-3.2,48.9,48.9,0,0,0,4.1-2.7,8.5,8.5,0,0,1,2.2-1.4c.8-1.1,1.5-1.7,2-1.8h2.3c2,.9,3,1.7,3,2.5s-.2.3-.5.4l-.7.6c.3.8-1.4,2.6-4.9,5.4s-5.9,4.3-6.8,4.3-1.5.1-1.5.6-1.4,1.1-4.2,2.2a32.7,32.7,0,0,1-6.5,1.9c-4,.4-7.2-.4-9.7-2.6s-3.6-5.3-3.3-9.4,1.1-8.4,3.4-13.9a50.6,50.6,0,0,1,9.8-14.6c4.1-4.3,7.2-6.8,9.2-7.4a15.8,15.8,0,0,1,6.5-.9,14.3,14.3,0,0,1,4.4,2.3q2.3,1.5,2.1,3l.6.7c.8,0,1.3,1.2,1.6,3.6A9.5,9.5,0,0,1,642.2,523.6Zm59.2,26.6-.9,1.9v.6c0,.5-1.3,1.7-3.7,3.7-5.8,4.6-10.3,5.4-13.5,2.3s-2.9-5.2-2.6-9.6a50.1,50.1,0,0,1,4.1-15.3,8.4,8.4,0,0,0,.6-1.8c.1-.2,0-.4-.2-.7s-1.2.5-2.4,1.6a69,69,0,0,0-12.5,11.6c-4.2,4.9-6.4,8.2-6.5,9.7a3.2,3.2,0,0,1-2.1,3,4.2,4.2,0,0,1-3.9-.7,5.4,5.4,0,0,1-2.4-3.2,40.4,40.4,0,0,1,.5-9,119.6,119.6,0,0,1,2.8-13.5c1.2-4.5,3.5-10.9,6.6-19.1l8.3-18.5q1.1-.9,3-5.4a25.9,25.9,0,0,0,2.3-6.1,3.5,3.5,0,0,1,1.5-2.8l1.4-1.2a5.3,5.3,0,0,1,2.6,1.2,4.1,4.1,0,0,1,1.8,2.4,8.3,8.3,0,0,1,.1,5.8c-.6,1.9-2.3,5.2-5.1,10a100.4,100.4,0,0,0-7.1,13.8c-1.9,4.5-3.9,9.6-6,15.4s-3.1,8.9-3.2,9.9.3,1.3,1.1,1a6,6,0,0,0,2.1-1.4c.4-.7,2.1-2.3,5.3-4.8q12-9.4,13.8-9.3a5.5,5.5,0,0,1,3.3,1.4,5.7,5.7,0,0,1,1.8,2.9,2.7,2.7,0,0,1,.6,1.1l.6.8c1.1,1.2-.1,6-3.6,14.5q-3.3,10.2-2.7,11.1l.4.2,4.4-2.2c4.4-2.4,7.3-3.2,8.9-2.3A1.1,1.1,0,0,1,701.4,550.2Zm96.3-62.1c4.9-.2,8.1-.1,9.7.3s2.9,1,3.4,2.3c.8,3.7-.1,5.3-2.7,4.9a87.2,87.2,0,0,1-10.7,0c-6.1.1-9.5.5-9.9,1.1l-1,1.2-.9.9c.1,1-.4,3-1.7,5.9l-3.8,9.4c-3.3,8.3-5.3,13-6,14.2a18.6,18.6,0,0,0-1.5,4c-2.1,5.9-4.4,11.7-6.8,17.7s-4,10.3-5,13.2l9.7-.3a62.8,62.8,0,0,1,8.8.2,2.8,2.8,0,0,1,2.5,2c2,3.2,1.5,5.1-1.7,5.5a30,30,0,0,1-7.3-.1c-7.2-.2-11.8-.3-13.8-.2s-3,.6-3.2,1.4-1.3,1.4-3.6.2-4.9-2.5-11.7-2.7a9.4,9.4,0,0,1-5-1.1c-1.5-.9-2.1-1.9-1.6-3s4-3.2,11-2.8l6.9.4,1.4-2.5a74.2,74.2,0,0,0,2.7-7c1.1-2.7,2.3-5.7,3.7-9,3.5-8.8,5.5-13.7,5.8-14.7,1.5-2.7,3.2-7.2,5.2-13.6,4.9-12.2,6.9-18.4,6.3-18.7a39.1,39.1,0,0,0-7.2,0c-3.8.1-6,.3-6.4.5s-1.2.6-2.2.2a2.8,2.8,0,0,1-1.9-1.9c-.1-1.5.2-2.5,1-3.1a26.8,26.8,0,0,1,6.3-1.9,49.2,49.2,0,0,1,10-1.4c3.3-.1,5.9-.8,7.7-2.2a13.6,13.6,0,0,1,4.6-.5C789.8,487.7,792.7,488.1,797.7,488.1ZM213.8,660.8c-.9,1.1-1.8,1.7-2.5,1.6s-1.6-.8-2.9-2.2a6.5,6.5,0,0,1-1.6-2.1c-.4-1.2.8-6.6,3.7-16,.5-2.2,2.3-6.6,5.5-13.3s5.8-11.3,7.7-13.7,3.5-.9,5.1.9.9,1.9.2,3.5a81.3,81.3,0,0,1-5,10.1c-2.3,4.4-3.4,6.7-3.2,6.7a2.8,2.8,0,0,0,1.2-.5c1.1-1.5,3.6-3.6,7.4-6.2a62.9,62.9,0,0,1,7.3-4.5l3.1-1.2,2-.6a9.7,9.7,0,0,1,6-.7q3.3.6,3.9,2.7c-.1.8.4,1.5,1.4,2.1l.6.9c0,.7-1.2,1.1-3.5,1.2a20.5,20.5,0,0,0-7.6,1.4l-2.3,1.1-2.3,1-2,1.1-2.3,1.1-1.9,1.2-2.2,1.3-1.9,1.3a35.2,35.2,0,0,0-8.2,8.8c-.6.5-1.4,2.1-2.2,4.6A43.7,43.7,0,0,0,216,657,9.7,9.7,0,0,1,213.8,660.8Zm63.6-23.5a14,14,0,0,0,4.6-2.9c1.7-1.5,2.5-2.7,2.6-3.9a3.3,3.3,0,0,0-1.6-3,5.6,5.6,0,0,0-4.3-.8,13,13,0,0,0-5.2,2.7,27.6,27.6,0,0,0-4.6,4.3c-1.2,1.4-1.7,2.3-1.5,2.5s1.7,1.2,4.1,1.5A15.5,15.5,0,0,0,277.4,637.3Zm-1.8,21,.5-.2h.2l.3-.3,2.3-1.9c1.1-.9,1.8-1.3,2.2-1.3a1.9,1.9,0,0,1,1.3.8l1,.8q2,.1-.9,3.3a23,23,0,0,1-6.9,5.4,12,12,0,0,1-10.1,2.1,14,14,0,0,1-8.5-6.4c-2.5-3.5-3.1-9-1.9-16.4.7-4.8,3.1-9.6,7.3-14.3s8.4-8,12.7-9.3a6.3,6.3,0,0,1,3.5-.9,20.4,20.4,0,0,1,5.1.7,8.9,8.9,0,0,1,5.7,3.5,10.4,10.4,0,0,1,2.7,7.8c-.5,2-2,4.3-4.5,6.8a27.1,27.1,0,0,1-8.9,5.9c-4.9,1.2-8.9.6-11.7-1.7-1.6-.7-2.6-.7-3.3.2s-1.2,2.9-1.9,6.3c-1.1,6,.1,9.3,3.6,10.2l1.5.5,1.3.3,1.2.2a2.8,2.8,0,0,0,1.3,0,6.6,6.6,0,0,0,2-.6,7.8,7.8,0,0,1,1.6-.8Zm26.7-.4c-.2,3.1,1.3,3.8,4.5,2.2a40.7,40.7,0,0,0,8.1-5.8,102,102,0,0,0,8.7-8.7,25.5,25.5,0,0,0,5.2-9.7,14.4,14.4,0,0,0-1.5-3.1c-.7-1.1-1.3-1.8-1.9-1.9-2.7-.2-7,3.3-13,10.4l-4.7,6.1a28.4,28.4,0,0,0-3.1,5.4C303.1,655.6,302.3,657.3,302.3,657.9Zm33.3.7a4.4,4.4,0,0,1,3.9,0c1.3.5,1.8,1.5,1.7,3.1s-1.3,2.9-3.5,4.3a10.6,10.6,0,0,1-6.2,1.9c-2.6-.2-4.7-5-6.5-14.4l-11.7,10c-1,1.6-3.5,3-7.4,4.2a9.2,9.2,0,0,1-4.3-.2c-1.7-.3-2.5-.7-2.5-1.1s0-.6-.1-.6-.2-.2-.5-.2a6.7,6.7,0,0,0-2.2-1.7,6.8,6.8,0,0,1-.9-4,32.2,32.2,0,0,1,1.6-6.8c.7-4.2,3.7-9.4,8.8-15.8s9.8-10.6,13.9-12.7,5.8-2.4,9.4-.1,4.7,4.7,6.4,9c.3,2.2,0,5.5-.7,9.9a41.2,41.2,0,0,0-2.4,11.4,6.5,6.5,0,0,0,.3,3.6C333.3,659.1,334.2,659.1,335.6,658.6Zm44.7-62.5a7.3,7.3,0,0,1,.6,3.2,3.6,3.6,0,0,1-.8,2c-.4.5-1.3,2-2.9,4.5a62.7,62.7,0,0,1-3.5,8.6l-1.8,3.5a48.1,48.1,0,0,1-2.1,5c-1.3,2.6-2.7,6-4.4,10.4s-2.8,7-3.6,8-1.5,3.7-2.6,8.1-2.4,6-2.4,6.7a38.4,38.4,0,0,0-1.4,5.1,19.9,19.9,0,0,1-1.8,5.2c-.5,2.9-2,3.5-4.5,1.9a4.3,4.3,0,0,1-2.3-4,35.3,35.3,0,0,1,2.1-8.1c.9-4.2,1.9-7.2,3.1-9,4.4-11.8,6.8-18.3,7.1-19.5s2.2-5,3.9-8.5,2.7-6.2,3.2-7.5,1.5-3.8,2.7-7.2a41.3,41.3,0,0,1,3.1-6.9,33.7,33.7,0,0,0,2.9-4.1c.1-.5.7-.7,1.6-.5a3.1,3.1,0,0,1,2.3,1.2C379.4,594.1,379.9,594.7,380.3,596.1Zm4.2,26.4.9-1.9a7.6,7.6,0,0,1,1.3-3.1,22.4,22.4,0,0,0,2.6-4.3,59.6,59.6,0,0,1,4.1-6.5,14.8,14.8,0,0,1,3.5-4.7l-.2-.2a3.4,3.4,0,0,1,3.3-1.3c1.5.1,2.4.3,2.5.7s.3,1.3.2,3.1a5.8,5.8,0,0,1-1.4,3.8h.1a40.4,40.4,0,0,1-2.5,4.4c-.5.5-2.4,3.8-5.8,9.8q-8,13.8-8.1,15.3l-1.8,3.3-3.5,10c-1.7,3.6-2.6,5.7-2.7,6.1-1.6,3.7-2.9,8.9-3.9,15.7l-.2.5a7.7,7.7,0,0,1-1.5,3.6c-.7.6-1.6.6-2.8.2s-3.1-2.9-3-6.2c3-12.5,5.9-21.8,8.6-28.1.8-1.6,1.4-3,1.9-4.3C379.6,630.2,382.4,624.8,384.5,622.5Zm43.6,9.5a3.6,3.6,0,0,1,1.6-.8,4.3,4.3,0,0,1,1.9.9,6.5,6.5,0,0,1,1.8,5c-.3,1.4-1.5,3.9-3.7,7.4s-3.4,7.3-4.7,8.6q-5,9.6-9,16.2c-2.5,4.5-4.4,8-5.7,10.6-6.1,8.4-10.4,13.9-12.8,16.4-5.1,3.9-9,6.2-11.9,6.7s-6.2.3-9.9-1.3-5.5-3.4-5.8-5.6a2.5,2.5,0,0,1,1.3-2.4c.9-.7,1.7-.7,2.2.2,6.6,5.1,13.6,3.3,21-5.5,4.9-6.9,8.4-12.1,10.6-15.5-1.7-.7-3.3-2.3-4.6-4.9s-2-4.5-1.6-5.6V661c-1-.1-1.5-2.4-1.8-6.9a59.9,59.9,0,0,1,.4-10.4c.4-2.4,1-6.5,1.7-12.1.1-1.9.6-3.2,1.7-3.8q4.8-1.6,5.1,5.1a65.7,65.7,0,0,1-.6,9.9c-1.8,13.4-.9,21.7,2.8,24.8,2-3.9,3.4-6.6,4.2-7.9a11.1,11.1,0,0,0,1.5-2.8,4.8,4.8,0,0,1,.8-1.6c.3-.7,1.3-2.3,2.9-5,2.7-6.3,4.3-9.9,4.9-10.7l1.3-2.3.9-1.5.8-1.1a7.2,7.2,0,0,1,.7-1.1l.7-.8A2.8,2.8,0,0,1,428.1,632Zm71.6-27.6a8.8,8.8,0,0,1,.6,3.2,3.9,3.9,0,0,1-.8,2c-.4.5-1.4,2-2.9,4.5a68.7,68.7,0,0,1-3.5,8.6c-.9,1.7-1.5,2.8-1.8,3.5a50.5,50.5,0,0,1-2.1,4.9c-1.3,2.7-2.7,6.1-4.4,10.4s-2.8,7-3.6,8.1-1.5,3.7-2.6,8-2.4,6.1-2.4,6.8a30.8,30.8,0,0,0-1.4,5.1,19.9,19.9,0,0,1-1.8,5.2c-.5,2.8-2,3.5-4.5,1.9a4.5,4.5,0,0,1-2.3-4.1,34.8,34.8,0,0,1,2.1-8c.9-4.2,1.9-7.2,3.1-9,4.4-11.8,6.8-18.3,7.1-19.5s2.2-5,3.9-8.6,2.7-6.1,3.2-7.4,1.5-3.8,2.7-7.3a32.6,32.6,0,0,1,3.1-6.8,44.2,44.2,0,0,0,2.9-4.1c.1-.5.7-.7,1.6-.5a3.1,3.1,0,0,1,2.3,1.2C498.8,602.3,499.3,603,499.7,604.4ZM489,677.1l-.5-2.6a2.4,2.4,0,0,1-1-1.1,4.5,4.5,0,0,1,.6-2.1c1.2-1.9,3.5-6.2,6.8-13s5.3-11,5.7-12.3a4,4,0,0,1,1.5-2.5c1.5-1,2.9-.2,4,2.5a8.6,8.6,0,0,1,.7,3.4c-.1,1.2-1.3,4.1-3.5,8.9s-5,9.7-7.3,13.6-3.7,5.9-4.4,5.9h-.7ZM509.9,616a6.6,6.6,0,0,1,3,.9,26.2,26.2,0,0,0,2.9,5.2c1.5,2,2.3,3.3,2.2,4s-.4,3.2-.9,3.6-1.5.5-3.4.4a7.5,7.5,0,0,1-5.3-3,7.8,7.8,0,0,1-2-5.7,8.6,8.6,0,0,1,1.7-2.9A19.7,19.7,0,0,0,509.9,616Zm39.6,30.4c-.1-.5-2.7.3-7.6,2.5a58.6,58.6,0,0,0-8.7,5.2,27.8,27.8,0,0,0-6.5,6.1c-.4,1,0,2.1,1.2,3.2a3.4,3.4,0,0,0,3.7.9c1.5-.9,4.2-2.8,8.1-5.6a68,68,0,0,0,7.3-5.8,9.8,9.8,0,0,0,2-3.1C549.6,648.3,549.8,647.2,549.5,646.4ZM543,624.3c-.1,1.2-1.9,4.8-5.5,10.8s-5.5,9.8-6,11.5c.2.1,1-.3,2.6-1.1a51.5,51.5,0,0,1,7.4-4.3c9.4-4.7,14.6-3.1,15.6,4.7-.1,1.4-.9,3.6-2.5,6.6s-2.9,4.8-4.1,5.7l-2,1a3,3,0,0,1-2.1,2.5c-1.3,1.1-2,1.9-2,2.3v.7l-4,2.3a5.5,5.5,0,0,1-2.6,1.5l-1.2.4-.8.3c-.8.2-1.2.5-1.2.8s1.2,2.6,3.7,6a43.1,43.1,0,0,0,5.5,6.1,4.4,4.4,0,0,1,2,3,4.8,4.8,0,0,1-.1,3.2c-.3.4-1.3.4-2.9.2a8.3,8.3,0,0,1-3.3-.9,6.7,6.7,0,0,1-1.6-1.2,15.9,15.9,0,0,0-1.3-1.3l-5.2-6.6c-.4-.9-2-2.9-4.7-6.1s-3.2-4.2-4.1-4.3l-5.2,14c-1.2,2-2.4,2.9-3.4,2.9a3.2,3.2,0,0,1-2.5-1.5,6.5,6.5,0,0,1-.8-3.8c-.5-2.6,2.3-10.3,8.5-23a12.4,12.4,0,0,1,1-2.6l1.2-2.8c.4-1,1-2.4,1.7-4.4s4.3-8.9,10.3-20.8c1.7-2.9,4.3-7.2,7.8-12.8a105.6,105.6,0,0,1,6.8-10,3.6,3.6,0,0,1,5.8.1,3.2,3.2,0,0,1,.6,3.3c-.2,1.3-1.4,3.5-3.5,6.4a28,28,0,0,1-3,4.8,35.1,35.1,0,0,0-2.7,4C544.4,623.5,543.7,624.4,543,624.3Zm41.4,34.3a12.9,12.9,0,0,0,4.6-3c1.7-1.4,2.6-2.7,2.6-3.8a3.1,3.1,0,0,0-1.6-3,5.4,5.4,0,0,0-4.2-.8,12.4,12.4,0,0,0-5.3,2.6,32.6,32.6,0,0,0-4.6,4.4c-1.2,1.4-1.7,2.2-1.5,2.5s1.7,1.2,4.1,1.5A15.3,15.3,0,0,0,584.4,658.6Zm-1.7,21,.4-.3h.3a.2.2,0,0,0,.2-.2l2.4-1.9c1-.9,1.7-1.3,2.2-1.3a1.9,1.9,0,0,1,1.2.7l1,.9q2.1.1-.9,3.3a26.7,26.7,0,0,1-6.9,5.4,11.4,11.4,0,0,1-10,2,13.7,13.7,0,0,1-8.6-6.3c-2.4-3.6-3-9-1.8-16.4.6-4.8,3.1-9.6,7.2-14.4s8.4-7.9,12.8-9.2a6.9,6.9,0,0,1,3.4-1,30,30,0,0,1,5.2.8,8.7,8.7,0,0,1,5.6,3.5,10.3,10.3,0,0,1,2.7,7.7q-.7,3.2-4.5,6.9a27.1,27.1,0,0,1-8.9,5.9c-4.9,1.1-8.8.5-11.7-1.7s-2.6-.7-3.3.1a23.6,23.6,0,0,0-1.8,6.4c-1.2,5.9,0,9.3,3.5,10.2l1.6.5,1.3.3,1.1.2h1.3l2-.7,1.6-.8Zm31.7,1.3q3.9-.7,11.4-6l1.6-1.1a10.2,10.2,0,0,0,1.7-1.3l1.2-1.4a8.6,8.6,0,0,0,1.3-1.7c2.7-4.4,2.5-8.1-.5-11.1q-1.2-1.3-4.2-1.2a10,10,0,0,0-5.7,2.5c-5.5,4.3-9.4,10.5-11.7,18.7C609,680.5,610.6,681.4,614.4,680.9Zm20.9,15.9c-2.2.3-3.6-.7-4.2-3.2a30.1,30.1,0,0,1-.8-12.9l.5-2.7-5.4,3.6c-5.8,4.5-11.2,6.5-16.2,6.2-7.2-1.8-8.9-7.7-4.9-17.8a37.2,37.2,0,0,1,8.5-12.8c6.2-8,12.6-9.8,19.4-5.2,2.1,1.2,3.4,1.7,4,1.6s1.4-1.6,2.3-4.4c3-9.8,7.9-20.7,14.6-32.8,1.6-2.9,3.2-4.2,4.7-3.9s3.3,1.5,4.2,4.2a4.6,4.6,0,0,1-.7,4.2,145.1,145.1,0,0,0-9.6,18.5c-3.9,8.6-6.7,15.4-8.5,20.4a105.5,105.5,0,0,0-4.2,17.9c-1.1,7.1-1.5,11.7-1.1,13.9s.4,3.5.1,4S636.8,696.7,635.3,696.8Zm72-11.1a14.7,14.7,0,0,1-3.4,2.1q-2.7,1.4-3.3,1.2c-.4,0-.6.2-.6.7s-1.2.8-3.5,1.4a18.5,18.5,0,0,1-4.6.7,4,4,0,0,1-2.5-1.5,12.2,12.2,0,0,1-1.8-2.4,13.3,13.3,0,0,0-1-2.3c-.4-.9-.6-1.6-.8-2a7.4,7.4,0,0,1,.2-5.7c1.3-3.9,3.4-9.2,6.3-16.1s5.2-11.4,6.6-13.3a3,3,0,0,1,2.9-1.2,3.8,3.8,0,0,1,2.7,2.3,4.8,4.8,0,0,1,.8,3.2c-.1.7-1,2.4-2.6,4.9a28.9,28.9,0,0,1-1.5,3.1l-1,1.9c0,.1-.2.6-.4,1.7-.8,2.7-1.4,4-1.8,4s-1.1,1.9-1.9,4.6c-1.9,6.3-2.5,9.8-1.8,10.7,5.1.3,10.8-3.1,17.3-10.3.5-2.1,1.5-5.5,3-10s2.5-8.2,3.2-11.1a11.1,11.1,0,0,1,1.3-2,3.1,3.1,0,0,1,1.9-.2,4.6,4.6,0,0,1,2,.4c.5.2.9.7,1.5,1.6a10.5,10.5,0,0,1,.5,5.9,11.9,11.9,0,0,1-2.8,6c-1.4,1.7-3,6.5-4.7,14.5-1.1,3.2-2.4,8.2-4,15a71.7,71.7,0,0,0-3.1,7.6,34.1,34.1,0,0,1-3.5,7.3c-7.8,13.6-16.9,20.4-27.2,20.4a23.4,23.4,0,0,1-3.9-.2,16.3,16.3,0,0,1-2.8-1.5c-1.9-1.4-2.8-2.3-2.8-2.8s1.3-1.8,3.4-1.7a6.6,6.6,0,0,0,3,.7,5.8,5.8,0,0,0,3.4-.6,8.2,8.2,0,0,1,4-1.2c5.3-2.1,10-6.1,14-11.8s7.4-13.4,11.1-25.4Zm50.9-15.2c-1.1-.1-2.7-1.1-4.7-2.9l-1.9-2.8-2.4,2.1c-2.2,1.9-4.5,5.2-7,9.8s-3.9,7.7-4.2,9.6-.3,3.1.1,3.6a4,4,0,0,0,1.8,1,14.1,14.1,0,0,0,4.4-1.3,8,8,0,0,1,2.8-1.9c1.3.1,3.9-2,7.8-6.4s5.9-7.1,5.5-9.4c0-.2-.3-.5-.9-.7Zm15.1-7a1.2,1.2,0,0,0,1.2,1.5c1,.1-.4,1.4-4.2,3.7-2.2,1.3-3.4,2-3.5,2.4a2.7,2.7,0,0,0,0,1.3c1.6,4.3-.7,9.3-6.8,15.2s-11.9,8.9-17.9,9.1a11.7,11.7,0,0,1-3.5.2c-.5-.1-1.1-.7-2-1.7a11.4,11.4,0,0,1-4.3-4.4,7.4,7.4,0,0,1-.9-4.8c1-6.2,3.7-12.7,8-19.4s8.5-10.8,12.4-11.8,6.9-.6,8,2.1.9,4.3-1.1,4.9a1.2,1.2,0,0,0-1.5,1.1c.6.3,2.4.3,5.3.1s4.9-.7,5.6-1.3a4.3,4.3,0,0,1,3.1.2C772.7,662.3,773.4,662.9,773.3,663.5Zm16.8-4.7c1.1-1.3,2-1.9,2.6-1.9s1.9.2,3.6,1.1,1.5,5-.7,8.1c-4,4.5-6.7,10.4-8.2,17.6-1.2,2.9-1.8,4.8-1.8,5.9s.9,1.8,2.4,2.2,5.6-.5,9.5-4a36,36,0,0,0,10.8-17c1.4-4.6,2.8-7.3,4.4-8.1s2.8-.8,3.7.2a2.2,2.2,0,0,1,1.3,1.4,11.6,11.6,0,0,1-.1,3.7,15.5,15.5,0,0,1-1.5,5.3,31.2,31.2,0,0,1-2.9,5.3l-3.2,5.6a34.4,34.4,0,0,1-5.9,7.8c-2.9,3.1-5.5,5.1-7.8,5.9a14.6,14.6,0,0,1-6.7,1.9,17.6,17.6,0,0,1-6.2-1.9,24.1,24.1,0,0,1-3.6-5.1,22.5,22.5,0,0,1-1.3-7.1c-.1-3.2,1.1-7.9,3.8-14.2S787.6,660.9,790.1,658.8Zm34.7,31.7a8.4,8.4,0,0,1,3.5-1.3,6.5,6.5,0,0,1,3.4,1.1q3.8,2.7,3,5.7c-.4,2-2.2,3.6-5.5,4.9s-5.6.7-7.6-1.1S819.7,693.4,824.8,690.5Z" transform="translate(-34 -96.8)" style="fill:#806d73;opacity:0.8500000238418579;isolation:isolate"/></svg>